<svg width="514" height="513" viewBox="0 0 514 513" fill="none" xmlns="http://www.w3.org/2000/svg">
<path d="M513.001 256C500.501 410 276.501 512.5 257.001 512C237.501 511.5 10.0008 411.5 1.00077 256C-7.99923 100.5 115.616 0 257.001 0C398.386 0 525.501 102 513.001 256Z" fill="#333333"/>
<path d="M211.319 266.145C229.081 293.751 245.131 316.97 259.469 335.802L258.827 341.58C242.563 346.93 225.336 350.247 207.146 351.531L202.01 347.358C189.17 323.39 178.042 301.455 168.626 281.553H141.341L143.267 348H90.9436L93.8326 286.689L90.9436 140.955L178.256 140.634C200.726 140.634 217.953 146.091 229.937 157.005C242.135 167.705 248.234 183.113 248.234 203.229C248.234 215.855 245.024 227.625 238.604 238.539C232.184 249.453 223.089 258.655 211.319 266.145ZM142.304 242.391L170.231 243.675C178.149 240.679 183.927 236.292 187.565 230.514C191.417 224.736 193.343 217.246 193.343 208.044C193.343 197.986 190.668 190.603 185.318 185.895C180.182 180.973 172.05 178.298 160.922 177.87L143.588 178.833L142.304 242.391ZM373.238 140.634C395.494 140.634 412.614 146.198 424.598 157.326C436.796 168.454 442.895 184.29 442.895 204.834C442.895 220.884 439.257 235.008 431.981 247.206C424.705 259.19 414.433 268.499 401.165 275.133C387.897 281.767 372.489 285.084 354.941 285.084H336.323L338.249 348H285.926L288.815 286.689L285.926 140.955L373.238 140.634ZM364.25 247.527C372.382 244.745 378.374 240.358 382.226 234.366C386.292 228.16 388.325 220.028 388.325 209.97C388.325 199.27 385.65 191.352 380.3 186.216C375.164 181.08 367.032 178.298 355.904 177.87L338.57 178.833L336.965 246.243L364.25 247.527Z" fill="#F2F2F2"/>
<path d="M211.319 266.145L210.245 264.458L208.549 265.537L209.637 267.227L211.319 266.145ZM259.469 335.802L261.456 336.023L261.545 335.227L261.06 334.59L259.469 335.802ZM258.827 341.58L259.452 343.48L260.672 343.078L260.814 341.801L258.827 341.58ZM207.146 351.531L205.884 353.083L206.498 353.582L207.286 353.526L207.146 351.531ZM202.01 347.358L200.247 348.302L200.436 348.657L200.748 348.91L202.01 347.358ZM168.626 281.553L170.434 280.698L169.892 279.553H168.626V281.553ZM141.341 281.553V279.553H139.282L139.341 281.611L141.341 281.553ZM143.267 348V350H145.325L145.266 347.942L143.267 348ZM90.9436 348L88.9459 347.906L88.8472 350H90.9436V348ZM93.8326 286.689L95.8304 286.783L95.8336 286.716L95.8322 286.649L93.8326 286.689ZM90.9436 140.955L90.9363 138.955L88.9037 138.962L88.944 140.995L90.9436 140.955ZM178.256 140.634V138.634L178.248 138.634L178.256 140.634ZM229.937 157.005L228.59 158.484L228.604 158.496L228.618 158.509L229.937 157.005ZM238.604 238.539L240.328 239.553L238.604 238.539ZM142.304 242.391L140.304 242.351L140.265 244.299L142.212 244.389L142.304 242.391ZM170.231 243.675L170.139 245.673L170.552 245.692L170.938 245.546L170.231 243.675ZM187.565 230.514L185.901 229.405L185.886 229.426L185.872 229.448L187.565 230.514ZM185.318 185.895L183.934 187.339L183.965 187.368L183.996 187.396L185.318 185.895ZM160.922 177.87L160.999 175.871L160.905 175.868L160.811 175.873L160.922 177.87ZM143.588 178.833L143.477 176.836L141.625 176.939L141.588 178.793L143.588 178.833ZM209.637 267.227C227.417 294.862 243.498 318.127 257.877 337.014L261.06 334.59C246.763 315.813 230.744 292.64 213.001 265.063L209.637 267.227ZM257.481 335.581L256.839 341.359L260.814 341.801L261.456 336.023L257.481 335.581ZM258.202 339.68C242.104 344.975 225.041 348.263 207.005 349.536L207.286 353.526C225.63 352.231 243.021 348.885 259.452 343.48L258.202 339.68ZM208.407 349.979L203.271 345.806L200.748 348.91L205.884 353.083L208.407 349.979ZM203.773 346.414C190.945 322.468 179.832 300.564 170.434 280.698L166.818 282.408C176.251 302.346 187.394 324.312 200.247 348.302L203.773 346.414ZM168.626 279.553H141.341V283.553H168.626V279.553ZM139.341 281.611L141.267 348.058L145.266 347.942L143.34 281.495L139.341 281.611ZM143.267 346H90.9436V350H143.267V346ZM92.9414 348.094L95.8304 286.783L91.8349 286.595L88.9459 347.906L92.9414 348.094ZM95.8322 286.649L92.9432 140.915L88.944 140.995L91.833 286.729L95.8322 286.649ZM90.951 142.955L178.263 142.634L178.248 138.634L90.9363 138.955L90.951 142.955ZM178.256 142.634C200.421 142.634 217.096 148.016 228.59 158.484L231.283 155.526C218.809 144.166 201.03 138.634 178.256 138.634V142.634ZM228.618 158.509C240.282 168.74 246.234 183.539 246.234 203.229H250.234C250.234 182.687 243.987 166.67 231.256 155.501L228.618 158.509ZM246.234 203.229C246.234 215.497 243.12 226.917 236.88 237.525L240.328 239.553C246.928 228.333 250.234 216.213 250.234 203.229H246.234ZM236.88 237.525C230.636 248.139 221.776 257.12 210.245 264.458L212.392 267.832C224.402 260.19 233.731 250.767 240.328 239.553L236.88 237.525ZM142.212 244.389L170.139 245.673L170.322 241.677L142.395 240.393L142.212 244.389ZM170.938 245.546C179.164 242.433 185.336 237.807 189.257 231.58L185.872 229.448C182.517 234.777 177.133 238.925 169.523 241.804L170.938 245.546ZM189.229 231.623C193.361 225.426 195.343 217.515 195.343 208.044H191.343C191.343 216.977 189.473 224.046 185.901 229.405L189.229 231.623ZM195.343 208.044C195.343 197.655 192.575 189.617 186.639 184.394L183.996 187.396C188.76 191.589 191.343 198.317 191.343 208.044H195.343ZM186.701 184.451C181.059 179.044 172.351 176.308 160.999 175.871L160.845 179.869C171.748 180.288 179.304 182.902 183.934 187.339L186.701 184.451ZM160.811 175.873L143.477 176.836L143.699 180.83L161.033 179.867L160.811 175.873ZM141.588 178.793L140.304 242.351L144.303 242.431L145.587 178.873L141.588 178.793ZM373.238 140.634V138.634L373.231 138.634L373.238 140.634ZM424.598 157.326L423.237 158.792L423.244 158.798L423.25 158.804L424.598 157.326ZM431.981 247.206L433.691 248.244L433.695 248.237L433.699 248.231L431.981 247.206ZM336.323 285.084V283.084H334.261L334.324 285.145L336.323 285.084ZM338.249 348V350H340.311L340.248 347.939L338.249 348ZM285.926 348L283.928 347.906L283.83 350H285.926V348ZM288.815 286.689L290.813 286.783L290.816 286.716L290.815 286.649L288.815 286.689ZM285.926 140.955L285.919 138.955L283.886 138.962L283.926 140.995L285.926 140.955ZM364.25 247.527L364.156 249.525L364.537 249.543L364.897 249.419L364.25 247.527ZM382.226 234.366L380.553 233.27L380.548 233.277L380.544 233.284L382.226 234.366ZM380.3 186.216L378.886 187.63L378.9 187.645L378.915 187.659L380.3 186.216ZM355.904 177.87L355.981 175.871L355.887 175.868L355.793 175.873L355.904 177.87ZM338.57 178.833L338.459 176.836L336.615 176.939L336.571 178.785L338.57 178.833ZM336.965 246.243L334.966 246.195L334.919 248.149L336.871 248.241L336.965 246.243ZM373.238 142.634C395.174 142.634 411.739 148.115 423.237 158.792L425.959 155.86C413.489 144.281 395.814 138.634 373.238 138.634V142.634ZM423.25 158.804C434.935 169.463 440.895 184.705 440.895 204.834H444.895C444.895 183.875 438.657 167.445 425.946 155.848L423.25 158.804ZM440.895 204.834C440.895 220.571 437.332 234.332 430.263 246.181L433.699 248.231C441.183 235.684 444.895 221.197 444.895 204.834H440.895ZM430.271 246.168C423.203 257.811 413.222 266.868 400.271 273.344L402.059 276.922C415.644 270.13 426.208 260.569 433.691 248.244L430.271 246.168ZM400.271 273.344C387.327 279.816 372.235 283.084 354.941 283.084V287.084C372.743 287.084 388.467 283.718 402.059 276.922L400.271 273.344ZM354.941 283.084H336.323V287.084H354.941V283.084ZM334.324 285.145L336.25 348.061L340.248 347.939L338.322 285.023L334.324 285.145ZM338.249 346H285.926V350H338.249V346ZM287.924 348.094L290.813 286.783L286.817 286.595L283.928 347.906L287.924 348.094ZM290.815 286.649L287.926 140.915L283.926 140.995L286.815 286.729L290.815 286.649ZM285.933 142.955L373.245 142.634L373.231 138.634L285.919 138.955L285.933 142.955ZM364.897 249.419C373.365 246.523 379.765 241.892 383.908 235.448L380.544 233.284C376.983 238.824 371.399 242.967 363.603 245.635L364.897 249.419ZM383.899 235.462C388.242 228.833 390.325 220.283 390.325 209.97H386.325C386.325 219.773 384.342 227.487 380.553 233.27L383.899 235.462ZM390.325 209.97C390.325 198.969 387.574 190.427 381.685 184.773L378.915 187.659C383.726 192.277 386.325 199.571 386.325 209.97H390.325ZM381.714 184.802C376.073 179.161 367.352 176.309 355.981 175.871L355.827 179.869C366.712 180.287 374.255 182.999 378.886 187.63L381.714 184.802ZM355.793 175.873L338.459 176.836L338.681 180.83L356.015 179.867L355.793 175.873ZM336.571 178.785L334.966 246.195L338.965 246.291L340.569 178.881L336.571 178.785ZM336.871 248.241L364.156 249.525L364.344 245.529L337.059 244.245L336.871 248.241Z" fill="#F2F2F2"/>
</svg>
