<svg width="650" height="217" viewBox="0 0 650 217" fill="none" xmlns="http://www.w3.org/2000/svg">
<path d="M292.72 113.52C298.032 121.776 302.832 128.72 307.12 134.352L306.928 136.08C302.064 137.68 296.912 138.672 291.472 139.056L289.936 137.808C286.096 130.64 282.768 124.08 279.952 118.128H271.792L272.368 138H256.72L257.584 119.664L256.72 76.08L282.832 75.984C289.552 75.984 294.704 77.616 298.288 80.88C301.936 84.08 303.76 88.688 303.76 94.704C303.76 98.48 302.8 102 300.88 105.264C298.96 108.528 296.24 111.28 292.72 113.52ZM272.08 106.416L280.432 106.8C282.8 105.904 284.528 104.592 285.616 102.864C286.768 101.136 287.344 98.896 287.344 96.144C287.344 93.136 286.544 90.928 284.944 89.52C283.408 88.048 280.976 87.248 277.648 87.12L272.464 87.408L272.08 106.416ZM331.75 92.112C337.062 92.112 341.19 93.264 344.134 95.568C347.078 97.808 348.55 101.04 348.55 105.264C348.55 106.736 348.486 108.432 348.358 110.352C348.23 112.272 348.134 114.096 348.07 115.824C347.75 120.432 347.59 123.6 347.59 125.328C347.59 126.224 347.718 126.864 347.974 127.248C348.294 127.632 348.806 127.824 349.51 127.824C350.086 127.824 350.79 127.696 351.622 127.44L352.678 128.304L351.334 136.272C349.222 137.744 346.63 138.608 343.558 138.864C341.638 138.672 340.006 138 338.662 136.848C337.318 135.696 336.358 134.064 335.782 131.952H335.11C331.91 135.344 328.646 137.68 325.318 138.96C320.582 138.896 316.838 137.616 314.086 135.12C311.398 132.624 310.054 129.232 310.054 124.944C310.054 118.352 313.51 114.48 320.422 113.328L334.63 110.928V108.144C334.63 106.16 334.182 104.752 333.286 103.92C332.454 103.024 331.078 102.576 329.158 102.576C327.238 102.576 325.158 102.992 322.918 103.824C320.742 104.656 318.214 105.968 315.334 107.76L314.374 107.088L312.646 97.2C315.526 95.6 318.63 94.352 321.958 93.456C325.286 92.56 328.55 92.112 331.75 92.112ZM326.374 119.664C325.414 119.856 324.678 120.24 324.166 120.816C323.718 121.392 323.494 122.256 323.494 123.408C323.494 124.944 323.878 126.128 324.646 126.96C325.478 127.792 326.598 128.208 328.006 128.208C330.054 128.208 332.23 127.12 334.534 124.944L334.63 118.032L326.374 119.664ZM379.293 92.112C383.709 92.112 387.645 92.88 391.101 94.416L388.605 106.32L387.453 106.8C385.725 105.968 384.221 105.36 382.941 104.976C381.725 104.592 380.509 104.4 379.293 104.4C376.733 104.4 374.781 105.264 373.437 106.992C372.157 108.72 371.517 111.28 371.517 114.672C371.517 122.992 374.429 127.152 380.253 127.152C382.557 127.152 385.533 126.48 389.181 125.136L390.333 126L388.797 137.424C384.957 138.512 380.989 139.056 376.893 139.056C370.621 139.056 365.725 137.072 362.205 133.104C358.749 129.072 357.021 123.44 357.021 116.208C357.021 108.656 358.973 102.768 362.877 98.544C366.781 94.256 372.253 92.112 379.293 92.112ZM432.936 118.032L407.784 118.224C408.232 121.552 409.384 124.016 411.24 125.616C413.096 127.216 415.72 128.016 419.112 128.016C422.504 128.016 426.984 127.024 432.552 125.04L433.704 125.808L431.4 136.656C426.28 138.256 421.64 139.056 417.48 139.056C410.12 139.056 404.328 136.976 400.104 132.816C395.944 128.656 393.864 122.928 393.864 115.632C393.864 108.336 395.88 102.608 399.912 98.448C403.944 94.224 409.416 92.112 416.328 92.112C422.28 92.112 426.888 93.712 430.152 96.912C433.48 100.112 435.144 104.56 435.144 110.256C435.144 112.112 434.952 114.064 434.568 116.112L432.936 118.032ZM421.992 108.624C421.992 104.208 420.072 102 416.232 102C414.056 102 412.264 102.736 410.856 104.208C409.448 105.616 408.488 107.664 407.976 110.352L421.8 109.968L421.992 108.624ZM467.988 75.984C474.644 75.984 479.764 77.648 483.348 80.976C486.996 84.304 488.82 89.04 488.82 95.184C488.82 99.984 487.732 104.208 485.556 107.856C483.38 111.44 480.308 114.224 476.34 116.208C472.372 118.192 467.764 119.184 462.516 119.184H456.948L457.524 138H441.876L442.74 119.664L441.876 76.08L467.988 75.984ZM465.3 107.952C467.732 107.12 469.524 105.808 470.676 104.016C471.892 102.16 472.5 99.728 472.5 96.72C472.5 93.52 471.7 91.152 470.1 89.616C468.564 88.08 466.132 87.248 462.804 87.12L457.62 87.408L457.14 107.568L465.3 107.952ZM509.778 118.128L510.45 138H495.282L496.05 119.568L495.474 71.664L510.546 70.608L509.778 118.128ZM539.969 92.112C545.281 92.112 549.409 93.264 552.353 95.568C555.297 97.808 556.769 101.04 556.769 105.264C556.769 106.736 556.705 108.432 556.577 110.352C556.449 112.272 556.353 114.096 556.289 115.824C555.969 120.432 555.809 123.6 555.809 125.328C555.809 126.224 555.937 126.864 556.193 127.248C556.513 127.632 557.025 127.824 557.729 127.824C558.305 127.824 559.009 127.696 559.841 127.44L560.897 128.304L559.553 136.272C557.441 137.744 554.849 138.608 551.777 138.864C549.857 138.672 548.225 138 546.881 136.848C545.537 135.696 544.577 134.064 544.001 131.952H543.329C540.129 135.344 536.865 137.68 533.537 138.96C528.801 138.896 525.057 137.616 522.305 135.12C519.617 132.624 518.273 129.232 518.273 124.944C518.273 118.352 521.729 114.48 528.641 113.328L542.849 110.928V108.144C542.849 106.16 542.401 104.752 541.505 103.92C540.673 103.024 539.297 102.576 537.377 102.576C535.457 102.576 533.377 102.992 531.137 103.824C528.961 104.656 526.433 105.968 523.553 107.76L522.593 107.088L520.865 97.2C523.745 95.6 526.849 94.352 530.177 93.456C533.505 92.56 536.769 92.112 539.969 92.112ZM534.593 119.664C533.633 119.856 532.897 120.24 532.385 120.816C531.937 121.392 531.713 122.256 531.713 123.408C531.713 124.944 532.097 126.128 532.865 126.96C533.697 127.792 534.817 128.208 536.225 128.208C538.273 128.208 540.449 127.12 542.753 124.944L542.849 118.032L534.593 119.664ZM587.511 92.112C591.927 92.112 595.863 92.88 599.319 94.416L596.823 106.32L595.671 106.8C593.943 105.968 592.439 105.36 591.159 104.976C589.943 104.592 588.727 104.4 587.511 104.4C584.951 104.4 582.999 105.264 581.655 106.992C580.375 108.72 579.735 111.28 579.735 114.672C579.735 122.992 582.647 127.152 588.471 127.152C590.775 127.152 593.751 126.48 597.399 125.136L598.551 126L597.015 137.424C593.175 138.512 589.207 139.056 585.111 139.056C578.839 139.056 573.943 137.072 570.423 133.104C566.967 129.072 565.239 123.44 565.239 116.208C565.239 108.656 567.191 102.768 571.095 98.544C574.999 94.256 580.471 92.112 587.511 92.112ZM641.155 118.032L616.003 118.224C616.451 121.552 617.603 124.016 619.459 125.616C621.315 127.216 623.939 128.016 627.331 128.016C630.723 128.016 635.203 127.024 640.771 125.04L641.923 125.808L639.619 136.656C634.499 138.256 629.859 139.056 625.699 139.056C618.339 139.056 612.547 136.976 608.323 132.816C604.163 128.656 602.083 122.928 602.083 115.632C602.083 108.336 604.099 102.608 608.131 98.448C612.163 94.224 617.635 92.112 624.547 92.112C630.499 92.112 635.107 93.712 638.371 96.912C641.699 100.112 643.363 104.56 643.363 110.256C643.363 112.112 643.171 114.064 642.787 116.112L641.155 118.032ZM630.211 108.624C630.211 104.208 628.291 102 624.451 102C622.275 102 620.483 102.736 619.075 104.208C617.667 105.616 616.707 107.664 616.195 110.352L630.019 109.968L630.211 108.624Z" fill="#333333"/>
<path d="M292.72 113.52L291.646 111.833L289.95 112.912L291.038 114.602L292.72 113.52ZM307.12 134.352L309.108 134.573L309.196 133.777L308.711 133.14L307.12 134.352ZM306.928 136.08L307.553 137.98L308.774 137.578L308.916 136.301L306.928 136.08ZM291.472 139.056L290.211 140.608L290.824 141.107L291.613 141.051L291.472 139.056ZM289.936 137.808L288.173 138.752L288.363 139.107L288.675 139.36L289.936 137.808ZM279.952 118.128L281.76 117.273L281.218 116.128H279.952V118.128ZM271.792 118.128V116.128H269.733L269.793 118.186L271.792 118.128ZM272.368 138V140H274.427L274.367 137.942L272.368 138ZM256.72 138L254.722 137.906L254.624 140H256.72V138ZM257.584 119.664L259.582 119.758L259.585 119.691L259.584 119.624L257.584 119.664ZM256.72 76.08L256.713 74.08L254.68 74.0875L254.72 76.1196L256.72 76.08ZM282.832 75.984L282.832 73.984L282.825 73.984L282.832 75.984ZM298.288 80.88L296.941 82.3587L296.955 82.3712L296.969 82.3835L298.288 80.88ZM300.88 105.264L302.604 106.278L302.604 106.278L300.88 105.264ZM272.08 106.416L270.08 106.376L270.041 108.324L271.988 108.414L272.08 106.416ZM280.432 106.8L280.34 108.798L280.753 108.817L281.14 108.671L280.432 106.8ZM285.616 102.864L283.952 101.755L283.937 101.776L283.924 101.798L285.616 102.864ZM284.944 89.52L283.56 90.964L283.591 90.9934L283.623 91.0214L284.944 89.52ZM277.648 87.12L277.725 85.1215L277.631 85.1179L277.537 85.1231L277.648 87.12ZM272.464 87.408L272.353 85.4111L270.502 85.5139L270.464 87.3676L272.464 87.408ZM291.038 114.602C296.369 122.887 301.199 129.877 305.529 135.564L308.711 133.14C304.465 127.563 299.695 120.665 294.402 112.438L291.038 114.602ZM305.132 134.131L304.94 135.859L308.916 136.301L309.108 134.573L305.132 134.131ZM306.303 134.18C301.606 135.725 296.617 136.688 291.331 137.061L291.613 141.051C297.207 140.656 302.522 139.635 307.553 137.98L306.303 134.18ZM292.733 137.504L291.197 136.256L288.675 139.36L290.211 140.608L292.733 137.504ZM291.699 136.864C287.871 129.718 284.559 123.189 281.76 117.273L278.144 118.983C280.977 124.971 284.321 131.562 288.173 138.752L291.699 136.864ZM279.952 116.128H271.792V120.128H279.952V116.128ZM269.793 118.186L270.369 138.058L274.367 137.942L273.791 118.07L269.793 118.186ZM272.368 136H256.72V140H272.368V136ZM258.718 138.094L259.582 119.758L255.586 119.57L254.722 137.906L258.718 138.094ZM259.584 119.624L258.72 76.0404L254.72 76.1196L255.584 119.704L259.584 119.624ZM256.727 78.08L282.839 77.984L282.825 73.984L256.713 74.08L256.727 78.08ZM282.832 77.984C289.247 77.984 293.847 79.5408 296.941 82.3587L299.635 79.4013C295.561 75.6912 289.857 73.984 282.832 73.984V77.984ZM296.969 82.3835C300.083 85.1153 301.76 89.1145 301.76 94.704H305.76C305.76 88.2615 303.789 83.0447 299.607 79.3765L296.969 82.3835ZM301.76 94.704C301.76 98.1223 300.896 101.292 299.156 104.25L302.604 106.278C304.704 102.708 305.76 98.8377 305.76 94.704H301.76ZM299.156 104.25C297.412 107.214 294.927 109.745 291.646 111.833L293.794 115.207C297.553 112.815 300.508 109.842 302.604 106.278L299.156 104.25ZM271.988 108.414L280.34 108.798L280.524 104.802L272.172 104.418L271.988 108.414ZM281.14 108.671C283.815 107.658 285.938 106.107 287.308 103.93L283.924 101.798C283.118 103.077 281.785 104.15 279.724 104.929L281.14 108.671ZM287.28 103.973C288.712 101.826 289.344 99.1648 289.344 96.144H285.344C285.344 98.6272 284.824 100.446 283.952 101.755L287.28 103.973ZM289.344 96.144C289.344 92.8054 288.451 89.9423 286.265 88.0186L283.623 91.0214C284.637 91.9137 285.344 93.4666 285.344 96.144H289.344ZM286.328 88.076C284.286 86.1191 281.278 85.2581 277.725 85.1215L277.571 89.1185C280.674 89.2379 282.53 89.9769 283.56 90.964L286.328 88.076ZM277.537 85.1231L272.353 85.4111L272.575 89.4049L277.759 89.1169L277.537 85.1231ZM270.464 87.3676L270.08 106.376L274.08 106.456L274.464 87.4484L270.464 87.3676ZM344.134 95.568L342.901 97.143L342.912 97.1514L342.923 97.1597L344.134 95.568ZM348.358 110.352L346.362 110.219L346.362 110.219L348.358 110.352ZM348.07 115.824L350.065 115.963L350.067 115.93L350.069 115.898L348.07 115.824ZM347.974 127.248L346.31 128.357L346.369 128.446L346.438 128.528L347.974 127.248ZM351.622 127.44L352.888 125.892L352.059 125.213L351.034 125.528L351.622 127.44ZM352.678 128.304L354.65 128.637L354.843 127.491L353.944 126.756L352.678 128.304ZM351.334 136.272L352.478 137.913L353.166 137.433L353.306 136.605L351.334 136.272ZM343.558 138.864L343.359 140.854L343.541 140.872L343.724 140.857L343.558 138.864ZM338.662 136.848L337.36 138.367L337.36 138.367L338.662 136.848ZM335.782 131.952L337.712 131.426L337.31 129.952H335.782V131.952ZM335.11 131.952V129.952H334.247L333.655 130.58L335.11 131.952ZM325.318 138.96L325.291 140.96L325.676 140.965L326.036 140.827L325.318 138.96ZM314.086 135.12L312.725 136.586L312.734 136.594L312.742 136.601L314.086 135.12ZM320.422 113.328L320.751 115.301L320.755 115.3L320.422 113.328ZM334.63 110.928L334.963 112.9L336.63 112.618V110.928H334.63ZM333.286 103.92L331.82 105.281L331.871 105.335L331.925 105.386L333.286 103.92ZM322.918 103.824L322.222 101.949L322.213 101.952L322.204 101.956L322.918 103.824ZM315.334 107.76L314.187 109.398L315.269 110.156L316.391 109.458L315.334 107.76ZM314.374 107.088L312.404 107.432L312.547 108.25L313.227 108.726L314.374 107.088ZM312.646 97.2L311.675 95.4517L310.431 96.1427L310.676 97.5443L312.646 97.2ZM326.374 119.664L325.986 117.702L325.982 117.703L326.374 119.664ZM324.166 120.816L322.671 119.487L322.628 119.536L322.587 119.588L324.166 120.816ZM324.646 126.96L323.176 128.317L323.204 128.346L323.232 128.374L324.646 126.96ZM334.534 124.944L335.907 126.398L336.522 125.817L336.534 124.972L334.534 124.944ZM334.63 118.032L336.63 118.06L336.664 115.591L334.242 116.07L334.63 118.032ZM331.75 94.112C336.799 94.112 340.431 95.2094 342.901 97.143L345.367 93.993C341.949 91.3186 337.325 90.112 331.75 90.112V94.112ZM342.923 97.1597C345.295 98.9642 346.55 101.564 346.55 105.264H350.55C350.55 100.516 348.861 96.6517 345.345 93.9763L342.923 97.1597ZM346.55 105.264C346.55 106.681 346.488 108.331 346.362 110.219L350.354 110.485C350.484 108.533 350.55 106.791 350.55 105.264H346.55ZM346.362 110.219C346.233 112.156 346.136 114 346.071 115.75L350.069 115.898C350.132 114.192 350.227 112.388 350.354 110.485L346.362 110.219ZM346.075 115.685C345.755 120.288 345.59 123.521 345.59 125.328H349.59C349.59 123.679 349.745 120.576 350.065 115.963L346.075 115.685ZM345.59 125.328C345.59 126.307 345.71 127.457 346.31 128.357L349.638 126.139C349.702 126.234 349.68 126.25 349.647 126.088C349.617 125.935 349.59 125.689 349.59 125.328H345.59ZM346.438 128.528C347.274 129.532 348.465 129.824 349.51 129.824V125.824C349.424 125.824 349.365 125.818 349.33 125.812C349.295 125.807 349.287 125.803 349.3 125.807C349.314 125.813 349.347 125.827 349.388 125.856C349.431 125.885 349.473 125.923 349.51 125.968L346.438 128.528ZM349.51 129.824C350.359 129.824 351.275 129.639 352.21 129.352L351.034 125.528C350.305 125.753 349.813 125.824 349.51 125.824V129.824ZM350.356 128.988L351.412 129.852L353.944 126.756L352.888 125.892L350.356 128.988ZM350.706 127.971L349.362 135.939L353.306 136.605L354.65 128.637L350.706 127.971ZM350.19 134.631C348.42 135.865 346.182 136.638 343.392 136.871L343.724 140.857C347.078 140.578 350.024 139.623 352.478 137.913L350.19 134.631ZM343.757 136.874C342.206 136.719 340.969 136.191 339.964 135.329L337.36 138.367C339.043 139.809 341.07 140.625 343.359 140.854L343.757 136.874ZM339.964 135.329C338.989 134.494 338.207 133.244 337.712 131.426L333.852 132.478C334.509 134.884 335.647 136.898 337.36 138.367L339.964 135.329ZM335.782 129.952H335.11V133.952H335.782V129.952ZM333.655 130.58C330.6 133.818 327.576 135.949 324.6 137.093L326.036 140.827C329.716 139.411 333.22 136.87 336.565 133.324L333.655 130.58ZM325.345 136.96C320.958 136.901 317.73 135.725 315.43 133.639L312.742 136.601C315.946 139.507 320.206 140.891 325.291 140.96L325.345 136.96ZM315.447 133.654C313.236 131.601 312.054 128.778 312.054 124.944H308.054C308.054 129.686 309.56 133.647 312.725 136.586L315.447 133.654ZM312.054 124.944C312.054 122.002 312.818 119.907 314.138 118.428C315.471 116.934 317.587 115.828 320.751 115.301L320.093 111.355C316.345 111.98 313.277 113.386 311.154 115.764C309.018 118.157 308.054 121.294 308.054 124.944H312.054ZM320.755 115.3L334.963 112.9L334.297 108.956L320.089 111.356L320.755 115.3ZM336.63 110.928V108.144H332.63V110.928H336.63ZM336.63 108.144C336.63 105.939 336.144 103.845 334.647 102.454L331.925 105.386C332.22 105.659 332.63 106.381 332.63 108.144H336.63ZM334.752 102.559C333.372 101.073 331.323 100.576 329.158 100.576V104.576C330.833 104.576 331.536 104.975 331.82 105.281L334.752 102.559ZM329.158 100.576C326.95 100.576 324.632 101.054 322.222 101.949L323.614 105.699C325.684 104.93 327.526 104.576 329.158 104.576V100.576ZM322.204 101.956C319.868 102.849 317.222 104.23 314.277 106.062L316.391 109.458C319.206 107.706 321.616 106.463 323.632 105.692L322.204 101.956ZM316.481 106.122L315.521 105.45L313.227 108.726L314.187 109.398L316.481 106.122ZM316.344 106.744L314.616 96.8557L310.676 97.5443L312.404 107.432L316.344 106.744ZM313.617 98.9483C316.348 97.431 319.3 96.2428 322.478 95.3872L321.438 91.5248C317.96 92.4612 314.704 93.769 311.675 95.4517L313.617 98.9483ZM322.478 95.3872C325.649 94.5334 328.739 94.112 331.75 94.112V90.112C328.361 90.112 324.923 90.5866 321.438 91.5248L322.478 95.3872ZM325.982 117.703C324.712 117.957 323.542 118.507 322.671 119.487L325.661 122.145C325.814 121.973 326.116 121.755 326.766 121.625L325.982 117.703ZM322.587 119.588C321.748 120.667 321.494 122.052 321.494 123.408H325.494C325.494 122.46 325.688 122.117 325.745 122.044L322.587 119.588ZM321.494 123.408C321.494 125.265 321.961 127 323.176 128.317L326.116 125.603C325.795 125.256 325.494 124.623 325.494 123.408H321.494ZM323.232 128.374C324.511 129.654 326.179 130.208 328.006 130.208V126.208C327.017 126.208 326.445 125.93 326.06 125.546L323.232 128.374ZM328.006 130.208C330.783 130.208 333.429 128.739 335.907 126.398L333.161 123.49C331.031 125.501 329.325 126.208 328.006 126.208V130.208ZM336.534 124.972L336.63 118.06L332.63 118.004L332.534 124.916L336.534 124.972ZM334.242 116.07L325.986 117.702L326.762 121.626L335.018 119.994L334.242 116.07ZM391.101 94.416L393.058 94.8264L393.39 93.2447L391.913 92.5884L391.101 94.416ZM388.605 106.32L389.374 108.166L390.346 107.761L390.562 106.73L388.605 106.32ZM387.453 106.8L386.585 108.602L387.393 108.991L388.222 108.646L387.453 106.8ZM382.941 104.976L382.338 106.883L382.352 106.888L382.366 106.892L382.941 104.976ZM373.437 106.992L371.858 105.764L371.843 105.783L371.829 105.802L373.437 106.992ZM389.181 125.136L390.381 123.536L389.51 122.883L388.489 123.259L389.181 125.136ZM390.333 126L392.315 126.267L392.471 125.104L391.533 124.4L390.333 126ZM388.797 137.424L389.342 139.348L390.604 138.991L390.779 137.691L388.797 137.424ZM362.205 133.104L360.686 134.406L360.697 134.419L360.708 134.431L362.205 133.104ZM362.877 98.544L364.345 99.9015L364.35 99.896L364.355 99.8904L362.877 98.544ZM379.293 94.112C383.475 94.112 387.127 94.8387 390.288 96.2436L391.913 92.5884C388.162 90.9213 383.942 90.112 379.293 90.112V94.112ZM389.143 94.0056L386.647 105.91L390.562 106.73L393.058 94.8264L389.143 94.0056ZM387.835 104.474L386.683 104.954L388.222 108.646L389.374 108.166L387.835 104.474ZM388.32 104.998C386.535 104.138 384.929 103.484 383.515 103.06L382.366 106.892C383.512 107.236 384.914 107.798 386.585 108.602L388.32 104.998ZM383.543 103.069C382.141 102.626 380.723 102.4 379.293 102.4V106.4C380.294 106.4 381.308 106.558 382.338 106.883L383.543 103.069ZM379.293 102.4C376.233 102.4 373.648 103.463 371.858 105.764L375.015 108.22C375.913 107.065 377.232 106.4 379.293 106.4V102.4ZM371.829 105.802C370.185 108.022 369.517 111.082 369.517 114.672H373.517C373.517 111.478 374.128 109.418 375.044 108.182L371.829 105.802ZM369.517 114.672C369.517 119.004 370.264 122.61 372.062 125.179C373.952 127.878 376.799 129.152 380.253 129.152V125.152C377.882 125.152 376.361 124.346 375.339 122.885C374.225 121.294 373.517 118.66 373.517 114.672H369.517ZM380.253 129.152C382.9 129.152 386.133 128.39 389.872 127.013L388.489 123.259C384.932 124.57 382.213 125.152 380.253 125.152V129.152ZM387.981 126.736L389.132 127.6L391.533 124.4L390.381 123.536L387.981 126.736ZM388.35 125.733L386.814 137.157L390.779 137.691L392.315 126.267L388.35 125.733ZM388.251 135.5C384.593 136.536 380.809 137.056 376.893 137.056V141.056C381.168 141.056 385.32 140.488 389.342 139.348L388.251 135.5ZM376.893 137.056C371.078 137.056 366.771 135.238 363.701 131.777L360.708 134.431C364.678 138.906 370.163 141.056 376.893 141.056V137.056ZM363.723 131.802C360.674 128.246 359.021 123.136 359.021 116.208H355.021C355.021 123.744 356.823 129.898 360.686 134.406L363.723 131.802ZM359.021 116.208C359.021 108.998 360.879 103.652 364.345 99.9015L361.408 97.1865C357.066 101.884 355.021 108.314 355.021 116.208H359.021ZM364.355 99.8904C367.801 96.1063 372.685 94.112 379.293 94.112V90.112C371.82 90.112 365.76 92.4057 361.398 97.1976L364.355 99.8904ZM432.936 118.032L432.952 120.032L433.867 120.025L434.46 119.327L432.936 118.032ZM407.784 118.224L407.769 116.224L405.499 116.241L405.802 118.491L407.784 118.224ZM432.552 125.04L433.662 123.376L432.826 122.819L431.881 123.156L432.552 125.04ZM433.704 125.808L435.661 126.224L435.942 124.896L434.814 124.144L433.704 125.808ZM431.4 136.656L431.997 138.565L433.114 138.216L433.357 137.072L431.4 136.656ZM400.104 132.816L398.69 134.23L398.695 134.236L398.701 134.241L400.104 132.816ZM399.912 98.448L401.348 99.8399L401.354 99.8345L401.359 99.8289L399.912 98.448ZM430.152 96.912L428.752 98.3401L428.759 98.3469L428.766 98.3537L430.152 96.912ZM434.568 116.112L436.092 117.407L436.436 117.003L436.534 116.481L434.568 116.112ZM421.992 108.624L423.972 108.907L423.992 108.766V108.624H421.992ZM410.856 104.208L412.27 105.622L412.286 105.606L412.302 105.59L410.856 104.208ZM407.976 110.352L406.012 109.978L405.546 112.42L408.032 112.351L407.976 110.352ZM421.8 109.968L421.856 111.967L423.542 111.92L423.78 110.251L421.8 109.968ZM432.921 116.032L407.769 116.224L407.8 120.224L432.952 120.032L432.921 116.032ZM405.802 118.491C406.291 122.123 407.59 125.11 409.934 127.131L412.546 124.101C411.178 122.922 410.173 120.981 409.766 117.957L405.802 118.491ZM409.934 127.131C412.272 129.146 415.425 130.016 419.112 130.016V126.016C416.016 126.016 413.921 125.286 412.546 124.101L409.934 127.131ZM419.112 130.016C422.842 130.016 427.575 128.937 433.224 126.924L431.881 123.156C426.393 125.111 422.166 126.016 419.112 126.016V130.016ZM431.443 126.704L432.595 127.472L434.814 124.144L433.662 123.376L431.443 126.704ZM431.748 125.392L429.444 136.24L433.357 137.072L435.661 126.224L431.748 125.392ZM430.804 134.747C425.824 136.303 421.389 137.056 417.48 137.056V141.056C421.891 141.056 426.737 140.209 431.997 138.565L430.804 134.747ZM417.48 137.056C410.511 137.056 405.272 135.098 401.508 131.391L398.701 134.241C403.385 138.854 409.729 141.056 417.48 141.056V137.056ZM401.518 131.402C397.819 127.703 395.864 122.532 395.864 115.632H391.864C391.864 123.324 394.069 129.609 398.69 134.23L401.518 131.402ZM395.864 115.632C395.864 108.714 397.766 103.536 401.348 99.8399L398.476 97.0561C393.995 101.68 391.864 107.958 391.864 115.632H395.864ZM401.359 99.8289C404.945 96.0726 409.854 94.112 416.328 94.112V90.112C408.978 90.112 402.944 92.3754 398.466 97.067L401.359 99.8289ZM416.328 94.112C421.921 94.112 425.965 95.6075 428.752 98.3401L431.552 95.4839C427.812 91.8165 422.64 90.112 416.328 90.112V94.112ZM428.766 98.3537C431.614 101.092 433.144 104.968 433.144 110.256H437.144C437.144 104.152 435.347 99.1321 431.538 95.4703L428.766 98.3537ZM433.144 110.256C433.144 111.974 432.966 113.802 432.603 115.743L436.534 116.481C436.938 114.326 437.144 112.25 437.144 110.256H433.144ZM433.044 114.817L431.412 116.737L434.46 119.327L436.092 117.407L433.044 114.817ZM423.992 108.624C423.992 106.171 423.465 103.958 422.061 102.344C420.611 100.676 418.539 100 416.232 100V104C417.766 104 418.573 104.428 419.043 104.968C419.56 105.562 419.992 106.661 419.992 108.624H423.992ZM416.232 100C413.552 100 411.224 100.93 409.411 102.826L412.302 105.59C413.304 104.542 414.561 104 416.232 104V100ZM409.442 102.794C407.662 104.573 406.571 107.039 406.012 109.978L409.941 110.726C410.405 108.289 411.234 106.659 412.27 105.622L409.442 102.794ZM408.032 112.351L421.856 111.967L421.745 107.969L407.921 108.353L408.032 112.351ZM423.78 110.251L423.972 108.907L420.012 108.341L419.82 109.685L423.78 110.251ZM467.988 75.984L467.988 73.984L467.981 73.984L467.988 75.984ZM483.348 80.976L481.987 82.4416L481.994 82.4476L482 82.4535L483.348 80.976ZM485.556 107.856L487.266 108.894L487.27 108.887L487.274 108.881L485.556 107.856ZM456.948 119.184V117.184H454.886L454.949 119.245L456.948 119.184ZM457.524 138V140H459.586L459.523 137.939L457.524 138ZM441.876 138L439.878 137.906L439.78 140H441.876V138ZM442.74 119.664L444.738 119.758L444.741 119.691L444.74 119.624L442.74 119.664ZM441.876 76.08L441.869 74.08L439.836 74.0875L439.877 76.1196L441.876 76.08ZM465.3 107.952L465.206 109.95L465.587 109.968L465.948 109.844L465.3 107.952ZM470.676 104.016L469.003 102.92L468.999 102.927L468.994 102.934L470.676 104.016ZM470.1 89.616L468.686 91.0302L468.7 91.0446L468.715 91.0588L470.1 89.616ZM462.804 87.12L462.881 85.1215L462.787 85.1179L462.693 85.1231L462.804 87.12ZM457.62 87.408L457.509 85.4111L455.665 85.5136L455.621 87.3604L457.62 87.408ZM457.14 107.568L455.141 107.52L455.094 109.474L457.046 109.566L457.14 107.568ZM467.988 77.984C474.324 77.984 478.889 79.565 481.987 82.4416L484.709 79.5104C480.639 75.731 474.964 73.984 467.988 73.984V77.984ZM482 82.4535C485.135 85.3135 486.82 89.4548 486.82 95.184H490.82C490.82 88.6252 488.857 83.2945 484.696 79.4985L482 82.4535ZM486.82 95.184C486.82 99.6712 485.807 103.532 483.839 106.831L487.274 108.881C489.658 104.884 490.82 100.297 490.82 95.184H486.82ZM483.847 106.818C481.878 110.061 479.097 112.593 475.446 114.419L477.235 117.997C481.519 115.855 484.883 112.819 487.266 108.894L483.847 106.818ZM475.446 114.419C471.802 116.241 467.51 117.184 462.516 117.184V121.184C468.018 121.184 472.943 120.143 477.235 117.997L475.446 114.419ZM462.516 117.184H456.948V121.184H462.516V117.184ZM454.949 119.245L455.525 138.061L459.523 137.939L458.947 119.123L454.949 119.245ZM457.524 136H441.876V140H457.524V136ZM443.874 138.094L444.738 119.758L440.742 119.57L439.878 137.906L443.874 138.094ZM444.74 119.624L443.876 76.0404L439.877 76.1196L440.741 119.704L444.74 119.624ZM441.884 78.08L467.996 77.984L467.981 73.984L441.869 74.08L441.884 78.08ZM465.948 109.844C468.715 108.898 470.915 107.342 472.359 105.098L468.994 102.934C468.133 104.274 466.749 105.342 464.653 106.06L465.948 109.844ZM472.349 105.112C473.842 102.833 474.5 99.9827 474.5 96.72H470.5C470.5 99.4733 469.942 101.487 469.003 102.92L472.349 105.112ZM474.5 96.72C474.5 93.2189 473.625 90.227 471.485 88.1732L468.715 91.0588C469.776 92.077 470.5 93.8211 470.5 96.72H474.5ZM471.514 88.2018C469.473 86.1605 466.453 85.2588 462.881 85.1215L462.727 89.1185C465.812 89.2372 467.655 89.9995 468.686 91.0302L471.514 88.2018ZM462.693 85.1231L457.509 85.4111L457.731 89.4049L462.915 89.1169L462.693 85.1231ZM455.621 87.3604L455.141 107.52L459.14 107.616L459.62 87.4556L455.621 87.3604ZM457.046 109.566L465.206 109.95L465.394 105.954L457.234 105.57L457.046 109.566ZM509.778 118.128L507.779 118.096L507.778 118.146L507.779 118.196L509.778 118.128ZM510.45 138V140H512.519L512.449 137.932L510.45 138ZM495.282 138L493.284 137.917L493.197 140H495.282V138ZM496.05 119.568L498.049 119.651L498.051 119.598L498.05 119.544L496.05 119.568ZM495.474 71.664L495.334 69.6689L493.452 69.8008L493.474 71.688L495.474 71.664ZM510.546 70.608L512.546 70.6403L512.581 68.4605L510.406 68.6129L510.546 70.608ZM507.779 118.196L508.451 138.068L512.449 137.932L511.777 118.06L507.779 118.196ZM510.45 136H495.282V140H510.45V136ZM497.281 138.083L498.049 119.651L494.052 119.485L493.284 137.917L497.281 138.083ZM498.05 119.544L497.474 71.6399L493.474 71.688L494.05 119.592L498.05 119.544ZM495.614 73.6591L510.686 72.6031L510.406 68.6129L495.334 69.6689L495.614 73.6591ZM508.547 70.5757L507.779 118.096L511.778 118.16L512.546 70.6403L508.547 70.5757ZM552.353 95.568L551.12 97.143L551.131 97.1514L551.142 97.1597L552.353 95.568ZM556.577 110.352L554.581 110.219L554.581 110.219L556.577 110.352ZM556.289 115.824L558.284 115.963L558.286 115.93L558.287 115.898L556.289 115.824ZM556.193 127.248L554.529 128.357L554.588 128.446L554.656 128.528L556.193 127.248ZM559.841 127.44L561.107 125.892L560.277 125.213L559.253 125.528L559.841 127.44ZM560.897 128.304L562.869 128.637L563.062 127.491L562.163 126.756L560.897 128.304ZM559.553 136.272L560.696 137.913L561.385 137.433L561.525 136.605L559.553 136.272ZM551.777 138.864L551.578 140.854L551.76 140.872L551.943 140.857L551.777 138.864ZM546.881 136.848L545.579 138.367L545.579 138.367L546.881 136.848ZM544.001 131.952L545.93 131.426L545.528 129.952H544.001V131.952ZM543.329 131.952V129.952H542.466L541.874 130.58L543.329 131.952ZM533.537 138.96L533.51 140.96L533.895 140.965L534.255 140.827L533.537 138.96ZM522.305 135.12L520.944 136.586L520.952 136.594L520.961 136.601L522.305 135.12ZM528.641 113.328L528.97 115.301L528.974 115.3L528.641 113.328ZM542.849 110.928L543.182 112.9L544.849 112.618V110.928H542.849ZM541.505 103.92L540.039 105.281L540.09 105.335L540.144 105.386L541.505 103.92ZM531.137 103.824L530.44 101.949L530.431 101.952L530.422 101.956L531.137 103.824ZM523.553 107.76L522.406 109.398L523.488 110.156L524.609 109.458L523.553 107.76ZM522.593 107.088L520.623 107.432L520.766 108.25L521.446 108.726L522.593 107.088ZM520.865 97.2L519.893 95.4517L518.65 96.1427L518.895 97.5443L520.865 97.2ZM534.593 119.664L534.205 117.702L534.201 117.703L534.593 119.664ZM532.385 120.816L530.89 119.487L530.846 119.536L530.806 119.588L532.385 120.816ZM532.865 126.96L531.395 128.317L531.422 128.346L531.451 128.374L532.865 126.96ZM542.753 124.944L544.126 126.398L544.741 125.817L544.753 124.972L542.753 124.944ZM542.849 118.032L544.849 118.06L544.883 115.591L542.461 116.07L542.849 118.032ZM539.969 94.112C545.017 94.112 548.649 95.2094 551.12 97.143L553.585 93.993C550.168 91.3186 545.544 90.112 539.969 90.112V94.112ZM551.142 97.1597C553.513 98.9642 554.769 101.564 554.769 105.264H558.769C558.769 100.516 557.08 96.6517 553.564 93.9763L551.142 97.1597ZM554.769 105.264C554.769 106.681 554.707 108.331 554.581 110.219L558.572 110.485C558.702 108.533 558.769 106.791 558.769 105.264H554.769ZM554.581 110.219C554.452 112.156 554.355 114 554.29 115.75L558.287 115.898C558.351 114.192 558.445 112.388 558.572 110.485L554.581 110.219ZM554.294 115.685C553.974 120.288 553.809 123.521 553.809 125.328H557.809C557.809 123.679 557.964 120.576 558.284 115.963L554.294 115.685ZM553.809 125.328C553.809 126.307 553.928 127.457 554.529 128.357L557.857 126.139C557.921 126.234 557.898 126.25 557.866 126.088C557.835 125.935 557.809 125.689 557.809 125.328H553.809ZM554.656 128.528C555.493 129.532 556.684 129.824 557.729 129.824V125.824C557.643 125.824 557.584 125.818 557.549 125.812C557.514 125.807 557.506 125.803 557.519 125.807C557.533 125.813 557.565 125.827 557.607 125.856C557.65 125.885 557.692 125.923 557.729 125.968L554.656 128.528ZM557.729 129.824C558.578 129.824 559.493 129.639 560.429 129.352L559.253 125.528C558.524 125.753 558.031 125.824 557.729 125.824V129.824ZM558.574 128.988L559.63 129.852L562.163 126.756L561.107 125.892L558.574 128.988ZM558.925 127.971L557.581 135.939L561.525 136.605L562.869 128.637L558.925 127.971ZM558.409 134.631C556.639 135.865 554.401 136.638 551.611 136.871L551.943 140.857C555.297 140.578 558.243 139.623 560.696 137.913L558.409 134.631ZM551.976 136.874C550.424 136.719 549.188 136.191 548.182 135.329L545.579 138.367C547.262 139.809 549.289 140.625 551.578 140.854L551.976 136.874ZM548.182 135.329C547.207 134.494 546.426 133.244 545.93 131.426L542.071 132.478C542.727 134.884 543.866 136.898 545.579 138.367L548.182 135.329ZM544.001 129.952H543.329V133.952H544.001V129.952ZM541.874 130.58C538.819 133.818 535.795 135.949 532.819 137.093L534.255 140.827C537.934 139.411 541.439 136.87 544.784 133.324L541.874 130.58ZM533.564 136.96C529.177 136.901 525.949 135.725 523.648 133.639L520.961 136.601C524.165 139.507 528.424 140.891 533.51 140.96L533.564 136.96ZM523.666 133.654C521.455 131.601 520.273 128.778 520.273 124.944H516.273C516.273 129.686 517.779 133.647 520.944 136.586L523.666 133.654ZM520.273 124.944C520.273 122.002 521.037 119.907 522.357 118.428C523.69 116.934 525.806 115.828 528.97 115.301L528.312 111.355C524.563 111.98 521.495 113.386 519.373 115.764C517.237 118.157 516.273 121.294 516.273 124.944H520.273ZM528.974 115.3L543.182 112.9L542.516 108.956L528.308 111.356L528.974 115.3ZM544.849 110.928V108.144H540.849V110.928H544.849ZM544.849 108.144C544.849 105.939 544.363 103.845 542.866 102.454L540.144 105.386C540.439 105.659 540.849 106.381 540.849 108.144H544.849ZM542.97 102.559C541.59 101.073 539.542 100.576 537.377 100.576V104.576C539.052 104.576 539.755 104.975 540.039 105.281L542.97 102.559ZM537.377 100.576C535.169 100.576 532.851 101.054 530.44 101.949L531.833 105.699C533.903 104.93 535.745 104.576 537.377 104.576V100.576ZM530.422 101.956C528.087 102.849 525.44 104.23 522.496 106.062L524.609 109.458C527.425 107.706 529.835 106.463 531.851 105.692L530.422 101.956ZM524.7 106.122L523.74 105.45L521.446 108.726L522.406 109.398L524.7 106.122ZM524.563 106.744L522.835 96.8557L518.895 97.5443L520.623 107.432L524.563 106.744ZM521.836 98.9483C524.567 97.431 527.519 96.2428 530.697 95.3872L529.657 91.5248C526.179 92.4612 522.922 93.769 519.893 95.4517L521.836 98.9483ZM530.697 95.3872C533.868 94.5334 536.957 94.112 539.969 94.112V90.112C536.58 90.112 533.141 90.5866 529.657 91.5248L530.697 95.3872ZM534.201 117.703C532.931 117.957 531.761 118.507 530.89 119.487L533.88 122.145C534.033 121.973 534.335 121.755 534.985 121.625L534.201 117.703ZM530.806 119.588C529.967 120.667 529.713 122.052 529.713 123.408H533.713C533.713 122.46 533.906 122.117 533.963 122.044L530.806 119.588ZM529.713 123.408C529.713 125.265 530.18 127 531.395 128.317L534.334 125.603C534.013 125.256 533.713 124.623 533.713 123.408H529.713ZM531.451 128.374C532.73 129.654 534.398 130.208 536.225 130.208V126.208C535.235 126.208 534.664 125.93 534.279 125.546L531.451 128.374ZM536.225 130.208C539.002 130.208 541.647 128.739 544.126 126.398L541.38 123.49C539.25 125.501 537.544 126.208 536.225 126.208V130.208ZM544.753 124.972L544.849 118.06L540.849 118.004L540.753 124.916L544.753 124.972ZM542.461 116.07L534.205 117.702L534.981 121.626L543.237 119.994L542.461 116.07ZM599.319 94.416L601.277 94.8264L601.608 93.2447L600.132 92.5884L599.319 94.416ZM596.823 106.32L597.592 108.166L598.565 107.761L598.781 106.73L596.823 106.32ZM595.671 106.8L594.804 108.602L595.612 108.991L596.44 108.646L595.671 106.8ZM591.159 104.976L590.557 106.883L590.571 106.888L590.585 106.892L591.159 104.976ZM581.655 106.992L580.077 105.764L580.062 105.783L580.048 105.802L581.655 106.992ZM597.399 125.136L598.599 123.536L597.729 122.883L596.708 123.259L597.399 125.136ZM598.551 126L600.533 126.267L600.69 125.104L599.751 124.4L598.551 126ZM597.015 137.424L597.56 139.348L598.823 138.991L598.997 137.691L597.015 137.424ZM570.423 133.104L568.905 134.406L568.916 134.419L568.927 134.431L570.423 133.104ZM571.095 98.544L572.564 99.9015L572.569 99.896L572.574 99.8904L571.095 98.544ZM587.511 94.112C591.694 94.112 595.346 94.8387 598.507 96.2436L600.132 92.5884C596.381 90.9213 592.161 90.112 587.511 90.112V94.112ZM597.362 94.0056L594.866 105.91L598.781 106.73L601.277 94.8264L597.362 94.0056ZM596.054 104.474L594.902 104.954L596.44 108.646L597.592 108.166L596.054 104.474ZM596.539 104.998C594.753 104.138 593.147 103.484 591.734 103.06L590.585 106.892C591.731 107.236 593.133 107.798 594.804 108.602L596.539 104.998ZM591.762 103.069C590.36 102.626 588.941 102.4 587.511 102.4V106.4C588.513 106.4 589.526 106.558 590.557 106.883L591.762 103.069ZM587.511 102.4C584.452 102.4 581.866 103.463 580.077 105.764L583.234 108.22C584.132 107.065 585.451 106.4 587.511 106.4V102.4ZM580.048 105.802C578.404 108.022 577.735 111.082 577.735 114.672H581.735C581.735 111.478 582.347 109.418 583.262 108.182L580.048 105.802ZM577.735 114.672C577.735 119.004 578.482 122.61 580.281 125.179C582.17 127.878 585.017 129.152 588.471 129.152V125.152C586.101 125.152 584.58 124.346 583.558 122.885C582.444 121.294 581.735 118.66 581.735 114.672H577.735ZM588.471 129.152C591.119 129.152 594.352 128.39 598.091 127.013L596.708 123.259C593.151 124.57 590.432 125.152 588.471 125.152V129.152ZM596.199 126.736L597.351 127.6L599.751 124.4L598.599 123.536L596.199 126.736ZM596.569 125.733L595.033 137.157L598.997 137.691L600.533 126.267L596.569 125.733ZM596.47 135.5C592.812 136.536 589.028 137.056 585.111 137.056V141.056C589.387 141.056 593.538 140.488 597.56 139.348L596.47 135.5ZM585.111 137.056C579.297 137.056 574.99 135.238 571.919 131.777L568.927 134.431C572.897 138.906 578.382 141.056 585.111 141.056V137.056ZM571.942 131.802C568.893 128.246 567.239 123.136 567.239 116.208H563.239C563.239 123.744 565.041 129.898 568.905 134.406L571.942 131.802ZM567.239 116.208C567.239 108.998 569.097 103.652 572.564 99.9015L569.626 97.1865C565.285 101.884 563.239 108.314 563.239 116.208H567.239ZM572.574 99.8904C576.019 96.1063 580.904 94.112 587.511 94.112V90.112C580.039 90.112 573.979 92.4057 569.616 97.1976L572.574 99.8904ZM641.155 118.032L641.17 120.032L642.086 120.025L642.679 119.327L641.155 118.032ZM616.003 118.224L615.988 116.224L613.718 116.241L614.021 118.491L616.003 118.224ZM640.771 125.04L641.88 123.376L641.045 122.819L640.1 123.156L640.771 125.04ZM641.923 125.808L643.879 126.224L644.161 124.896L643.032 124.144L641.923 125.808ZM639.619 136.656L640.216 138.565L641.332 138.216L641.575 137.072L639.619 136.656ZM608.323 132.816L606.909 134.23L606.914 134.236L606.92 134.241L608.323 132.816ZM608.131 98.448L609.567 99.8399L609.572 99.8345L609.578 99.8289L608.131 98.448ZM638.371 96.912L636.971 98.3401L636.978 98.3469L636.985 98.3537L638.371 96.912ZM642.787 116.112L644.311 117.407L644.655 117.003L644.753 116.481L642.787 116.112ZM630.211 108.624L632.191 108.907L632.211 108.766V108.624H630.211ZM619.075 104.208L620.489 105.622L620.505 105.606L620.52 105.59L619.075 104.208ZM616.195 110.352L614.23 109.978L613.765 112.42L616.251 112.351L616.195 110.352ZM630.019 109.968L630.075 111.967L631.76 111.92L631.999 110.251L630.019 109.968ZM641.14 116.032L615.988 116.224L616.018 120.224L641.17 120.032L641.14 116.032ZM614.021 118.491C614.51 122.123 615.809 125.11 618.153 127.131L620.765 124.101C619.397 122.922 618.392 120.981 617.985 117.957L614.021 118.491ZM618.153 127.131C620.491 129.146 623.643 130.016 627.331 130.016V126.016C624.235 126.016 622.139 125.286 620.765 124.101L618.153 127.131ZM627.331 130.016C631.061 130.016 635.794 128.937 641.442 126.924L640.1 123.156C634.612 125.111 630.385 126.016 627.331 126.016V130.016ZM639.662 126.704L640.814 127.472L643.032 124.144L641.88 123.376L639.662 126.704ZM639.967 125.392L637.663 136.24L641.575 137.072L643.879 126.224L639.967 125.392ZM639.022 134.747C634.043 136.303 629.608 137.056 625.699 137.056V141.056C630.11 141.056 634.955 140.209 640.216 138.565L639.022 134.747ZM625.699 137.056C618.73 137.056 613.491 135.098 609.726 131.391L606.92 134.241C611.603 138.854 617.948 141.056 625.699 141.056V137.056ZM609.737 131.402C606.038 127.703 604.083 122.532 604.083 115.632H600.083C600.083 123.324 602.288 129.609 606.909 134.23L609.737 131.402ZM604.083 115.632C604.083 108.714 605.984 103.536 609.567 99.8399L606.695 97.0561C602.214 101.68 600.083 107.958 600.083 115.632H604.083ZM609.578 99.8289C613.163 96.0726 618.073 94.112 624.547 94.112V90.112C617.197 90.112 611.163 92.3754 606.684 97.067L609.578 99.8289ZM624.547 94.112C630.14 94.112 634.184 95.6075 636.971 98.3401L639.771 95.4839C636.03 91.8165 630.858 90.112 624.547 90.112V94.112ZM636.985 98.3537C639.833 101.092 641.363 104.968 641.363 110.256H645.363C645.363 104.152 643.565 99.1321 639.757 95.4703L636.985 98.3537ZM641.363 110.256C641.363 111.974 641.185 113.802 640.821 115.743L644.753 116.481C645.157 114.326 645.363 112.25 645.363 110.256H641.363ZM641.263 114.817L639.631 116.737L642.679 119.327L644.311 117.407L641.263 114.817ZM632.211 108.624C632.211 106.171 631.684 103.958 630.28 102.344C628.83 100.676 626.758 100 624.451 100V104C625.984 104 626.792 104.428 627.262 104.968C627.778 105.562 628.211 106.661 628.211 108.624H632.211ZM624.451 100C621.771 100 619.443 100.93 617.63 102.826L620.52 105.59C621.523 104.542 622.779 104 624.451 104V100ZM617.661 102.794C615.881 104.573 614.79 107.039 614.23 109.978L618.16 110.726C618.624 108.289 619.453 106.659 620.489 105.622L617.661 102.794ZM616.251 112.351L630.075 111.967L629.963 107.969L616.139 108.353L616.251 112.351ZM631.999 110.251L632.191 108.907L628.231 108.341L628.039 109.685L631.999 110.251Z" fill="#333333"/>
<path d="M275.874 207H271.794L271.454 200.37L270.672 191.938H270.332L265.436 204.688H261.866L257.412 191.938H257.106L256.256 199.928L255.78 207H251.904L254.114 185.104H259.418L260.302 188.334L263.77 198.704H264.076L267.714 188.334L268.7 185.104H273.902L275.874 207ZM294.597 199.656L285.417 199.724C285.621 202.557 287.061 203.974 289.735 203.974C291.141 203.974 292.705 203.577 294.427 202.784L294.801 203.022L294.121 206.388C292.399 207.023 290.778 207.34 289.259 207.34C286.766 207.34 284.805 206.615 283.377 205.164C281.972 203.713 281.269 201.707 281.269 199.146C281.269 196.607 281.961 194.601 283.343 193.128C284.726 191.632 286.596 190.884 288.953 190.884C290.971 190.884 292.523 191.439 293.611 192.55C294.722 193.638 295.277 195.168 295.277 197.14C295.277 197.661 295.221 198.319 295.107 199.112L294.597 199.656ZM291.333 196.63C291.333 195.723 291.129 195.043 290.721 194.59C290.313 194.114 289.713 193.876 288.919 193.876C288.035 193.876 287.299 194.171 286.709 194.76C286.12 195.327 285.723 196.154 285.519 197.242L291.265 197.106L291.333 196.63ZM307.983 190.884C308.731 190.884 309.468 190.963 310.193 191.122C310.941 191.258 311.599 191.462 312.165 191.734L311.417 195.338L311.043 195.508C309.887 194.873 308.856 194.556 307.949 194.556C306.907 194.556 306.102 194.93 305.535 195.678C304.969 196.426 304.685 197.491 304.685 198.874C304.685 200.461 304.991 201.673 305.603 202.512C306.215 203.351 307.088 203.77 308.221 203.77C309.241 203.77 310.375 203.487 311.621 202.92L311.961 203.192L311.519 206.694C310.159 207.125 308.765 207.34 307.337 207.34C305.161 207.34 303.461 206.637 302.237 205.232C301.013 203.804 300.401 201.821 300.401 199.282C300.401 196.653 301.07 194.601 302.407 193.128C303.745 191.632 305.603 190.884 307.983 190.884ZM329.619 191.496L329.347 194.42L326.219 194.318H325.063L324.927 200.03L325.131 207H320.643L320.847 200.472L320.745 194.318H319.521L316.393 194.42L316.155 194.114L316.359 191.19H329.347L329.619 191.496ZM341 190.884C343.312 190.884 345.08 191.564 346.304 192.924C347.528 194.284 348.14 196.245 348.14 198.806C348.14 201.571 347.483 203.691 346.168 205.164C344.854 206.615 342.961 207.34 340.49 207.34C338.178 207.34 336.41 206.66 335.186 205.3C333.962 203.94 333.35 201.979 333.35 199.418C333.35 196.653 334.008 194.545 335.322 193.094C336.637 191.621 338.53 190.884 341 190.884ZM340.694 193.944C339.606 193.944 338.813 194.307 338.314 195.032C337.838 195.757 337.6 196.925 337.6 198.534C337.6 200.619 337.85 202.104 338.348 202.988C338.847 203.872 339.663 204.314 340.796 204.314C341.884 204.314 342.666 203.963 343.142 203.26C343.641 202.535 343.89 201.356 343.89 199.724C343.89 197.661 343.63 196.188 343.108 195.304C342.61 194.397 341.805 193.944 340.694 193.944ZM355.826 202.512C356.846 203.328 357.356 204.303 357.356 205.436C357.356 207.408 355.985 209.369 353.242 211.318L351.78 210.026L351.746 209.686C352.993 208.643 353.616 207.533 353.616 206.354C353.616 205.583 353.253 204.903 352.528 204.314L352.562 203.94C353.605 203.305 354.693 202.829 355.826 202.512ZM382.58 191.496L382.308 194.42L378.738 194.318H376.63L376.494 200.03L376.698 207H372.176L372.414 200.472L372.244 191.19H382.342L382.58 191.496ZM400.993 203.77V210.91L398.103 211.148L397.559 207H387.291L386.781 210.91L383.891 211.148V203.77H385.081C385.761 203.362 386.293 202.841 386.679 202.206C387.064 201.549 387.37 200.631 387.597 199.452C387.846 198.273 388.095 196.562 388.345 194.318L388.685 191.224H399.089L398.885 200.03L398.987 203.77H400.993ZM394.873 200.472L394.771 194.148H391.847L391.745 195.032C391.473 197.548 391.144 199.463 390.759 200.778C390.373 202.093 389.841 203.09 389.161 203.77H394.771L394.873 200.472ZM419.251 199.656L410.071 199.724C410.275 202.557 411.715 203.974 414.389 203.974C415.795 203.974 417.359 203.577 419.081 202.784L419.455 203.022L418.775 206.388C417.053 207.023 415.432 207.34 413.913 207.34C411.42 207.34 409.459 206.615 408.031 205.164C406.626 203.713 405.923 201.707 405.923 199.146C405.923 196.607 406.615 194.601 407.997 193.128C409.38 191.632 411.25 190.884 413.607 190.884C415.625 190.884 417.177 191.439 418.265 192.55C419.376 193.638 419.931 195.168 419.931 197.14C419.931 197.661 419.875 198.319 419.761 199.112L419.251 199.656ZM415.987 196.63C415.987 195.723 415.783 195.043 415.375 194.59C414.967 194.114 414.367 193.876 413.573 193.876C412.689 193.876 411.953 194.171 411.363 194.76C410.774 195.327 410.377 196.154 410.173 197.242L415.919 197.106L415.987 196.63ZM450.806 198.33C452.302 200.687 454.115 203.328 456.246 206.252L456.212 206.728C455.396 206.909 454.546 207.045 453.662 207.136C452.778 207.249 452.245 207.317 452.064 207.34L451.588 207.136C449.593 204.257 447.916 201.515 446.556 198.908L446.522 200.03L446.692 207H442.204L442.408 200.472L442.374 198.806C440.968 201.503 439.28 204.28 437.308 207.136L436.798 207.34C436.594 207.317 436.05 207.249 435.166 207.136C434.282 207.045 433.454 206.909 432.684 206.728L432.65 206.252C434.78 203.328 436.594 200.687 438.09 198.33L432.99 191.19H437.682L438.464 192.822L442.374 198.364L442.238 191.19H446.692L446.556 198.296L450.398 192.822L451.214 191.19H455.906L450.806 198.33ZM462.023 200.472L461.785 191.292L466.273 191.088L466.103 200.88H466.375L471.611 191.19H476.099L475.861 199.928L476.099 207H471.611L471.815 200.778V197.038H471.577L466.171 207H461.785L462.023 200.472ZM493.54 198.84C495.625 199.361 496.668 200.574 496.668 202.478C496.668 204.087 496.022 205.266 494.73 206.014C493.438 206.762 491.522 207.136 488.984 207.136C487.782 207.136 485.89 207.091 483.306 207L483.544 200.472L483.374 191.19H490.446C492.259 191.19 493.653 191.53 494.628 192.21C495.602 192.89 496.09 193.876 496.09 195.168C496.09 195.961 495.863 196.687 495.41 197.344C494.979 197.979 494.356 198.477 493.54 198.84ZM488.746 193.842C488.247 193.842 487.85 193.853 487.556 193.876L487.488 197.82L490.072 197.922C491.341 197.582 491.976 196.857 491.976 195.746C491.976 195.066 491.726 194.579 491.228 194.284C490.752 193.989 489.924 193.842 488.746 193.842ZM489.562 204.518C490.514 204.518 491.25 204.337 491.772 203.974C492.293 203.589 492.554 203.033 492.554 202.308C492.554 201.787 492.395 201.379 492.078 201.084C491.76 200.767 491.25 200.54 490.548 200.404L487.42 200.438L487.522 204.382C488.179 204.473 488.859 204.518 489.562 204.518ZM505.654 193.604L508.476 202.444H508.748L511.57 193.978L512.148 191.19H516.024L510.856 205.946C510.312 207.487 509.7 208.723 509.02 209.652C508.34 210.604 507.49 211.375 506.47 211.964C505.45 212.576 504.135 213.097 502.526 213.528L502.186 213.494C501.415 212.746 500.781 211.862 500.282 210.842L500.418 210.4C501.846 210.151 503.025 209.777 503.954 209.278C504.883 208.802 505.767 208.043 506.606 207L500.826 191.292L505.11 191.088L505.654 193.604ZM532.587 191.496L532.315 194.42L529.187 194.318H528.031L527.895 200.03L528.099 207H523.611L523.815 200.472L523.713 194.318H522.489L519.361 194.42L519.123 194.114L519.327 191.19H532.315L532.587 191.496ZM556.319 191.496L556.047 194.42L552.477 194.318H550.369L550.233 200.03L550.437 207H545.915L546.153 200.472L545.983 191.19H556.081L556.319 191.496ZM567.221 190.884C569.533 190.884 571.301 191.564 572.525 192.924C573.749 194.284 574.361 196.245 574.361 198.806C574.361 201.571 573.704 203.691 572.389 205.164C571.074 206.615 569.182 207.34 566.711 207.34C564.399 207.34 562.631 206.66 561.407 205.3C560.183 203.94 559.571 201.979 559.571 199.418C559.571 196.653 560.228 194.545 561.543 193.094C562.858 191.621 564.75 190.884 567.221 190.884ZM566.915 193.944C565.827 193.944 565.034 194.307 564.535 195.032C564.059 195.757 563.821 196.925 563.821 198.534C563.821 200.619 564.07 202.104 564.569 202.988C565.068 203.872 565.884 204.314 567.017 204.314C568.105 204.314 568.887 203.963 569.363 203.26C569.862 202.535 570.111 201.356 570.111 199.724C570.111 197.661 569.85 196.188 569.329 195.304C568.83 194.397 568.026 193.944 566.915 193.944ZM594.535 200.03L594.705 207H590.217L590.421 200.812L587.463 200.778L584.709 200.846L584.879 207H580.357L580.595 200.472L580.425 191.19H584.879L584.743 197.446L587.667 197.48H590.387L590.285 191.19H594.705L594.535 200.03ZM602.148 200.472L602.012 191.496L606.466 191.122L606.296 200.03L606.432 207H601.944L602.148 200.472ZM610.818 198.33C612.087 200.325 613.934 202.965 616.36 206.252V206.728C615.566 206.909 614.716 207.045 613.81 207.136C612.926 207.249 612.382 207.317 612.178 207.34L611.702 207.136C609.662 204.235 607.928 201.435 606.5 198.738V198.432L610.512 192.822L611.328 191.19H616.02L610.818 198.33ZM622.143 200.472L621.905 191.292L626.393 191.088L626.223 200.88H626.495L631.731 191.19H636.219L635.981 199.928L636.219 207H631.731L631.935 200.778V197.038H631.697L626.291 207H621.905L622.143 200.472ZM645.427 202.41C646.13 202.41 646.674 202.614 647.059 203.022C647.467 203.43 647.671 203.997 647.671 204.722C647.671 205.493 647.456 206.105 647.025 206.558C646.594 207.011 646.005 207.238 645.257 207.238C644.509 207.238 643.931 207.034 643.523 206.626C643.138 206.218 642.945 205.64 642.945 204.892C642.945 204.144 643.16 203.543 643.591 203.09C644.044 202.637 644.656 202.41 645.427 202.41Z" fill="#333333"/>
<path d="M267.532 25.04C270.671 29.4107 274.293 33.9867 278.4 38.768L278.312 39.428C276.669 39.8387 274.733 40.176 272.504 40.44L271.8 40.088C267.957 34.984 264.54 30.0853 261.548 25.392L261.46 31.024L261.68 40H255.74L256.048 31.552L255.74 11.664H261.768L261.548 24.82L269.512 14.392L271.14 11.664H277.564L267.532 25.04ZM298.399 19.144C300.657 19.144 302.417 19.6573 303.679 20.684C304.969 21.6813 305.615 23.0893 305.615 24.908C305.615 25.436 305.527 27.108 305.351 29.924C305.321 30.7453 305.277 31.596 305.219 32.476C305.16 33.3267 305.131 34.06 305.131 34.676C305.131 35.1747 305.204 35.5267 305.351 35.732C305.497 35.908 305.761 35.996 306.143 35.996C306.436 35.996 306.817 35.9373 307.287 35.82L307.727 36.172L307.199 39.252C306.26 39.868 305.189 40.2347 303.987 40.352C303.107 40.264 302.373 39.956 301.787 39.428C301.2 38.8707 300.804 38.108 300.599 37.14H300.291C298.824 38.6947 297.313 39.78 295.759 40.396C293.647 40.3667 291.989 39.8093 290.787 38.724C289.584 37.6387 288.983 36.1573 288.983 34.28C288.983 32.8133 289.349 31.6693 290.083 30.848C290.845 29.9973 291.989 29.4253 293.515 29.132L300.247 27.856V26.052C300.247 24.1453 299.308 23.192 297.431 23.192C296.521 23.192 295.553 23.3973 294.527 23.808C293.529 24.2187 292.4 24.864 291.139 25.744L290.699 25.48L290.039 21.608C291.3 20.816 292.649 20.2147 294.087 19.804C295.524 19.364 296.961 19.144 298.399 19.144ZM295.539 31.816C295.069 31.9333 294.717 32.1387 294.483 32.432C294.277 32.696 294.175 33.1067 294.175 33.664C294.175 34.4267 294.38 35.028 294.791 35.468C295.201 35.8787 295.773 36.084 296.507 36.084C297.651 36.084 298.853 35.4093 300.115 34.06L300.203 30.804L295.539 31.816ZM331.515 19.276C334.067 19.276 336.032 20.1413 337.411 21.872C338.789 23.6027 339.479 26.052 339.479 29.22C339.479 32.7987 338.584 35.5707 336.795 37.536C335.035 39.472 332.541 40.44 329.315 40.44C328.376 40.44 327.393 40.352 326.367 40.176L326.499 48.14H320.691L320.999 31.552L320.735 19.936L326.323 19.452L326.279 22.444H326.587C327.408 21.652 328.2 21.0213 328.963 20.552C329.725 20.0533 330.576 19.628 331.515 19.276ZM329.359 36.612C330.884 36.612 332.043 36.0693 332.835 34.984C333.627 33.8987 334.023 32.3 334.023 30.188C334.023 28.1347 333.685 26.5947 333.011 25.568C332.365 24.512 331.397 23.984 330.107 23.984C328.845 23.984 327.569 24.6147 326.279 25.876L326.235 30.98L326.323 35.952C327.379 36.392 328.391 36.612 329.359 36.612ZM367.095 19.936L366.743 23.72L362.695 23.588H361.199L361.023 30.98L361.287 40H355.479L355.743 31.552L355.611 23.588H354.027L349.979 23.72L349.671 23.324L349.935 19.54H366.743L367.095 19.936ZM379.311 31.552L379.003 19.672L384.811 19.408L384.591 32.08H384.943L391.719 19.54H397.527L397.219 30.848L397.527 40H391.719L391.983 31.948V27.108H391.675L384.679 40H379.003L379.311 31.552ZM430.481 30.98L430.701 40H424.893L425.157 31.992L421.329 31.948L417.765 32.036L417.985 40H412.133L412.441 31.552L412.221 19.54H417.985L417.809 27.636L421.593 27.68H425.113L424.981 19.54H430.701L430.481 30.98ZM458.857 19.936L458.505 23.72L453.885 23.588H451.157L450.981 30.98L451.245 40H445.393L445.701 31.552L445.481 19.54H458.549L458.857 19.936ZM479.386 26.448V30.056L468.914 31.684L468.43 31.2V27.548L478.902 25.964L479.386 26.448ZM518.126 35.116V45.588L513.77 45.984L512.934 40H492.254L492.562 31.552L492.254 11.664H498.282L497.974 31.024L498.062 35.116H508.402L508.534 31.552L508.226 11.664H514.254L513.946 31.024L514.078 35.116H518.126ZM546.91 30.496L535.03 30.584C535.294 34.2507 537.157 36.084 540.618 36.084C542.437 36.084 544.461 35.5707 546.69 34.544L547.174 34.852L546.294 39.208C544.065 40.0293 541.968 40.44 540.002 40.44C536.776 40.44 534.238 39.5013 532.39 37.624C530.572 35.7467 529.662 33.1507 529.662 29.836C529.662 26.5507 530.557 23.9547 532.346 22.048C534.136 20.112 536.556 19.144 539.606 19.144C542.217 19.144 544.226 19.8627 545.634 21.3C547.072 22.708 547.79 24.688 547.79 27.24C547.79 27.9147 547.717 28.7653 547.57 29.792L546.91 30.496ZM542.686 26.58C542.686 25.4067 542.422 24.5267 541.894 23.94C541.366 23.324 540.589 23.016 539.562 23.016C538.418 23.016 537.465 23.3973 536.702 24.16C535.94 24.8933 535.426 25.964 535.162 27.372L542.598 27.196L542.686 26.58ZM579.677 30.98L579.897 40H574.089L574.353 31.992L570.525 31.948L566.961 32.036L567.181 40H561.329L561.637 31.552L561.417 19.54H567.181L567.005 27.636L570.789 27.68H574.309L574.177 19.54H579.897L579.677 30.98ZM609.066 19.936L608.714 23.72L604.666 23.588H603.17L602.994 30.98L603.258 40H597.45L597.714 31.552L597.582 23.588H595.998L591.95 23.72L591.642 23.324L591.906 19.54H608.714L609.066 19.936ZM631.797 19.276C634.349 19.276 636.315 20.1413 637.693 21.872C639.072 23.6027 639.761 26.052 639.761 29.22C639.761 32.7987 638.867 35.5707 637.077 37.536C635.317 39.472 632.824 40.44 629.597 40.44C628.659 40.44 627.676 40.352 626.649 40.176L626.781 48.14H620.973L621.281 31.552L621.017 19.936L626.605 19.452L626.561 22.444H626.869C627.691 21.652 628.483 21.0213 629.245 20.552C630.008 20.0533 630.859 19.628 631.797 19.276ZM629.641 36.612C631.167 36.612 632.325 36.0693 633.117 34.984C633.909 33.8987 634.305 32.3 634.305 30.188C634.305 28.1347 633.968 26.5947 633.293 25.568C632.648 24.512 631.68 23.984 630.389 23.984C629.128 23.984 627.852 24.6147 626.561 25.876L626.517 30.98L626.605 35.952C627.661 36.392 628.673 36.612 629.641 36.612Z" fill="#333333"/>
<path d="M217.64 108.5C212.342 173.769 117.405 217.211 109.14 216.999C100.875 216.787 4.45487 174.405 0.640433 108.5C-3.17401 42.5946 49.2174 0 109.14 0C169.063 0 222.937 43.2303 217.64 108.5Z" fill="#333333"/>
<path d="M61.9362 147.463L61.1497 120.33H71.0518C74.9929 128.63 79.6266 137.751 84.952 147.692L85.0469 147.869L85.2029 147.996L87.3797 149.764L87.6864 150.014L88.0807 149.986C95.8671 149.436 103.25 148.016 110.227 145.721L110.837 145.52L110.908 144.881L111.18 142.432L111.224 142.035L110.982 141.716C105.07 133.952 98.4627 124.413 91.1579 113.093C95.8623 109.944 99.5522 106.116 102.205 101.606C105.016 96.8274 106.424 91.664 106.424 86.1339C106.424 77.3988 103.768 70.5662 98.3362 65.7974C93.0125 60.9529 85.4376 58.6045 75.7659 58.6045L75.7622 58.6045L38.7571 58.7405L37.7408 58.7443L37.7609 59.7604L38.9847 121.493L37.7619 147.445L37.7125 148.492H38.7607H60.9366H61.966L61.9362 147.463ZM78.8792 97.1433L78.872 97.1542L78.8651 97.1652C77.4926 99.3451 75.3025 101.059 72.2016 102.267L61.548 101.778L62.0537 76.7413L68.4275 76.3872C73.006 76.5699 76.1498 77.6719 78.0671 79.5093L78.0824 79.524L78.0983 79.538C80.0728 81.2756 81.1602 84.0771 81.1602 88.1746C81.1602 91.9403 80.3719 94.9043 78.8792 97.1433ZM158.405 58.6045L158.401 58.6045L121.396 58.7405L120.38 58.7443L120.4 59.7604L121.623 121.493L120.401 147.445L120.351 148.492H121.399H143.575H144.606L144.575 147.461L143.79 121.826H150.65C158.214 121.826 164.903 120.396 170.688 117.503C176.47 114.612 180.969 110.541 184.156 105.292L184.16 105.285C187.348 99.9407 188.927 93.773 188.927 86.8142C188.927 77.9018 186.274 70.894 180.85 65.9438C175.528 61.0034 167.996 58.6045 158.405 58.6045ZM161.377 98.7826L161.373 98.7899C159.913 101.061 157.635 102.777 154.45 103.901L144.054 103.411L144.689 76.7415L151.066 76.3872C155.636 76.5698 158.773 77.7128 160.691 79.6305L160.698 79.6377L160.705 79.6447C162.703 81.5626 163.799 84.6065 163.799 88.9909C163.799 93.1264 162.962 96.3636 161.377 98.7826Z" fill="white" stroke="#F2F2F2" stroke-width="2"/>
</svg>
