<svg width="512" height="512" viewBox="0 0 512 512" fill="none" xmlns="http://www.w3.org/2000/svg">
<rect width="512" height="512" fill="#333333"/>
<path d="M204.363 259.107C218.273 262.531 228.438 268.202 234.858 276.12C241.278 283.824 244.488 294.096 244.488 306.936C244.488 327.694 236.142 343.102 219.45 353.16C202.972 363.004 178.362 367.926 145.62 367.926C124.22 367.926 103.783 367.284 84.3089 366H83.9879L86.8769 304.689L83.9879 158.955L165.522 158.634C187.564 158.634 204.791 163.128 217.203 172.116C229.615 181.104 235.821 194.051 235.821 210.957C235.821 221.871 233.039 231.501 227.475 239.847C222.125 247.979 214.421 254.399 204.363 259.107ZM182.856 218.019C182.856 209.245 180.074 203.146 174.51 199.722C169.16 196.298 159.423 194.586 145.299 194.586H135.027L133.743 244.983L161.349 246.267C168.625 244.127 173.975 240.81 177.399 236.316C181.037 231.822 182.856 225.723 182.856 218.019ZM155.25 331.974C166.806 331.974 175.794 329.62 182.214 324.912C188.634 320.204 191.844 313.463 191.844 304.689C191.844 298.055 189.811 292.812 185.745 288.96C181.679 284.894 175.366 281.898 166.806 279.972L133.101 280.614L132.78 299.553L133.743 330.69C144.871 331.546 152.04 331.974 155.25 331.974ZM373.665 238.884C395.707 238.884 412.399 243.592 423.741 253.008C435.297 262.424 441.075 276.227 441.075 294.417C441.075 316.887 432.729 334.435 416.037 347.061C399.345 359.687 376.34 366 347.022 366H278.97L281.859 305.01L278.97 158.955H429.84L432.729 162.807L429.519 200.685L376.875 199.401H330.972L330.009 238.884H373.665ZM359.541 331.011C368.101 329.299 374.628 325.875 379.122 320.739C383.83 315.603 386.184 309.076 386.184 301.158C386.184 292.598 383.616 286.071 378.48 281.577C373.558 276.869 366.282 274.515 356.652 274.515L329.367 275.157L329.046 299.874L330.009 329.406L359.541 331.011Z" fill="#F2F2F2"/>
<path d="M204.363 259.107L203.515 257.296L198.387 259.696L203.885 261.049L204.363 259.107ZM234.858 276.12L233.304 277.38L233.313 277.39L233.321 277.4L234.858 276.12ZM219.45 353.16L220.476 354.877L220.482 354.873L219.45 353.16ZM84.3089 366L84.4405 364.004L84.3748 364H84.3089V366ZM83.9879 366L81.9901 365.906L81.8914 368H83.9879V366ZM86.8769 304.689L88.8747 304.783L88.8778 304.716L88.8765 304.649L86.8769 304.689ZM83.9879 158.955L83.98 156.955L81.948 156.963L81.9883 158.995L83.9879 158.955ZM165.522 158.634V156.634L165.514 156.634L165.522 158.634ZM217.203 172.116L216.03 173.736V173.736L217.203 172.116ZM227.475 239.847L225.811 238.738L225.804 238.748L227.475 239.847ZM174.51 199.722L173.432 201.407L173.447 201.416L173.462 201.425L174.51 199.722ZM135.027 194.586V192.586H133.077L133.028 194.535L135.027 194.586ZM133.743 244.983L131.744 244.932L131.694 246.89L133.65 246.981L133.743 244.983ZM161.349 246.267L161.256 248.265L161.591 248.28L161.913 248.186L161.349 246.267ZM177.399 236.316L175.844 235.058L175.826 235.08L175.808 235.104L177.399 236.316ZM185.745 288.96L184.331 290.374L184.35 290.393L184.369 290.412L185.745 288.96ZM166.806 279.972L167.245 278.021L167.009 277.968L166.768 277.972L166.806 279.972ZM133.101 280.614L133.063 278.614L131.134 278.651L131.101 280.58L133.101 280.614ZM132.78 299.553L130.78 299.519L130.779 299.567L130.781 299.615L132.78 299.553ZM133.743 330.69L131.744 330.752L131.799 332.546L133.59 332.684L133.743 330.69ZM203.885 261.049C217.539 264.41 227.251 269.913 233.304 277.38L236.411 274.86C229.625 266.491 219.007 260.652 204.841 257.165L203.885 261.049ZM233.321 277.4C239.366 284.654 242.488 294.43 242.488 306.936H246.488C246.488 293.762 243.19 282.994 236.394 274.84L233.321 277.4ZM242.488 306.936C242.488 327.048 234.463 341.779 218.418 351.447L220.482 354.873C237.821 344.425 246.488 328.34 246.488 306.936H242.488ZM218.424 351.443C202.405 361.013 178.225 365.926 145.62 365.926V369.926C178.499 369.926 203.539 364.995 220.476 354.877L218.424 351.443ZM145.62 365.926C124.26 365.926 103.867 365.285 84.4405 364.004L84.1773 367.996C103.699 369.283 124.18 369.926 145.62 369.926V365.926ZM84.3089 364H83.9879V368H84.3089V364ZM85.9857 366.094L88.8747 304.783L84.8791 304.595L81.9901 365.906L85.9857 366.094ZM88.8765 304.649L85.9875 158.915L81.9883 158.995L84.8773 304.729L88.8765 304.649ZM83.9958 160.955L165.53 160.634L165.514 156.634L83.98 156.955L83.9958 160.955ZM165.522 160.634C187.32 160.634 204.079 165.082 216.03 173.736L218.376 170.496C205.503 161.174 187.808 156.634 165.522 156.634V160.634ZM216.03 173.736C227.863 182.305 233.821 194.615 233.821 210.957H237.821C237.821 193.486 231.367 179.903 218.376 170.496L216.03 173.736ZM233.821 210.957C233.821 221.512 231.136 230.749 225.811 238.738L229.139 240.956C234.941 232.253 237.821 222.23 237.821 210.957H233.821ZM225.804 238.748C220.685 246.529 213.286 252.722 203.515 257.296L205.211 260.918C215.555 256.076 223.565 249.429 229.146 240.946L225.804 238.748ZM184.856 218.019C184.856 208.818 181.91 201.928 175.558 198.019L173.462 201.425C178.238 204.364 180.856 209.672 180.856 218.019H184.856ZM175.588 198.037C172.601 196.126 168.541 194.779 163.541 193.9C158.521 193.018 152.432 192.586 145.299 192.586V196.586C152.29 196.586 158.131 197.01 162.848 197.84C167.586 198.673 171.068 199.894 173.432 201.407L175.588 198.037ZM145.299 192.586H135.027V196.586H145.299V192.586ZM133.028 194.535L131.744 244.932L135.742 245.034L137.026 194.637L133.028 194.535ZM133.65 246.981L161.256 248.265L161.442 244.269L133.836 242.985L133.65 246.981ZM161.913 248.186C169.46 245.966 175.232 242.46 178.99 237.528L175.808 235.104C172.718 239.16 167.79 242.288 160.785 244.348L161.913 248.186ZM178.953 237.574C182.963 232.621 184.856 226.028 184.856 218.019H180.856C180.856 225.418 179.111 231.023 175.844 235.058L178.953 237.574ZM155.25 333.974C167.047 333.974 176.51 331.575 183.397 326.525L181.031 323.299C175.078 327.665 166.565 329.974 155.25 329.974V333.974ZM183.397 326.525C190.388 321.398 193.844 314.025 193.844 304.689H189.844C189.844 312.901 186.88 319.01 181.031 323.299L183.397 326.525ZM193.844 304.689C193.844 297.616 191.658 291.807 187.12 287.508L184.369 290.412C187.963 293.817 189.844 298.494 189.844 304.689H193.844ZM187.159 287.546C182.719 283.106 175.994 279.989 167.245 278.021L166.367 281.923C174.738 283.807 180.638 286.682 184.331 290.374L187.159 287.546ZM166.768 277.972L133.063 278.614L133.139 282.614L166.844 281.972L166.768 277.972ZM131.101 280.58L130.78 299.519L134.78 299.587L135.101 280.648L131.101 280.58ZM130.781 299.615L131.744 330.752L135.742 330.628L134.779 299.491L130.781 299.615ZM133.59 332.684C144.696 333.538 151.948 333.974 155.25 333.974V329.974C152.132 329.974 145.045 329.554 133.896 328.696L133.59 332.684ZM423.741 253.008L422.464 254.547L422.471 254.553L422.478 254.558L423.741 253.008ZM416.037 347.061L417.244 348.656L416.037 347.061ZM278.97 366L276.973 365.905L276.873 368H278.97V366ZM281.859 305.01L283.857 305.105L283.86 305.038L283.859 304.97L281.859 305.01ZM278.97 158.955V156.955H276.93L276.971 158.995L278.97 158.955ZM429.84 158.955L431.44 157.755L430.84 156.955H429.84V158.955ZM432.729 162.807L434.722 162.976L434.787 162.217L434.329 161.607L432.729 162.807ZM429.519 200.685L429.471 202.684L431.353 202.73L431.512 200.854L429.519 200.685ZM376.875 199.401L376.924 197.402L376.9 197.401H376.875V199.401ZM330.972 199.401V197.401H329.021L328.973 199.352L330.972 199.401ZM330.009 238.884L328.01 238.835L327.96 240.884H330.009V238.884ZM359.541 331.011L359.433 333.008L359.685 333.022L359.934 332.972L359.541 331.011ZM379.122 320.739L377.648 319.388L377.632 319.405L377.617 319.422L379.122 320.739ZM378.48 281.577L377.098 283.022L377.13 283.053L377.163 283.082L378.48 281.577ZM356.652 274.515V272.515H356.629L356.605 272.516L356.652 274.515ZM329.367 275.157L329.32 273.158L327.393 273.203L327.367 275.131L329.367 275.157ZM329.046 299.874L327.046 299.848L327.046 299.894L327.047 299.939L329.046 299.874ZM330.009 329.406L328.01 329.471L328.07 331.304L329.901 331.403L330.009 329.406ZM373.665 240.884C395.463 240.884 411.621 245.545 422.464 254.547L425.019 251.469C413.177 241.639 395.951 236.884 373.665 236.884V240.884ZM422.478 254.558C433.465 263.511 439.075 276.682 439.075 294.417H443.075C443.075 275.772 437.129 261.337 425.005 251.458L422.478 254.558ZM439.075 294.417C439.075 316.314 430.982 333.249 414.831 345.466L417.244 348.656C434.477 335.621 443.075 317.46 443.075 294.417H439.075ZM414.831 345.466C398.601 357.742 376.075 364 347.022 364V368C376.605 368 400.089 361.632 417.244 348.656L414.831 345.466ZM347.022 364H278.97V368H347.022V364ZM280.968 366.095L283.857 305.105L279.862 304.915L276.973 365.905L280.968 366.095ZM283.859 304.97L280.97 158.915L276.971 158.995L279.86 305.05L283.859 304.97ZM278.97 160.955H429.84V156.955H278.97V160.955ZM428.24 160.155L431.129 164.007L434.329 161.607L431.44 157.755L428.24 160.155ZM430.736 162.638L427.526 200.516L431.512 200.854L434.722 162.976L430.736 162.638ZM429.568 198.686L376.924 197.402L376.827 201.4L429.471 202.684L429.568 198.686ZM376.875 197.401H330.972V201.401H376.875V197.401ZM328.973 199.352L328.01 238.835L332.009 238.933L332.972 199.45L328.973 199.352ZM330.009 240.884H373.665V236.884H330.009V240.884ZM359.934 332.972C368.804 331.198 375.771 327.606 380.627 322.056L377.617 319.422C373.485 324.144 367.399 327.4 359.149 329.05L359.934 332.972ZM380.597 322.09C385.689 316.535 388.184 309.503 388.184 301.158H384.184C384.184 308.649 381.971 314.671 377.648 319.388L380.597 322.09ZM388.184 301.158C388.184 292.179 385.474 285.039 379.797 280.072L377.163 283.082C381.759 287.103 384.184 293.017 384.184 301.158H388.184ZM379.863 280.132C374.438 274.943 366.583 272.515 356.652 272.515V276.515C365.981 276.515 372.678 278.795 377.098 283.022L379.863 280.132ZM356.605 272.516L329.32 273.158L329.414 277.156L356.699 276.514L356.605 272.516ZM327.367 275.131L327.046 299.848L331.046 299.9L331.367 275.183L327.367 275.131ZM327.047 299.939L328.01 329.471L332.008 329.341L331.045 299.809L327.047 299.939ZM329.901 331.403L359.433 333.008L359.65 329.014L330.118 327.409L329.901 331.403Z" fill="#F2F2F2"/>
</svg>
