<svg width="579" height="164" viewBox="0 0 579 164" fill="none" xmlns="http://www.w3.org/2000/svg">
<path d="M28.587 94.641L29.546 123H7.90003L8.99603 96.696L8.17403 28.333L29.683 26.826L28.587 94.641ZM49.411 87.654C54.069 95.6913 60.8277 106.286 69.687 119.438L69.55 121.63C64.8007 122.635 58.042 123.594 49.274 124.507L47.082 123.411C39.7754 112.177 33.656 100.897 28.724 89.572V88.202L42.835 66.008L45.986 58.884H68.454L49.411 87.654ZM103.395 57.514C113.077 57.514 120.429 60.254 125.452 65.734C130.567 71.214 133.124 79.2057 133.124 89.709C133.124 101.034 130.384 109.665 124.904 115.602C119.516 121.539 111.661 124.507 101.34 124.507C91.6591 124.507 84.2611 121.767 79.1464 116.287C74.1231 110.807 71.6114 102.861 71.6114 92.449C71.6114 81.1237 74.3058 72.4927 79.6944 66.556C85.1744 60.528 93.0748 57.514 103.395 57.514ZM101.888 72.173C98.2351 72.173 95.6321 73.406 94.0795 75.872C92.6181 78.2467 91.8874 82.448 91.8874 88.476C91.8874 94.0473 92.2071 98.4313 92.8464 101.628C93.5771 104.733 94.7188 106.971 96.2715 108.341C97.9155 109.62 100.107 110.259 102.847 110.259C106.409 110.259 108.921 109.072 110.382 106.697C111.935 104.231 112.711 99.9383 112.711 93.819C112.711 85.6903 111.889 80.0733 110.245 76.968C108.693 73.7713 105.907 72.173 101.888 72.173ZM181.922 84.777C182.105 78.475 179.547 75.324 174.25 75.324C171.053 75.324 167.583 76.694 163.838 79.434V94.641L164.797 123H143.151L144.11 96.833L143.288 60.254L163.975 58.61V68.063H164.797C169.729 63.405 175.209 60.0713 181.237 58.062C188.087 58.062 193.293 59.6603 196.855 62.857C200.508 65.9623 202.289 70.4377 202.198 76.283L201.65 94.641L202.472 123H180.826L181.922 84.777ZM246.882 79.708V93.134L214.413 98.203L212.769 96.559V83.133L245.238 78.201L246.882 79.708ZM278.906 94.641L279.865 123H258.219L259.315 96.696L258.493 28.333L280.002 26.826L278.906 94.641ZM299.73 87.654C304.388 95.6913 311.147 106.286 320.006 119.438L319.869 121.63C315.12 122.635 308.361 123.594 299.593 124.507L297.401 123.411C290.095 112.177 283.975 100.897 279.043 89.572V88.202L293.154 66.008L296.305 58.884H318.773L299.73 87.654ZM366.271 123L367.504 84.777C367.504 78.475 364.946 75.324 359.832 75.324C356.818 75.324 353.347 76.694 349.42 79.434L349.146 94.641L350.105 123H328.459L329.555 96.696L328.733 28.333L350.242 26.826L349.557 68.063H350.379C355.402 63.3137 360.836 59.98 366.682 58.062C373.623 58.062 378.875 59.6603 382.437 62.857C386.09 65.9623 387.825 70.4377 387.643 76.283L387.232 94.641L388.054 123H366.271Z" fill="#333333"/>
<path d="M28.587 94.641L26.5873 94.6087L26.5865 94.6586L26.5882 94.7086L28.587 94.641ZM29.546 123V125H31.6148L31.5449 122.932L29.546 123ZM7.90003 123L5.90176 122.917L5.81496 125H7.90003V123ZM8.99603 96.696L10.9943 96.7793L10.9965 96.7256L10.9959 96.672L8.99603 96.696ZM8.17403 28.333L8.03424 26.3379L6.15148 26.4698L6.17417 28.357L8.17403 28.333ZM29.683 26.826L31.6828 26.8583L31.718 24.6785L29.5432 24.8309L29.683 26.826ZM49.411 87.654L47.7433 86.5501L47.0589 87.5841L47.6806 88.6568L49.411 87.654ZM69.687 119.438L71.6831 119.563L71.7255 118.884L71.3458 118.321L69.687 119.438ZM69.55 121.63L69.964 123.587L71.4513 123.272L71.5461 121.755L69.55 121.63ZM49.274 124.507L48.3796 126.296L48.9012 126.557L49.4812 126.496L49.274 124.507ZM47.082 123.411L45.4055 124.501L45.7017 124.957L46.1876 125.2L47.082 123.411ZM28.724 89.572H26.724V89.9886L26.8904 90.3705L28.724 89.572ZM28.724 88.202L27.0363 87.1289L26.724 87.62V88.202H28.724ZM42.835 66.008L44.5228 67.0811L44.6034 66.9543L44.6641 66.817L42.835 66.008ZM45.986 58.884V56.884H44.6837L44.157 58.075L45.986 58.884ZM68.454 58.884L70.1218 59.9879L72.1763 56.884H68.454V58.884ZM26.5882 94.7086L27.5472 123.068L31.5449 122.932L30.5859 94.5734L26.5882 94.7086ZM29.546 121H7.90003V125H29.546V121ZM9.89829 123.083L10.9943 96.7793L6.99776 96.6127L5.90176 122.917L9.89829 123.083ZM10.9959 96.672L10.1739 28.3089L6.17417 28.357L6.99617 96.72L10.9959 96.672ZM8.31381 30.3281L29.8228 28.8211L29.5432 24.8309L8.03424 26.3379L8.31381 30.3281ZM27.6833 26.7937L26.5873 94.6087L30.5868 94.6733L31.6828 26.8583L27.6833 26.7937ZM47.6806 88.6568C52.3715 96.7509 59.1586 107.388 68.0283 120.555L71.3458 118.321C62.4968 105.184 55.7666 94.6318 51.1414 86.6512L47.6806 88.6568ZM67.6909 119.313L67.5539 121.505L71.5461 121.755L71.6831 119.563L67.6909 119.313ZM69.1361 119.673C64.489 120.656 57.8115 121.607 49.0668 122.518L49.4812 126.496C58.2725 125.58 65.1124 124.613 69.964 123.587L69.1361 119.673ZM50.1685 122.718L47.9765 121.622L46.1876 125.2L48.3796 126.296L50.1685 122.718ZM48.7586 122.321C41.5073 111.172 35.442 99.9892 30.5577 88.7735L26.8904 90.3705C31.8701 101.805 38.0435 113.182 45.4055 124.501L48.7586 122.321ZM30.724 89.572V88.202H26.724V89.572H30.724ZM30.4118 89.2751L44.5228 67.0811L41.1473 64.9349L27.0363 87.1289L30.4118 89.2751ZM44.6641 66.817L47.8151 59.693L44.157 58.075L41.006 65.199L44.6641 66.817ZM45.986 60.884H68.454V56.884H45.986V60.884ZM66.7863 57.7801L47.7433 86.5501L51.0788 88.7579L70.1218 59.9879L66.7863 57.7801ZM125.452 65.734L123.978 67.0854L123.984 67.0921L123.99 67.0986L125.452 65.734ZM124.904 115.602L123.435 114.245L123.429 114.252L123.424 114.258L124.904 115.602ZM79.1464 116.287L77.6721 117.638L77.6782 117.645L77.6843 117.652L79.1464 116.287ZM79.6944 66.556L78.2146 65.2106L78.2135 65.2118L79.6944 66.556ZM94.0795 75.872L92.387 74.8064L92.3815 74.8151L92.3761 74.8238L94.0795 75.872ZM92.8464 101.628L90.8853 102.02L90.8919 102.053L90.8996 102.086L92.8464 101.628ZM96.2715 108.341L94.9482 109.841L94.9947 109.882L95.0436 109.92L96.2715 108.341ZM110.382 106.697L108.69 105.631L108.685 105.64L108.679 105.649L110.382 106.697ZM110.245 76.968L108.446 77.8418L108.462 77.8731L108.478 77.9038L110.245 76.968ZM103.395 59.514C112.695 59.514 119.44 62.1344 123.978 67.0854L126.927 64.3825C121.419 58.3736 113.458 55.514 103.395 55.514V59.514ZM123.99 67.0986C128.642 72.0821 131.124 79.5082 131.124 89.709H135.124C135.124 78.9032 132.493 70.3459 126.915 64.3694L123.99 67.0986ZM131.124 89.709C131.124 100.734 128.458 108.804 123.435 114.245L126.374 116.959C132.311 110.527 135.124 101.335 135.124 89.709H131.124ZM123.424 114.258C118.516 119.664 111.269 122.507 101.34 122.507V126.507C112.053 126.507 120.516 123.413 126.385 116.946L123.424 114.258ZM101.34 122.507C92.0428 122.507 85.2424 119.887 80.6086 114.922L77.6843 117.652C83.2798 123.647 91.2755 126.507 101.34 126.507V122.507ZM80.6208 114.936C76.0503 109.95 73.6114 102.561 73.6114 92.449H69.6114C69.6114 103.161 72.1959 111.664 77.6721 117.638L80.6208 114.936ZM73.6114 92.449C73.6114 81.4162 76.2365 73.3413 81.1754 67.9002L78.2135 65.2118C72.375 71.644 69.6114 80.8311 69.6114 92.449H73.6114ZM81.1743 67.9013C86.1793 62.3959 93.4777 59.514 103.395 59.514V55.514C92.6719 55.514 84.1696 58.6601 78.2146 65.2107L81.1743 67.9013ZM101.888 70.173C97.7474 70.173 94.4008 71.6079 92.387 74.8064L95.7719 76.9376C96.8634 75.2041 98.7228 74.173 101.888 74.173V70.173ZM92.3761 74.8238C90.5981 77.7131 89.8874 82.4171 89.8874 88.476H93.8874C93.8874 82.4789 94.6381 78.7802 95.7828 76.9202L92.3761 74.8238ZM89.8874 88.476C89.8874 94.1005 90.2083 98.6352 90.8853 102.02L94.8076 101.236C94.2059 98.2274 93.8874 93.9941 93.8874 88.476H89.8874ZM90.8996 102.086C91.6773 105.391 92.9579 108.085 94.9482 109.841L97.5947 106.841C96.4796 105.857 95.477 104.076 94.7933 101.17L90.8996 102.086ZM95.0436 109.92C97.1355 111.547 99.8034 112.259 102.847 112.259V108.259C100.412 108.259 98.6954 107.693 97.4993 106.762L95.0436 109.92ZM102.847 112.259C106.884 112.259 110.158 110.877 112.086 107.745L108.679 105.649C107.684 107.266 105.935 108.259 102.847 108.259V112.259ZM112.075 107.763C113.952 104.781 114.711 99.9827 114.711 93.819H110.711C110.711 99.894 109.918 103.681 108.69 105.631L112.075 107.763ZM114.711 93.819C114.711 85.6866 113.911 79.6167 112.013 76.0322L108.478 77.9038C109.868 80.5299 110.711 85.6941 110.711 93.819H114.711ZM112.044 76.0942C111.112 74.1748 109.765 72.6571 107.987 71.637C106.224 70.6255 104.16 70.173 101.888 70.173V74.173C103.635 74.173 104.974 74.5197 105.996 75.1065C107.004 75.6848 107.826 76.5645 108.446 77.8418L112.044 76.0942ZM181.922 84.777L179.923 84.7191L179.923 84.7197L181.922 84.777ZM163.838 79.434L162.657 77.8199L161.838 78.4192V79.434H163.838ZM163.838 94.641H161.838V94.6748L161.839 94.7086L163.838 94.641ZM164.797 123V125H166.866L166.796 122.932L164.797 123ZM143.151 123L141.152 122.927L141.076 125H143.151V123ZM144.11 96.833L146.109 96.9062L146.111 96.8472L146.11 96.7881L144.11 96.833ZM143.288 60.254L143.13 58.2603L141.246 58.41L141.289 60.2989L143.288 60.254ZM163.975 58.61H165.975V56.4448L163.817 56.6163L163.975 58.61ZM163.975 68.063H161.975V70.063H163.975V68.063ZM164.797 68.063V70.063H165.592L166.17 69.517L164.797 68.063ZM181.237 58.062V56.062H180.913L180.605 56.1646L181.237 58.062ZM196.855 62.857L195.519 64.3455L195.539 64.3635L195.56 64.3809L196.855 62.857ZM202.198 76.283L204.197 76.3427L204.198 76.3285L204.198 76.3142L202.198 76.283ZM201.65 94.641L199.651 94.5813L199.649 94.6401L199.651 94.6989L201.65 94.641ZM202.472 123V125H204.531L204.471 122.942L202.472 123ZM180.826 123L178.827 122.943L178.768 125H180.826V123ZM183.921 84.8349C184.019 81.4579 183.403 78.5322 181.694 76.4269C179.926 74.2486 177.303 73.324 174.25 73.324V77.324C176.494 77.324 177.799 77.9749 178.588 78.9476C179.437 79.9933 180.008 81.794 179.923 84.7191L183.921 84.8349ZM174.25 73.324C170.476 73.324 166.596 74.9379 162.657 77.8199L165.019 81.0481C168.57 78.4501 171.631 77.324 174.25 77.324V73.324ZM161.838 79.434V94.641H165.838V79.434H161.838ZM161.839 94.7086L162.798 123.068L166.796 122.932L165.837 94.5734L161.839 94.7086ZM164.797 121H143.151V125H164.797V121ZM145.15 123.073L146.109 96.9062L142.111 96.7597L141.152 122.927L145.15 123.073ZM146.11 96.7881L145.288 60.2091L141.289 60.2989L142.111 96.8779L146.11 96.7881ZM143.447 62.2477L164.134 60.6037L163.817 56.6163L143.13 58.2603L143.447 62.2477ZM161.975 58.61V68.063H165.975V58.61H161.975ZM163.975 70.063H164.797V66.063H163.975V70.063ZM166.17 69.517C170.905 65.0452 176.136 61.8705 181.87 59.9594L180.605 56.1646C174.282 58.2722 168.553 61.7648 163.424 66.609L166.17 69.517ZM181.237 60.062C187.805 60.062 192.456 61.596 195.519 64.3455L198.191 61.3685C194.131 57.7247 188.37 56.062 181.237 56.062V60.062ZM195.56 64.3809C198.658 67.0146 200.283 70.8599 200.198 76.2518L204.198 76.3142C204.296 70.0154 202.359 64.9101 198.15 61.3331L195.56 64.3809ZM200.199 76.2233L199.651 94.5813L203.649 94.7007L204.197 76.3427L200.199 76.2233ZM199.651 94.6989L200.473 123.058L204.471 122.942L203.649 94.5831L199.651 94.6989ZM202.472 121H180.826V125H202.472V121ZM182.825 123.057L183.921 84.8343L179.923 84.7197L178.827 122.943L182.825 123.057ZM246.882 79.708H248.882V78.8282L248.233 78.2337L246.882 79.708ZM246.882 93.134L247.19 95.1101L248.882 94.846V93.134H246.882ZM214.413 98.203L212.998 99.6172L213.717 100.336L214.721 100.179L214.413 98.203ZM212.769 96.559H210.769V97.3874L211.354 97.9732L212.769 96.559ZM212.769 83.133L212.468 81.1557L210.769 81.4139V83.133H212.769ZM245.238 78.201L246.589 76.7267L245.883 76.0799L244.937 76.2237L245.238 78.201ZM244.882 79.708V93.134H248.882V79.708H244.882ZM246.573 91.1579L214.104 96.2269L214.721 100.179L247.19 95.1101L246.573 91.1579ZM215.827 96.7888L214.183 95.1448L211.354 97.9732L212.998 99.6172L215.827 96.7888ZM214.769 96.559V83.133H210.769V96.559H214.769ZM213.069 85.1103L245.538 80.1783L244.937 76.2237L212.468 81.1557L213.069 85.1103ZM243.886 79.6753L245.53 81.1823L248.233 78.2337L246.589 76.7267L243.886 79.6753ZM278.906 94.641L276.907 94.6087L276.906 94.6586L276.908 94.7086L278.906 94.641ZM279.865 123V125H281.934L281.864 122.932L279.865 123ZM258.219 123L256.221 122.917L256.134 125H258.219V123ZM259.315 96.696L261.314 96.7793L261.316 96.7256L261.315 96.672L259.315 96.696ZM258.493 28.333L258.354 26.3379L256.471 26.4698L256.494 28.357L258.493 28.333ZM280.002 26.826L282.002 26.8583L282.037 24.6785L279.863 24.8309L280.002 26.826ZM299.73 87.654L298.063 86.5501L297.378 87.5841L298 88.6568L299.73 87.654ZM320.006 119.438L322.002 119.563L322.045 118.884L321.665 118.321L320.006 119.438ZM319.869 121.63L320.283 123.587L321.771 123.272L321.865 121.755L319.869 121.63ZM299.593 124.507L298.699 126.296L299.221 126.557L299.801 126.496L299.593 124.507ZM297.401 123.411L295.725 124.501L296.021 124.957L296.507 125.2L297.401 123.411ZM279.043 89.572H277.043V89.9886L277.21 90.3705L279.043 89.572ZM279.043 88.202L277.356 87.1289L277.043 87.62V88.202H279.043ZM293.154 66.008L294.842 67.0811L294.923 66.9543L294.983 66.817L293.154 66.008ZM296.305 58.884V56.884H295.003L294.476 58.075L296.305 58.884ZM318.773 58.884L320.441 59.9879L322.496 56.884H318.773V58.884ZM276.908 94.7086L277.867 123.068L281.864 122.932L280.905 94.5734L276.908 94.7086ZM279.865 121H258.219V125H279.865V121ZM260.218 123.083L261.314 96.7793L257.317 96.6127L256.221 122.917L260.218 123.083ZM261.315 96.672L260.493 28.3089L256.494 28.357L257.316 96.72L261.315 96.672ZM258.633 30.3281L280.142 28.8211L279.863 24.8309L258.354 26.3379L258.633 30.3281ZM278.003 26.7937L276.907 94.6087L280.906 94.6733L282.002 26.8583L278.003 26.7937ZM298 88.6568C302.691 96.7509 309.478 107.388 318.348 120.555L321.665 118.321C312.816 105.184 306.086 94.6318 301.461 86.6512L298 88.6568ZM318.01 119.313L317.873 121.505L321.865 121.755L322.002 119.563L318.01 119.313ZM319.455 119.673C314.808 120.656 308.131 121.607 299.386 122.518L299.801 126.496C308.592 125.58 315.432 124.613 320.283 123.587L319.455 119.673ZM300.488 122.718L298.296 121.622L296.507 125.2L298.699 126.296L300.488 122.718ZM299.078 122.321C291.827 111.172 285.761 99.9892 280.877 88.7735L277.21 90.3705C282.189 101.805 288.363 113.182 295.725 124.501L299.078 122.321ZM281.043 89.572V88.202H277.043V89.572H281.043ZM280.731 89.2751L294.842 67.0811L291.467 64.9349L277.356 87.1289L280.731 89.2751ZM294.983 66.817L298.134 59.693L294.476 58.075L291.325 65.199L294.983 66.817ZM296.305 60.884H318.773V56.884H296.305V60.884ZM317.106 57.7801L298.063 86.5501L301.398 88.7579L320.441 59.9879L317.106 57.7801ZM366.271 123L364.272 122.936L364.205 125H366.271V123ZM367.504 84.777L369.503 84.8415L369.504 84.8092V84.777H367.504ZM349.42 79.434L348.275 77.7937L347.438 78.3776L347.42 79.398L349.42 79.434ZM349.146 94.641L347.146 94.605L347.145 94.6568L347.147 94.7086L349.146 94.641ZM350.105 123V125H352.173L352.103 122.932L350.105 123ZM328.459 123L326.46 122.917L326.374 125H328.459V123ZM329.555 96.696L331.553 96.7793L331.555 96.7256L331.554 96.672L329.555 96.696ZM328.733 28.333L328.593 26.3379L326.71 26.4698L326.733 28.357L328.733 28.333ZM350.242 26.826L352.241 26.8592L352.278 24.6784L350.102 24.8309L350.242 26.826ZM349.557 68.063L347.557 68.0298L347.523 70.063H349.557V68.063ZM350.379 68.063V70.063H351.174L351.753 69.5163L350.379 68.063ZM366.682 58.062V56.062H366.362L366.058 56.1617L366.682 58.062ZM382.437 62.857L381.101 64.3455L381.121 64.3635L381.141 64.3809L382.437 62.857ZM387.643 76.283L385.644 76.2205L385.643 76.2294L385.643 76.2382L387.643 76.283ZM387.232 94.641L385.232 94.5962L385.231 94.6476L385.232 94.6989L387.232 94.641ZM388.054 123V125H390.112L390.053 122.942L388.054 123ZM368.27 123.064L369.503 84.8415L365.505 84.7125L364.272 122.936L368.27 123.064ZM369.504 84.777C369.504 81.4072 368.828 78.5089 367.139 76.4269C365.384 74.2651 362.82 73.324 359.832 73.324V77.324C361.957 77.324 363.23 77.9584 364.033 78.9476C364.9 80.0166 365.504 81.8448 365.504 84.777H369.504ZM359.832 73.324C356.232 73.324 352.356 74.9466 348.275 77.7937L350.564 81.0743C354.338 78.4414 357.404 77.324 359.832 77.324V73.324ZM347.42 79.398L347.146 94.605L351.145 94.677L351.419 79.47L347.42 79.398ZM347.147 94.7086L348.106 123.068L352.103 122.932L351.144 94.5734L347.147 94.7086ZM350.105 121H328.459V125H350.105V121ZM330.457 123.083L331.553 96.7793L327.556 96.6127L326.46 122.917L330.457 123.083ZM331.554 96.672L330.732 28.3089L326.733 28.357L327.555 96.72L331.554 96.672ZM328.872 30.3281L350.381 28.8211L350.102 24.8309L328.593 26.3379L328.872 30.3281ZM348.242 26.7928L347.557 68.0298L351.556 68.0962L352.241 26.8592L348.242 26.7928ZM349.557 70.063H350.379V66.063H349.557V70.063ZM351.753 69.5163C356.588 64.9443 361.773 61.7776 367.305 59.9623L366.058 56.1617C359.9 58.1824 354.215 61.6831 349.005 66.6097L351.753 69.5163ZM366.682 60.062C373.349 60.062 378.041 61.5998 381.101 64.3455L383.772 61.3685C379.708 57.7209 373.897 56.062 366.682 56.062V60.062ZM381.141 64.3809C384.229 67.0053 385.812 70.8357 385.644 76.2205L389.642 76.3455C389.839 70.0396 387.951 64.9194 383.732 61.3331L381.141 64.3809ZM385.643 76.2382L385.232 94.5962L389.231 94.6858L389.642 76.3278L385.643 76.2382ZM385.232 94.6989L386.054 123.058L390.053 122.942L389.231 94.5831L385.232 94.6989ZM388.054 121H366.271V125H388.054V121Z" fill="#333333"/>
<path d="M415.056 101.354C418.435 101.354 421.038 102.313 422.865 104.231C424.783 106.149 425.742 108.798 425.742 112.177C425.742 115.83 424.692 118.753 422.591 120.945C420.49 123.046 417.705 124.096 414.234 124.096C410.763 124.096 408.115 123.137 406.288 121.219C404.461 119.301 403.548 116.607 403.548 113.136C403.548 109.574 404.553 106.743 406.562 104.642C408.663 102.45 411.494 101.354 415.056 101.354ZM485 95.737C489.292 102.222 494.818 109.711 501.577 118.205L501.303 120.534C494.27 122.635 487.603 123.868 481.301 124.233L478.424 122.178C474.588 115.145 471.071 108.341 467.875 101.765H458.833L459.655 123H439.105L440.064 102.587L439.105 53.404L472.122 53.267C480.25 53.267 486.507 55.1393 490.891 58.884C495.275 62.5373 497.467 67.789 497.467 74.639C497.467 78.8403 496.371 82.7677 494.179 86.421C491.987 90.0743 488.927 93.1797 485 95.737ZM475.684 76.694C475.684 73.68 474.816 71.488 473.081 70.118C471.437 68.748 468.742 67.9717 464.998 67.789L459.655 68.2L459.244 86.558L468.423 87.106C470.98 86.1927 472.807 84.914 473.903 83.27C475.09 81.5347 475.684 79.3427 475.684 76.694ZM571.226 88.75L571.089 99.71C571.089 107.565 568.349 113.638 562.869 117.931C557.389 122.132 549.58 124.233 539.442 124.233C529.67 124.233 522.18 122.132 516.974 117.931C511.86 113.638 509.394 107.565 509.576 99.71L509.85 88.613L509.302 53.404H529.852L528.893 96.833C528.802 100.669 529.67 103.455 531.496 105.19C533.414 106.925 536.383 107.793 540.401 107.793C544.42 107.793 547.343 106.925 549.169 105.19C551.087 103.455 552.001 100.669 551.909 96.833L550.95 53.404H571.911L571.226 88.75Z" fill="#828282"/>
<path d="M422.865 104.231L421.417 105.61L421.433 105.628L421.451 105.645L422.865 104.231ZM422.591 120.945L424.005 122.359L424.02 122.344L424.035 122.329L422.591 120.945ZM406.288 121.219L404.84 122.598L404.84 122.598L406.288 121.219ZM406.562 104.642L405.118 103.258L405.117 103.26L406.562 104.642ZM415.056 103.354C418.047 103.354 420.065 104.191 421.417 105.61L424.313 102.852C422.011 100.435 418.823 99.354 415.056 99.354V103.354ZM421.451 105.645C422.906 107.101 423.742 109.19 423.742 112.177H427.742C427.742 108.405 426.66 105.197 424.279 102.817L421.451 105.645ZM423.742 112.177C423.742 115.426 422.82 117.815 421.147 119.561L424.035 122.329C426.563 119.691 427.742 116.235 427.742 112.177H423.742ZM421.177 119.531C419.514 121.193 417.27 122.096 414.234 122.096V126.096C418.139 126.096 421.466 124.898 424.005 122.359L421.177 119.531ZM414.234 122.096C411.133 122.096 409.078 121.249 407.736 119.84L404.84 122.598C407.151 125.025 410.394 126.096 414.234 126.096V122.096ZM407.736 119.84C406.363 118.398 405.548 116.258 405.548 113.136H401.548C401.548 116.956 402.56 120.204 404.84 122.598L407.736 119.84ZM405.548 113.136C405.548 109.966 406.43 107.673 408.007 106.024L405.117 103.26C402.675 105.812 401.548 109.182 401.548 113.136H405.548ZM408.006 106.026C409.664 104.296 411.937 103.354 415.056 103.354V99.354C411.051 99.354 407.661 100.604 405.118 103.258L408.006 106.026ZM485 95.737L483.908 94.061L482.22 95.1606L483.332 96.841L485 95.737ZM501.577 118.205L503.563 118.439L503.66 117.611L503.142 116.96L501.577 118.205ZM501.303 120.534L501.875 122.45L503.135 122.074L503.289 120.768L501.303 120.534ZM481.301 124.233L480.138 125.86L480.712 126.27L481.416 126.23L481.301 124.233ZM478.424 122.178L476.668 123.136L476.888 123.539L477.261 123.805L478.424 122.178ZM467.875 101.765L469.673 100.891L469.126 99.765H467.875V101.765ZM458.833 101.765V99.765H456.754L456.834 101.842L458.833 101.765ZM459.655 123V125H461.734L461.653 122.923L459.655 123ZM439.105 123L437.107 122.906L437.009 125H439.105V123ZM440.064 102.587L442.062 102.681L442.065 102.614L442.063 102.548L440.064 102.587ZM439.105 53.404L439.096 51.404L437.065 51.4124L437.105 53.443L439.105 53.404ZM472.122 53.267V51.267L472.113 51.267L472.122 53.267ZM490.891 58.884L489.592 60.4047L489.601 60.4126L489.61 60.4204L490.891 58.884ZM494.179 86.421L492.464 85.392L492.464 85.392L494.179 86.421ZM473.081 70.118L471.8 71.6544L471.821 71.6714L471.841 71.6878L473.081 70.118ZM464.998 67.789L465.095 65.7914L464.97 65.7852L464.844 65.7949L464.998 67.789ZM459.655 68.2L459.501 66.2059L457.696 66.3448L457.655 68.1552L459.655 68.2ZM459.244 86.558L457.244 86.5132L457.201 88.4396L459.125 88.5544L459.244 86.558ZM468.423 87.106L468.304 89.1024L468.711 89.1268L469.095 88.9895L468.423 87.106ZM473.903 83.27L472.252 82.1406L472.245 82.1506L472.239 82.1606L473.903 83.27ZM483.332 96.841C487.667 103.389 493.23 110.927 500.012 119.45L503.142 116.96C496.406 108.495 490.918 101.054 486.667 94.633L483.332 96.841ZM499.59 117.971L499.316 120.3L503.289 120.768L503.563 118.439L499.59 117.971ZM500.73 118.618C493.823 120.681 487.309 121.881 481.185 122.236L481.416 126.23C487.896 125.854 494.717 124.588 501.875 122.45L500.73 118.618ZM482.463 122.606L479.586 120.551L477.261 123.805L480.138 125.86L482.463 122.606ZM480.18 121.22C476.357 114.213 472.855 107.436 469.673 100.891L466.076 102.639C469.288 109.246 472.818 116.078 476.668 123.136L480.18 121.22ZM467.875 99.765H458.833V103.765H467.875V99.765ZM456.834 101.842L457.656 123.077L461.653 122.923L460.831 101.688L456.834 101.842ZM459.655 121H439.105V125H459.655V121ZM441.103 123.094L442.062 102.681L438.066 102.493L437.107 122.906L441.103 123.094ZM442.063 102.548L441.104 53.365L437.105 53.443L438.064 102.626L442.063 102.548ZM439.113 55.404L472.13 55.267L472.113 51.267L439.096 51.404L439.113 55.404ZM472.122 55.267C479.967 55.267 485.694 57.0752 489.592 60.4047L492.19 57.3632C487.32 53.2035 480.533 51.267 472.122 51.267V55.267ZM489.61 60.4204C493.446 63.6171 495.467 68.2514 495.467 74.639H499.467C499.467 67.3266 497.103 61.4575 492.171 57.3476L489.61 60.4204ZM495.467 74.639C495.467 78.4725 494.472 82.0449 492.464 85.392L495.894 87.45C498.269 83.4904 499.467 79.2082 499.467 74.639H495.467ZM492.464 85.392C490.443 88.76 487.607 91.6525 483.908 94.061L486.091 97.413C490.247 94.7069 493.53 91.3887 495.894 87.45L492.464 85.392ZM477.684 76.694C477.684 73.3049 476.695 70.4234 474.32 68.5482L471.841 71.6878C472.937 72.5526 473.684 74.0551 473.684 76.694H477.684ZM474.361 68.5816C472.213 66.7918 468.983 65.981 465.095 65.7914L464.9 69.7866C468.502 69.9623 470.66 70.7042 471.8 71.6544L474.361 68.5816ZM464.844 65.7949L459.501 66.2059L459.808 70.1941L465.151 69.7831L464.844 65.7949ZM457.655 68.1552L457.244 86.5132L461.243 86.6028L461.654 68.2448L457.655 68.1552ZM459.125 88.5544L468.304 89.1024L468.542 85.1096L459.363 84.5616L459.125 88.5544ZM469.095 88.9895C471.909 87.9846 474.157 86.4936 475.567 84.3794L472.239 82.1606C471.456 83.3343 470.051 84.4007 467.75 85.2225L469.095 88.9895ZM475.553 84.3994C477.021 82.2542 477.684 79.6409 477.684 76.694H473.684C473.684 79.0445 473.159 80.8151 472.252 82.1406L475.553 84.3994ZM571.226 88.75L569.227 88.7112L569.226 88.725L571.226 88.75ZM571.089 99.71L569.089 99.685L569.089 99.6975V99.71H571.089ZM562.869 117.931L564.086 119.518L564.094 119.512L564.103 119.505L562.869 117.931ZM516.974 117.931L515.688 119.463L515.703 119.475L515.718 119.487L516.974 117.931ZM509.576 99.71L507.577 99.6606L507.577 99.6635L509.576 99.71ZM509.85 88.613L511.85 88.6624L511.851 88.6221L511.85 88.5819L509.85 88.613ZM509.302 53.404V51.404H507.271L507.302 53.4351L509.302 53.404ZM529.852 53.404L531.852 53.4482L531.897 51.404H529.852V53.404ZM528.893 96.833L530.893 96.8806L530.893 96.8772L528.893 96.833ZM531.496 105.19L530.119 106.64L530.136 106.657L530.154 106.673L531.496 105.19ZM549.169 105.19L547.827 103.707L547.809 103.723L547.792 103.74L549.169 105.19ZM551.909 96.833L549.91 96.8772L549.91 96.8806L551.909 96.833ZM550.95 53.404V51.404H548.906L548.951 53.4482L550.95 53.404ZM571.911 53.404L573.911 53.4428L573.95 51.404H571.911V53.404ZM569.226 88.725L569.089 99.685L573.089 99.735L573.226 88.775L569.226 88.725ZM569.089 99.71C569.089 107.04 566.565 112.495 561.636 116.357L564.103 119.505C570.133 114.782 573.089 108.09 573.089 99.71H569.089ZM561.652 116.344C556.651 120.178 549.338 122.233 539.442 122.233V126.233C549.822 126.233 558.127 124.087 564.086 119.518L561.652 116.344ZM539.442 122.233C529.923 122.233 522.949 120.183 518.23 116.375L515.718 119.487C521.412 124.082 529.417 126.233 539.442 126.233V122.233ZM518.26 116.399C513.695 112.568 511.404 107.124 511.576 99.7565L507.577 99.6635C507.383 108.005 510.024 114.709 515.688 119.463L518.26 116.399ZM511.576 99.7594L511.85 88.6624L507.851 88.5636L507.577 99.6606L511.576 99.7594ZM511.85 88.5819L511.302 53.3729L507.302 53.4351L507.85 88.6441L511.85 88.5819ZM509.302 55.404H529.852V51.404H509.302V55.404ZM527.853 53.3598L526.894 96.7888L530.893 96.8772L531.852 53.4482L527.853 53.3598ZM526.894 96.7854C526.796 100.891 527.709 104.351 530.119 106.64L532.874 103.74C531.63 102.559 530.808 100.447 530.893 96.8806L526.894 96.7854ZM530.154 106.673C532.597 108.883 536.15 109.793 540.401 109.793V105.793C536.615 105.793 534.231 104.967 532.838 103.707L530.154 106.673ZM540.401 109.793C544.641 109.793 548.18 108.888 550.547 106.64L547.792 103.74C546.505 104.963 544.199 105.793 540.401 105.793V109.793ZM550.511 106.673C553.035 104.39 554.007 100.917 553.909 96.7854L549.91 96.8806C549.994 100.421 549.14 102.52 547.827 103.707L550.511 106.673ZM553.909 96.7888L552.95 53.3598L548.951 53.4482L549.91 96.8772L553.909 96.7888ZM550.95 55.404H571.911V51.404H550.95V55.404ZM569.912 53.3652L569.227 88.7112L573.226 88.7888L573.911 53.4428L569.912 53.3652Z" fill="#828282"/>
</svg>
