<svg width="745" height="219" viewBox="0 0 745 219" fill="none" xmlns="http://www.w3.org/2000/svg">
<path d="M36.864 105.264C43.392 114.928 50.784 124.752 59.04 134.736L58.848 136.464C53.792 137.68 48.672 138.544 43.488 139.056L41.664 138.096C33.792 126.576 27.232 116.368 21.984 107.472L21.792 118.128L22.368 138H6.816L7.584 119.664L6.816 76.08H22.56L22.08 103.728L37.152 82.32L40.608 76.08H57.216L36.864 105.264ZM80.1675 92.112C86.9515 92.112 92.1035 94.032 95.6235 97.872C99.2075 101.712 101 107.312 101 114.672C101 122.608 99.0795 128.656 95.2395 132.816C91.4635 136.976 85.9595 139.056 78.7275 139.056C71.9435 139.056 66.7595 137.136 63.1755 133.296C59.6555 129.456 57.8955 123.888 57.8955 116.592C57.8955 108.656 59.7835 102.608 63.5595 98.448C67.3995 94.224 72.9355 92.112 80.1675 92.112ZM79.1115 102.384C76.5515 102.384 74.7275 103.248 73.6395 104.976C72.6155 106.64 72.1035 109.584 72.1035 113.808C72.1035 117.712 72.3275 120.784 72.7755 123.024C73.2875 125.2 74.0875 126.768 75.1755 127.728C76.3275 128.624 77.8635 129.072 79.7835 129.072C82.2795 129.072 84.0395 128.24 85.0635 126.576C86.1515 124.848 86.6955 121.84 86.6955 117.552C86.6955 111.856 86.1195 107.92 84.9675 105.744C83.8795 103.504 81.9275 102.384 79.1115 102.384ZM135.194 111.216C135.322 106.8 133.53 104.592 129.818 104.592C127.578 104.592 125.146 105.552 122.522 107.472V118.128L123.194 138H108.026L108.698 119.664L108.122 94.032L122.618 92.88V99.504H123.194C126.65 96.24 130.49 93.904 134.714 92.496C139.514 92.496 143.162 93.616 145.658 95.856C148.218 98.032 149.466 101.168 149.402 105.264L149.018 118.128L149.594 138H134.426L135.194 111.216ZM175.721 92.208C180.329 92.208 184.681 92.976 188.777 94.512L186.857 105.36L185.033 105.936C182.985 104.656 180.969 103.664 178.984 102.96C177.065 102.256 175.401 101.904 173.993 101.904C172.713 101.904 171.721 102.224 171.017 102.864C170.313 103.44 169.961 104.144 169.961 104.976C169.961 106.128 170.537 107.088 171.689 107.856C172.841 108.56 174.601 109.36 176.969 110.256C179.657 111.344 181.833 112.368 183.497 113.328C185.161 114.288 186.601 115.632 187.817 117.36C189.097 119.088 189.737 121.264 189.737 123.888C189.737 126.576 189.065 129.072 187.721 131.376C186.377 133.68 184.265 135.536 181.385 136.944C178.569 138.352 175.049 139.056 170.825 139.056C166.089 139.056 161.065 138.16 155.753 136.368L157.577 124.848L158.921 123.888C161.033 125.616 163.369 126.992 165.929 128.016C168.553 129.04 170.793 129.552 172.649 129.552C174.057 129.552 175.113 129.232 175.817 128.592C176.585 127.952 176.969 127.152 176.969 126.192C176.969 125.104 176.393 124.208 175.241 123.504C174.153 122.736 172.393 121.872 169.961 120.912C167.337 119.888 165.161 118.896 163.433 117.936C161.705 116.976 160.201 115.632 158.921 113.904C157.705 112.112 157.097 109.872 157.097 107.184C157.097 102.768 158.761 99.184 162.089 96.432C165.417 93.616 169.961 92.208 175.721 92.208ZM217.058 126.864C218.978 126.864 221.026 126.384 223.202 125.424L224.258 126.576L222.818 135.312C219.618 137.104 216.29 138.224 212.834 138.672C208.162 138.416 204.61 137.2 202.178 135.024C199.746 132.784 198.53 129.744 198.53 125.904L199.01 117.168L198.914 102.48H192.962L192.482 101.712L193.154 93.456H198.818V85.776L212.738 81.648L213.794 82.608L213.41 93.456H223.97L224.45 94.32L223.778 102.48H213.122L212.546 121.872C212.546 123.728 212.866 125.04 213.506 125.808C214.21 126.512 215.394 126.864 217.058 126.864ZM249.281 92.112C254.593 92.112 258.721 93.264 261.665 95.568C264.609 97.808 266.081 101.04 266.081 105.264C266.081 106.736 266.017 108.432 265.889 110.352C265.761 112.272 265.665 114.096 265.601 115.824C265.281 120.432 265.121 123.6 265.121 125.328C265.121 126.224 265.249 126.864 265.505 127.248C265.825 127.632 266.337 127.824 267.041 127.824C267.617 127.824 268.321 127.696 269.153 127.44L270.209 128.304L268.865 136.272C266.753 137.744 264.161 138.608 261.089 138.864C259.169 138.672 257.537 138 256.193 136.848C254.849 135.696 253.889 134.064 253.313 131.952H252.641C249.441 135.344 246.177 137.68 242.849 138.96C238.113 138.896 234.369 137.616 231.617 135.12C228.929 132.624 227.585 129.232 227.585 124.944C227.585 118.352 231.041 114.48 237.953 113.328L252.161 110.928V108.144C252.161 106.16 251.713 104.752 250.817 103.92C249.985 103.024 248.609 102.576 246.689 102.576C244.769 102.576 242.689 102.992 240.449 103.824C238.273 104.656 235.745 105.968 232.865 107.76L231.905 107.088L230.177 97.2C233.057 95.6 236.161 94.352 239.489 93.456C242.817 92.56 246.081 92.112 249.281 92.112ZM243.905 119.664C242.945 119.856 242.209 120.24 241.697 120.816C241.249 121.392 241.025 122.256 241.025 123.408C241.025 124.944 241.409 126.128 242.177 126.96C243.009 127.792 244.129 128.208 245.537 128.208C247.585 128.208 249.761 127.12 252.065 124.944L252.161 118.032L243.905 119.664ZM304.319 111.216C304.447 106.8 302.655 104.592 298.943 104.592C296.703 104.592 294.271 105.552 291.647 107.472V118.128L292.319 138H277.151L277.823 119.664L277.247 94.032L291.743 92.88V99.504H292.319C295.775 96.24 299.615 93.904 303.839 92.496C308.639 92.496 312.287 93.616 314.783 95.856C317.343 98.032 318.591 101.168 318.527 105.264L318.143 118.128L318.719 138H303.551L304.319 111.216ZM348.59 126.864C350.51 126.864 352.558 126.384 354.734 125.424L355.79 126.576L354.35 135.312C351.15 137.104 347.822 138.224 344.366 138.672C339.694 138.416 336.142 137.2 333.71 135.024C331.278 132.784 330.062 129.744 330.062 125.904L330.542 117.168L330.446 102.48H324.494L324.014 101.712L324.686 93.456H330.35V85.776L344.27 81.648L345.326 82.608L344.942 93.456H355.502L355.982 94.32L355.31 102.48H344.654L344.078 121.872C344.078 123.728 344.398 125.04 345.038 125.808C345.742 126.512 346.926 126.864 348.59 126.864ZM362.765 119.664L362.285 94.032L377.357 92.88L376.685 118.128L377.261 138H362.093L362.765 119.664ZM370.061 70.032C372.429 70.032 374.253 70.704 375.533 72.048C376.877 73.392 377.549 75.248 377.549 77.616C377.549 80.176 376.813 82.224 375.341 83.76C373.869 85.232 371.917 85.968 369.484 85.968C367.053 85.968 365.197 85.296 363.917 83.952C362.637 82.608 361.997 80.72 361.997 78.288C361.997 75.792 362.701 73.808 364.109 72.336C365.581 70.8 367.565 70.032 370.061 70.032ZM415.131 111.216C415.259 106.8 413.467 104.592 409.755 104.592C407.515 104.592 405.083 105.552 402.459 107.472V118.128L403.131 138H387.963L388.635 119.664L388.059 94.032L402.555 92.88V99.504H403.131C406.587 96.24 410.427 93.904 414.651 92.496C419.451 92.496 423.099 93.616 425.595 95.856C428.155 98.032 429.403 101.168 429.339 105.264L428.955 118.128L429.531 138H414.363L415.131 111.216ZM484.989 105.264C491.517 114.928 498.909 124.752 507.165 134.736L506.973 136.464C501.917 137.68 496.797 138.544 491.613 139.056L489.789 138.096C481.917 126.576 475.357 116.368 470.109 107.472L469.917 118.128L470.493 138H454.941L455.709 119.664L454.941 76.08H470.685L470.205 103.728L485.277 82.32L488.733 76.08H505.341L484.989 105.264ZM537.747 138L538.611 111.216C538.611 106.8 536.819 104.592 533.235 104.592C531.123 104.592 528.691 105.552 525.939 107.472L525.747 118.128L526.419 138H511.251L512.019 119.568L511.443 71.664L526.515 70.608L526.035 99.504H526.611C530.131 96.176 533.939 93.84 538.035 92.496C542.899 92.496 546.579 93.616 549.075 95.856C551.635 98.032 552.851 101.168 552.723 105.264L552.435 118.128L553.011 138H537.747ZM563.671 119.664L563.191 94.032L578.263 92.88L577.591 118.128L578.167 138H562.999L563.671 119.664ZM570.967 70.032C573.335 70.032 575.159 70.704 576.439 72.048C577.783 73.392 578.455 75.248 578.455 77.616C578.455 80.176 577.719 82.224 576.247 83.76C574.775 85.232 572.823 85.968 570.391 85.968C567.959 85.968 566.103 85.296 564.823 83.952C563.543 82.608 562.903 80.72 562.903 78.288C562.903 75.792 563.607 73.808 565.015 72.336C566.487 70.8 568.471 70.032 570.967 70.032ZM608.933 126.864C610.853 126.864 612.901 126.384 615.077 125.424L616.133 126.576L614.693 135.312C611.493 137.104 608.165 138.224 604.709 138.672C600.037 138.416 596.485 137.2 594.053 135.024C591.621 132.784 590.405 129.744 590.405 125.904L590.885 117.168L590.789 102.48H584.837L584.357 101.712L585.029 93.456H590.693V85.776L604.613 81.648L605.669 82.608L605.285 93.456H615.845L616.325 94.32L615.653 102.48H604.997L604.421 121.872C604.421 123.728 604.741 125.04 605.381 125.808C606.085 126.512 607.269 126.864 608.933 126.864ZM649.028 92.976C649.412 92.976 650.18 93.04 651.332 93.168V107.088L649.796 107.568C648.9 107.12 647.716 106.896 646.244 106.896C642.788 106.896 639.62 108.752 636.74 112.464V118.128L637.412 138H622.244L623.012 119.664L622.34 94.032L636.836 92.88V101.52H637.508C640.516 95.824 644.356 92.976 649.028 92.976ZM676.136 92.112C682.92 92.112 688.072 94.032 691.592 97.872C695.176 101.712 696.968 107.312 696.968 114.672C696.968 122.608 695.048 128.656 691.208 132.816C687.432 136.976 681.928 139.056 674.696 139.056C667.912 139.056 662.728 137.136 659.144 133.296C655.624 129.456 653.864 123.888 653.864 116.592C653.864 108.656 655.752 102.608 659.528 98.448C663.368 94.224 668.904 92.112 676.136 92.112ZM675.08 102.384C672.52 102.384 670.696 103.248 669.608 104.976C668.584 106.64 668.072 109.584 668.072 113.808C668.072 117.712 668.296 120.784 668.744 123.024C669.256 125.2 670.056 126.768 671.144 127.728C672.296 128.624 673.832 129.072 675.752 129.072C678.248 129.072 680.008 128.24 681.032 126.576C682.12 124.848 682.664 121.84 682.664 117.552C682.664 111.856 682.088 107.92 680.936 105.744C679.848 103.504 677.896 102.384 675.08 102.384ZM714.188 100.848L719.564 123.888H720.332L726.86 101.712L728.492 93.072H741.74L727.436 138H710.924L698.828 93.36L712.94 92.784L714.188 100.848Z" fill="#333333"/>
<path d="M36.864 105.264L35.2235 104.12L34.4383 105.246L35.2067 106.384L36.864 105.264ZM59.04 134.736L61.0278 134.957L61.1214 134.115L60.5813 133.461L59.04 134.736ZM58.848 136.464L59.3157 138.409L60.6807 138.08L60.8358 136.685L58.848 136.464ZM43.488 139.056L42.5565 140.826L43.0875 141.105L43.6846 141.046L43.488 139.056ZM41.664 138.096L40.0127 139.224L40.293 139.634L40.7325 139.866L41.664 138.096ZM21.984 107.472L23.7066 106.456L20.1118 100.362L19.9843 107.436L21.984 107.472ZM21.792 118.128L19.7923 118.092L19.7915 118.139L19.7928 118.186L21.792 118.128ZM22.368 138V140H24.4268L24.3672 137.942L22.368 138ZM6.816 138L4.81775 137.916L4.73048 140H6.816V138ZM7.584 119.664L9.58225 119.748L9.58474 119.688L9.58369 119.629L7.584 119.664ZM6.816 76.08V74.08H4.78045L4.81631 76.1152L6.816 76.08ZM22.56 76.08L24.5597 76.1147L24.595 74.08H22.56V76.08ZM22.08 103.728L20.0803 103.693L19.9673 110.203L23.7154 104.879L22.08 103.728ZM37.152 82.32L38.7874 83.4713L38.8494 83.3832L38.9016 83.289L37.152 82.32ZM40.608 76.08V74.08H39.4294L38.8584 75.111L40.608 76.08ZM57.216 76.08L58.8565 77.224L61.049 74.08H57.216V76.08ZM35.2067 106.384C41.7745 116.107 49.206 125.982 57.4987 136.011L60.5813 133.461C52.362 123.522 45.0095 113.749 38.5213 104.144L35.2067 106.384ZM57.0522 134.515L56.8602 136.243L60.8358 136.685L61.0278 134.957L57.0522 134.515ZM58.3803 134.519C53.4137 135.714 48.3843 136.563 43.2914 137.066L43.6846 141.046C48.9597 140.525 54.1703 139.646 59.3157 138.409L58.3803 134.519ZM44.4195 137.286L42.5955 136.326L40.7325 139.866L42.5565 140.826L44.4195 137.286ZM43.3153 136.968C35.4603 125.472 28.9259 115.303 23.7066 106.456L20.2614 108.488C25.5382 117.433 32.1237 127.68 40.0127 139.224L43.3153 136.968ZM19.9843 107.436L19.7923 118.092L23.7917 118.164L23.9837 107.508L19.9843 107.436ZM19.7928 118.186L20.3688 138.058L24.3672 137.942L23.7912 118.07L19.7928 118.186ZM22.368 136H6.816V140H22.368V136ZM8.81425 138.084L9.58225 119.748L5.58575 119.58L4.81775 137.916L8.81425 138.084ZM9.58369 119.629L8.81569 76.0448L4.81631 76.1152L5.58431 119.699L9.58369 119.629ZM6.816 78.08H22.56V74.08H6.816V78.08ZM20.5603 76.0453L20.0803 103.693L24.0797 103.763L24.5597 76.1147L20.5603 76.0453ZM23.7154 104.879L38.7874 83.4713L35.5166 81.1686L20.4446 102.577L23.7154 104.879ZM38.9016 83.289L42.3576 77.049L38.8584 75.111L35.4024 81.351L38.9016 83.289ZM40.608 78.08H57.216V74.08H40.608V78.08ZM55.5755 74.936L35.2235 104.12L38.5045 106.408L58.8565 77.224L55.5755 74.936ZM95.6235 97.872L94.1492 99.2234L94.1553 99.2301L94.1614 99.2366L95.6235 97.872ZM95.2395 132.816L93.7699 131.459L93.7642 131.466L93.7586 131.472L95.2395 132.816ZM63.1755 133.296L61.7012 134.647L61.7073 134.654L61.7134 134.661L63.1755 133.296ZM63.5595 98.448L62.0796 97.1027L62.0786 97.1038L63.5595 98.448ZM73.6395 104.976L71.947 103.91L71.9416 103.919L71.9362 103.928L73.6395 104.976ZM72.7755 123.024L70.8143 123.416L70.8209 123.449L70.8287 123.482L72.7755 123.024ZM75.1755 127.728L73.8523 129.228L73.8987 129.269L73.9476 129.307L75.1755 127.728ZM85.0635 126.576L83.371 125.51L83.3656 125.519L83.3602 125.528L85.0635 126.576ZM84.9675 105.744L83.1685 106.618L83.1837 106.649L83.1999 106.68L84.9675 105.744ZM80.1675 94.112C86.5699 94.112 91.1141 95.9124 94.1492 99.2234L97.0978 96.5205C93.0929 92.1516 87.3331 90.112 80.1675 90.112V94.112ZM94.1614 99.2366C97.2819 102.58 98.9995 107.615 98.9995 114.672H103C103 107.009 101.133 100.844 97.0856 96.5074L94.1614 99.2366ZM98.9995 114.672C98.9995 122.308 97.1527 127.795 93.7699 131.459L96.7091 134.173C101.006 129.517 103 122.908 103 114.672H98.9995ZM93.7586 131.472C90.4637 135.102 85.5676 137.056 78.7275 137.056V141.056C86.3514 141.056 92.4633 138.85 96.7204 134.16L93.7586 131.472ZM78.7275 137.056C72.3272 137.056 67.7408 135.256 64.6376 131.931L61.7134 134.661C65.7782 139.016 71.5598 141.056 78.7275 141.056V137.056ZM64.6498 131.945C61.5827 128.599 59.8955 123.588 59.8955 116.592H55.8955C55.8955 124.188 57.7283 130.313 61.7012 134.647L64.6498 131.945ZM59.8955 116.592C59.8955 108.949 61.7142 103.457 65.0404 99.7922L62.0786 97.1038C57.8528 101.759 55.8955 108.363 55.8955 116.592H59.8955ZM65.0394 99.7933C68.4043 96.0919 73.3384 94.112 80.1675 94.112V90.112C72.5326 90.112 66.3947 92.3561 62.0796 97.1027L65.0394 99.7933ZM79.1115 100.384C76.0638 100.384 73.4962 101.45 71.947 103.91L75.332 106.042C75.9588 105.046 77.0392 104.384 79.1115 104.384V100.384ZM71.9362 103.928C70.5955 106.106 70.1035 109.553 70.1035 113.808H74.1035C74.1035 109.615 74.6355 107.174 75.3428 106.024L71.9362 103.928ZM70.1035 113.808C70.1035 117.765 70.3287 120.988 70.8143 123.416L74.7367 122.632C74.3263 120.58 74.1035 117.659 74.1035 113.808H70.1035ZM70.8287 123.482C71.3876 125.858 72.3267 127.882 73.8523 129.228L76.4987 126.228C75.8483 125.654 75.1874 124.542 74.7223 122.566L70.8287 123.482ZM73.9476 129.307C75.5476 130.551 77.5594 131.072 79.7835 131.072V127.072C78.1676 127.072 77.1074 126.697 76.4034 126.149L73.9476 129.307ZM79.7835 131.072C82.7539 131.072 85.2767 130.046 86.7668 127.624L83.3602 125.528C82.8023 126.434 81.8051 127.072 79.7835 127.072V131.072ZM86.756 127.642C88.1689 125.398 88.6955 121.884 88.6955 117.552H84.6955C84.6955 121.796 84.1341 124.298 83.371 125.51L86.756 127.642ZM88.6955 117.552C88.6955 111.852 88.1408 107.463 86.7351 104.808L83.1999 106.68C84.0982 108.377 84.6955 111.86 84.6955 117.552H88.6955ZM86.7665 104.87C86.0666 103.429 85.0438 102.27 83.6828 101.489C82.3367 100.717 80.7821 100.384 79.1115 100.384V104.384C80.2569 104.384 81.0863 104.611 81.6922 104.959C82.2832 105.298 82.7804 105.819 83.1685 106.618L86.7665 104.87ZM135.194 111.216L133.194 111.158L133.194 111.159L135.194 111.216ZM122.522 107.472L121.34 105.858L120.522 106.457V107.472H122.522ZM122.522 118.128H120.522V118.162L120.523 118.196L122.522 118.128ZM123.194 138V140H125.262L125.192 137.932L123.194 138ZM108.026 138L106.027 137.927L105.951 140H108.026V138ZM108.698 119.664L110.696 119.737L110.698 119.678L110.697 119.619L108.698 119.664ZM108.122 94.032L107.963 92.0383L106.08 92.188L106.122 94.0769L108.122 94.032ZM122.618 92.88H124.618V90.7148L122.459 90.8863L122.618 92.88ZM122.618 99.504H120.618V101.504H122.618V99.504ZM123.194 99.504V101.504H123.989L124.567 100.958L123.194 99.504ZM134.714 92.496V90.496H134.389L134.081 90.5986L134.714 92.496ZM145.658 95.856L144.322 97.3445L144.342 97.3625L144.362 97.3799L145.658 95.856ZM149.402 105.264L151.401 105.324L151.401 105.309L151.401 105.295L149.402 105.264ZM149.018 118.128L147.018 118.068L147.017 118.127L147.018 118.186L149.018 118.128ZM149.594 138V140H151.652L151.593 137.942L149.594 138ZM134.426 138L132.426 137.943L132.367 140H134.426V138ZM137.193 111.274C137.263 108.84 136.824 106.621 135.498 104.988C134.113 103.281 132.078 102.592 129.818 102.592V106.592C131.269 106.592 131.986 107.007 132.393 107.508C132.859 108.083 133.252 109.176 133.194 111.158L137.193 111.274ZM129.818 102.592C127 102.592 124.159 103.796 121.34 105.858L123.703 109.086C126.132 107.308 128.155 106.592 129.818 106.592V102.592ZM120.522 107.472V118.128H124.522V107.472H120.522ZM120.523 118.196L121.195 138.068L125.192 137.932L124.52 118.06L120.523 118.196ZM123.194 136H108.026V140H123.194V136ZM110.024 138.073L110.696 119.737L106.699 119.591L106.027 137.927L110.024 138.073ZM110.697 119.619L110.121 93.9871L106.122 94.0769L106.698 119.709L110.697 119.619ZM108.28 96.0257L122.776 94.8737L122.459 90.8863L107.963 92.0383L108.28 96.0257ZM120.618 92.88V99.504H124.618V92.88H120.618ZM122.618 101.504H123.194V97.504H122.618V101.504ZM124.567 100.958C127.826 97.8802 131.417 95.7031 135.346 94.3934L134.081 90.5986C129.562 92.1049 125.473 94.5998 121.82 98.05L124.567 100.958ZM134.714 94.496C139.231 94.496 142.324 95.5516 144.322 97.3445L146.993 94.3675C143.999 91.6804 139.796 90.496 134.714 90.496V94.496ZM144.362 97.3799C146.367 99.0842 147.459 101.59 147.402 105.233L151.401 105.295C151.472 100.746 150.068 96.9798 146.953 94.3321L144.362 97.3799ZM147.402 105.204L147.018 118.068L151.017 118.188L151.401 105.324L147.402 105.204ZM147.018 118.186L147.594 138.058L151.593 137.942L151.017 118.07L147.018 118.186ZM149.594 136H134.426V140H149.594V136ZM136.425 138.057L137.193 111.273L133.194 111.159L132.426 137.943L136.425 138.057ZM188.777 94.512L190.746 94.8606L191.036 93.2232L189.479 92.6393L188.777 94.512ZM186.857 105.36L187.459 107.267L188.615 106.902L188.826 105.709L186.857 105.36ZM185.033 105.936L183.973 107.632L184.755 108.121L185.635 107.843L185.033 105.936ZM178.984 102.96L178.296 104.838L178.306 104.841L178.316 104.845L178.984 102.96ZM171.017 102.864L172.283 104.412L172.323 104.379L172.362 104.344L171.017 102.864ZM171.689 107.856L170.579 109.52L170.612 109.542L170.646 109.563L171.689 107.856ZM176.969 110.256L177.719 108.402L177.698 108.394L177.676 108.385L176.969 110.256ZM183.497 113.328L182.497 115.06L182.497 115.06L183.497 113.328ZM187.817 117.36L186.181 118.511L186.195 118.531L186.209 118.55L187.817 117.36ZM187.721 131.376L185.993 130.368L185.993 130.368L187.721 131.376ZM181.385 136.944L180.506 135.147L180.498 135.151L180.49 135.155L181.385 136.944ZM155.753 136.368L153.777 136.055L153.513 137.723L155.113 138.263L155.753 136.368ZM157.577 124.848L156.414 123.221L155.732 123.708L155.601 124.535L157.577 124.848ZM158.921 123.888L160.187 122.34L159.003 121.371L157.758 122.261L158.921 123.888ZM165.929 128.016L165.186 129.873L165.194 129.876L165.201 129.879L165.929 128.016ZM175.817 128.592L174.536 127.056L174.503 127.083L174.471 127.112L175.817 128.592ZM175.241 123.504L174.087 125.138L174.141 125.176L174.198 125.211L175.241 123.504ZM169.961 120.912L170.695 119.052L170.688 119.049L169.961 120.912ZM158.921 113.904L157.266 115.027L157.289 115.061L157.313 115.094L158.921 113.904ZM162.089 96.432L163.363 97.9733L163.372 97.9661L163.38 97.9588L162.089 96.432ZM175.721 94.208C180.102 94.208 184.215 94.9373 188.074 96.3847L189.479 92.6393C185.146 91.0147 180.555 90.208 175.721 90.208V94.208ZM186.807 94.1634L184.887 105.011L188.826 105.709L190.746 94.8606L186.807 94.1634ZM186.254 103.453L184.43 104.029L185.635 107.843L187.459 107.267L186.254 103.453ZM186.092 104.24C183.939 102.894 181.792 101.834 179.653 101.075L178.316 104.845C180.145 105.494 182.03 106.418 183.973 107.632L186.092 104.24ZM179.673 101.082C177.623 100.331 175.716 99.904 173.993 99.904V103.904C175.085 103.904 176.506 104.181 178.296 104.838L179.673 101.082ZM173.993 99.904C172.389 99.904 170.855 100.308 169.671 101.384L172.362 104.344C172.586 104.14 173.036 103.904 173.993 103.904V99.904ZM169.75 101.316C168.631 102.232 167.961 103.483 167.961 104.976H171.961C171.961 104.805 171.994 104.648 172.283 104.412L169.75 101.316ZM167.961 104.976C167.961 106.938 169 108.467 170.579 109.52L172.798 106.192C172.073 105.709 171.961 105.318 171.961 104.976H167.961ZM170.646 109.563C171.959 110.365 173.858 111.218 176.261 112.127L177.676 108.385C175.343 107.502 173.722 106.755 172.731 106.149L170.646 109.563ZM176.218 112.11C178.859 113.179 180.942 114.164 182.497 115.06L184.496 111.596C182.723 110.572 180.454 109.509 177.719 108.402L176.218 112.11ZM182.497 115.06C183.885 115.861 185.115 116.997 186.181 118.511L189.452 116.209C188.086 114.267 186.436 112.715 184.496 111.596L182.497 115.06ZM186.209 118.55C187.182 119.864 187.737 121.596 187.737 123.888H191.737C191.737 120.932 191.011 118.312 189.424 116.17L186.209 118.55ZM187.737 123.888C187.737 126.225 187.157 128.373 185.993 130.368L189.448 132.384C190.972 129.771 191.737 126.927 191.737 123.888H187.737ZM185.993 130.368C184.885 132.267 183.104 133.877 180.506 135.147L182.263 138.741C185.425 137.195 187.868 135.093 189.448 132.384L185.993 130.368ZM180.49 135.155C178.03 136.385 174.839 137.056 170.825 137.056V141.056C175.258 141.056 179.107 140.319 182.279 138.733L180.49 135.155ZM170.825 137.056C166.342 137.056 161.535 136.208 156.392 134.473L155.113 138.263C160.594 140.112 165.835 141.056 170.825 141.056V137.056ZM157.728 136.681L159.552 125.161L155.601 124.535L153.777 136.055L157.728 136.681ZM158.739 126.475L160.083 125.515L157.758 122.261L156.414 123.221L158.739 126.475ZM157.654 125.436C159.925 127.294 162.438 128.774 165.186 129.873L166.671 126.159C164.299 125.21 162.14 123.938 160.187 122.34L157.654 125.436ZM165.201 129.879C167.949 130.952 170.45 131.552 172.649 131.552V127.552C171.135 127.552 169.156 127.128 166.656 126.153L165.201 129.879ZM172.649 131.552C174.32 131.552 175.947 131.176 177.162 130.072L174.471 127.112C174.278 127.288 173.793 127.552 172.649 127.552V131.552ZM177.097 130.128C178.299 129.127 178.969 127.773 178.969 126.192H174.969C174.969 126.531 174.87 126.777 174.536 127.056L177.097 130.128ZM178.969 126.192C178.969 124.233 177.864 122.764 176.283 121.797L174.198 125.211C174.921 125.652 174.969 125.975 174.969 126.192H178.969ZM176.394 121.87C175.104 120.96 173.162 120.026 170.695 119.052L169.226 122.772C171.623 123.718 173.201 124.512 174.087 125.138L176.394 121.87ZM170.688 119.049C168.115 118.045 166.028 117.09 164.404 116.188L162.461 119.684C164.293 120.702 166.558 121.731 169.233 122.775L170.688 119.049ZM164.404 116.188C162.946 115.378 161.653 114.233 160.528 112.714L157.313 115.094C158.748 117.031 160.463 118.574 162.461 119.684L164.404 116.188ZM160.575 112.781C159.633 111.393 159.097 109.569 159.097 107.184H155.097C155.097 110.175 155.776 112.831 157.266 115.027L160.575 112.781ZM159.097 107.184C159.097 103.349 160.506 100.336 163.363 97.9733L160.814 94.8907C157.015 98.0325 155.097 102.187 155.097 107.184H159.097ZM163.38 97.9588C166.245 95.5348 170.28 94.208 175.721 94.208V90.208C169.641 90.208 164.588 91.6972 160.797 94.9052L163.38 97.9588ZM223.202 125.424L224.677 124.073L223.707 123.015L222.395 123.594L223.202 125.424ZM224.258 126.576L226.232 126.901L226.39 125.942L225.733 125.225L224.258 126.576ZM222.818 135.312L223.795 137.057L224.635 136.587L224.792 135.637L222.818 135.312ZM212.834 138.672L212.725 140.669L212.909 140.679L213.091 140.655L212.834 138.672ZM202.178 135.024L200.823 136.495L200.834 136.505L200.845 136.514L202.178 135.024ZM198.53 125.904L196.533 125.794L196.53 125.849V125.904H198.53ZM199.01 117.168L201.007 117.278L201.011 117.216L201.01 117.155L199.01 117.168ZM198.914 102.48L200.914 102.467L200.901 100.48H198.914V102.48ZM192.962 102.48L191.266 103.54L191.854 104.48H192.962V102.48ZM192.482 101.712L190.489 101.55L190.435 102.21L190.786 102.772L192.482 101.712ZM193.154 93.456V91.456H191.31L191.161 93.2937L193.154 93.456ZM198.818 93.456V95.456H200.818V93.456H198.818ZM198.818 85.776L198.25 83.8585L196.818 84.283V85.776H198.818ZM212.738 81.648L214.084 80.1681L213.25 79.4102L212.17 79.7305L212.738 81.648ZM213.794 82.608L215.793 82.6788L215.826 81.7519L215.14 81.1281L213.794 82.608ZM213.41 93.456L211.412 93.3852L211.338 95.456H213.41V93.456ZM223.97 93.456L225.719 92.4847L225.147 91.456H223.97V93.456ZM224.45 94.32L226.444 94.4841L226.493 93.8793L226.199 93.3487L224.45 94.32ZM223.778 102.48V104.48H225.62L225.772 102.644L223.778 102.48ZM213.122 102.48V100.48H211.181L211.123 102.421L213.122 102.48ZM212.546 121.872L210.547 121.813L210.546 121.842V121.872H212.546ZM213.506 125.808L211.97 127.088L212.028 127.158L212.092 127.222L213.506 125.808ZM217.058 128.864C219.314 128.864 221.638 128.3 224.01 127.254L222.395 123.594C220.414 124.468 218.642 124.864 217.058 124.864V128.864ZM221.728 126.775L222.784 127.927L225.733 125.225L224.677 124.073L221.728 126.775ZM222.285 126.251L220.845 134.987L224.792 135.637L226.232 126.901L222.285 126.251ZM221.841 133.567C218.852 135.241 215.767 136.275 212.577 136.689L213.091 140.655C216.814 140.173 220.385 138.967 223.795 137.057L221.841 133.567ZM212.944 136.675C208.534 136.433 205.485 135.299 203.512 133.534L200.845 136.514C203.735 139.101 207.791 140.399 212.725 140.669L212.944 136.675ZM203.533 133.553C201.58 131.754 200.53 129.284 200.53 125.904H196.53C196.53 130.204 197.913 133.814 200.823 136.495L203.533 133.553ZM200.527 126.014L201.007 117.278L197.013 117.058L196.533 125.794L200.527 126.014ZM201.01 117.155L200.914 102.467L196.914 102.493L197.01 117.181L201.01 117.155ZM198.914 100.48H192.962V104.48H198.914V100.48ZM194.658 101.42L194.178 100.652L190.786 102.772L191.266 103.54L194.658 101.42ZM194.476 101.874L195.148 93.6183L191.161 93.2937L190.489 101.55L194.476 101.874ZM193.154 95.456H198.818V91.456H193.154V95.456ZM200.818 93.456V85.776H196.818V93.456H200.818ZM199.387 87.6935L213.307 83.5655L212.17 79.7305L198.25 83.8585L199.387 87.6935ZM211.393 83.1279L212.449 84.0879L215.14 81.1281L214.084 80.1681L211.393 83.1279ZM211.796 82.5372L211.412 93.3852L215.409 93.5268L215.793 82.6788L211.796 82.5372ZM213.41 95.456H223.97V91.456H213.41V95.456ZM222.222 94.4273L222.702 95.2913L226.199 93.3487L225.719 92.4847L222.222 94.4273ZM222.457 94.1558L221.785 102.316L225.772 102.644L226.444 94.4841L222.457 94.1558ZM223.778 100.48H213.122V104.48H223.778V100.48ZM211.123 102.421L210.547 121.813L214.545 121.931L215.121 102.539L211.123 102.421ZM210.546 121.872C210.546 123.844 210.864 125.761 211.97 127.088L215.043 124.528C214.869 124.319 214.546 123.612 214.546 121.872H210.546ZM212.092 127.222C213.356 128.486 215.2 128.864 217.058 128.864V124.864C215.588 124.864 215.065 124.538 214.92 124.394L212.092 127.222ZM261.665 95.568L260.433 97.143L260.443 97.1514L260.454 97.1597L261.665 95.568ZM265.889 110.352L263.894 110.219L263.894 110.219L265.889 110.352ZM265.601 115.824L267.596 115.963L267.599 115.93L267.6 115.898L265.601 115.824ZM265.505 127.248L263.841 128.357L263.9 128.446L263.969 128.528L265.505 127.248ZM269.153 127.44L270.42 125.892L269.59 125.213L268.565 125.528L269.153 127.44ZM270.209 128.304L272.181 128.637L272.375 127.491L271.476 126.756L270.209 128.304ZM268.865 136.272L270.009 137.913L270.698 137.433L270.837 136.605L268.865 136.272ZM261.089 138.864L260.89 140.854L261.073 140.872L261.255 140.857L261.089 138.864ZM256.193 136.848L254.892 138.367L254.892 138.367L256.193 136.848ZM253.313 131.952L255.243 131.426L254.841 129.952H253.313V131.952ZM252.641 131.952V129.952H251.779L251.186 130.58L252.641 131.952ZM242.849 138.96L242.822 140.96L243.208 140.965L243.567 140.827L242.849 138.96ZM231.617 135.12L230.256 136.586L230.265 136.594L230.274 136.601L231.617 135.12ZM237.953 113.328L238.282 115.301L238.286 115.3L237.953 113.328ZM252.161 110.928L252.494 112.9L254.161 112.618V110.928H252.161ZM250.817 103.92L249.352 105.281L249.402 105.335L249.456 105.386L250.817 103.92ZM240.449 103.824L239.753 101.949L239.744 101.952L239.735 101.956L240.449 103.824ZM232.865 107.76L231.718 109.398L232.8 110.156L233.922 109.458L232.865 107.76ZM231.905 107.088L229.935 107.432L230.078 108.25L230.758 108.726L231.905 107.088ZM230.177 97.2L229.206 95.4517L227.962 96.1427L228.207 97.5443L230.177 97.2ZM243.905 119.664L243.517 117.702L243.513 117.703L243.905 119.664ZM241.697 120.816L240.202 119.487L240.159 119.536L240.119 119.588L241.697 120.816ZM242.177 126.96L240.708 128.317L240.735 128.346L240.763 128.374L242.177 126.96ZM252.065 124.944L253.438 126.398L254.053 125.817L254.065 124.972L252.065 124.944ZM252.161 118.032L254.161 118.06L254.195 115.591L251.773 116.07L252.161 118.032ZM249.281 94.112C254.33 94.112 257.962 95.2094 260.433 97.143L262.898 93.993C259.481 91.3186 254.857 90.112 249.281 90.112V94.112ZM260.454 97.1597C262.826 98.9642 264.081 101.564 264.081 105.264H268.081C268.081 100.516 266.393 96.6517 262.876 93.9763L260.454 97.1597ZM264.081 105.264C264.081 106.681 264.02 108.331 263.894 110.219L267.885 110.485C268.015 108.533 268.081 106.791 268.081 105.264H264.081ZM263.894 110.219C263.765 112.156 263.667 114 263.603 115.75L267.6 115.898C267.663 114.192 267.758 112.388 267.885 110.485L263.894 110.219ZM263.606 115.685C263.286 120.288 263.121 123.521 263.121 125.328H267.121C267.121 123.679 267.276 120.576 267.596 115.963L263.606 115.685ZM263.121 125.328C263.121 126.307 263.241 127.457 263.841 128.357L267.169 126.139C267.233 126.234 267.211 126.25 267.178 126.088C267.148 125.935 267.121 125.689 267.121 125.328H263.121ZM263.969 128.528C264.805 129.532 265.997 129.824 267.041 129.824V125.824C266.955 125.824 266.897 125.818 266.861 125.812C266.826 125.807 266.819 125.803 266.831 125.807C266.845 125.813 266.878 125.827 266.92 125.856C266.962 125.885 267.005 125.923 267.042 125.968L263.969 128.528ZM267.041 129.824C267.891 129.824 268.806 129.639 269.741 129.352L268.565 125.528C267.837 125.753 267.344 125.824 267.041 125.824V129.824ZM267.887 128.988L268.943 129.852L271.476 126.756L270.42 125.892L267.887 128.988ZM268.237 127.971L266.893 135.939L270.837 136.605L272.181 128.637L268.237 127.971ZM267.722 134.631C265.951 135.865 263.713 136.638 260.923 136.871L261.255 140.857C264.609 140.578 267.555 139.623 270.009 137.913L267.722 134.631ZM261.288 136.874C259.737 136.719 258.5 136.191 257.495 135.329L254.892 138.367C256.574 139.809 258.602 140.625 260.89 140.854L261.288 136.874ZM257.495 135.329C256.52 134.494 255.739 133.244 255.243 131.426L251.384 132.478C252.04 134.884 253.179 136.898 254.892 138.367L257.495 135.329ZM253.313 129.952H252.641V133.952H253.313V129.952ZM251.186 130.58C248.131 133.818 245.108 135.949 242.131 137.093L243.567 140.827C247.247 139.411 250.751 136.87 254.096 133.324L251.186 130.58ZM242.876 136.96C238.49 136.901 235.261 135.725 232.961 133.639L230.274 136.601C233.477 139.507 237.737 140.891 242.822 140.96L242.876 136.96ZM232.978 133.654C230.767 131.601 229.585 128.778 229.585 124.944H225.585C225.585 129.686 227.091 133.647 230.256 136.586L232.978 133.654ZM229.585 124.944C229.585 122.002 230.349 119.907 231.669 118.428C233.003 116.934 235.119 115.828 238.282 115.301L237.624 111.355C233.876 111.98 230.808 113.386 228.685 115.764C226.549 118.157 225.585 121.294 225.585 124.944H229.585ZM238.286 115.3L252.494 112.9L251.828 108.956L237.62 111.356L238.286 115.3ZM254.161 110.928V108.144H250.161V110.928H254.161ZM254.161 108.144C254.161 105.939 253.675 103.845 252.178 102.454L249.456 105.386C249.751 105.659 250.161 106.381 250.161 108.144H254.161ZM252.283 102.559C250.903 101.073 248.854 100.576 246.689 100.576V104.576C248.364 104.576 249.068 104.975 249.352 105.281L252.283 102.559ZM246.689 100.576C244.481 100.576 242.163 101.054 239.753 101.949L241.146 105.699C243.215 104.93 245.057 104.576 246.689 104.576V100.576ZM239.735 101.956C237.399 102.849 234.753 104.23 231.809 106.062L233.922 109.458C236.738 107.706 239.147 106.463 241.164 105.692L239.735 101.956ZM234.012 106.122L233.052 105.45L230.758 108.726L231.718 109.398L234.012 106.122ZM233.875 106.744L232.147 96.8557L228.207 97.5443L229.935 107.432L233.875 106.744ZM231.149 98.9483C233.88 97.431 236.831 96.2428 240.009 95.3872L238.969 91.5248C235.491 92.4612 232.235 93.769 229.206 95.4517L231.149 98.9483ZM240.009 95.3872C243.181 94.5334 246.27 94.112 249.281 94.112V90.112C245.893 90.112 242.454 90.5866 238.969 91.5248L240.009 95.3872ZM243.513 117.703C242.243 117.957 241.073 118.507 240.202 119.487L243.192 122.145C243.345 121.973 243.647 121.755 244.297 121.625L243.513 117.703ZM240.119 119.588C239.28 120.667 239.025 122.052 239.025 123.408H243.025C243.025 122.46 243.219 122.117 243.276 122.044L240.119 119.588ZM239.025 123.408C239.025 125.265 239.493 127 240.708 128.317L243.647 125.603C243.326 125.256 243.025 124.623 243.025 123.408H239.025ZM240.763 128.374C242.042 129.654 243.711 130.208 245.537 130.208V126.208C244.548 126.208 243.976 125.93 243.591 125.546L240.763 128.374ZM245.537 130.208C248.314 130.208 250.96 128.739 253.438 126.398L250.692 123.49C248.563 125.501 246.856 126.208 245.537 126.208V130.208ZM254.065 124.972L254.161 118.06L250.161 118.004L250.065 124.916L254.065 124.972ZM251.773 116.07L243.517 117.702L244.293 121.626L252.549 119.994L251.773 116.07ZM304.319 111.216L302.319 111.158L302.319 111.159L304.319 111.216ZM291.647 107.472L290.465 105.858L289.647 106.457V107.472H291.647ZM291.647 118.128H289.647V118.162L289.648 118.196L291.647 118.128ZM292.319 138V140H294.387L294.317 137.932L292.319 138ZM277.151 138L275.152 137.927L275.076 140H277.151V138ZM277.823 119.664L279.821 119.737L279.823 119.678L279.822 119.619L277.823 119.664ZM277.247 94.032L277.088 92.0383L275.205 92.188L275.247 94.0769L277.247 94.032ZM291.743 92.88H293.743V90.7148L291.584 90.8863L291.743 92.88ZM291.743 99.504H289.743V101.504H291.743V99.504ZM292.319 99.504V101.504H293.114L293.692 100.958L292.319 99.504ZM303.839 92.496V90.496H303.514L303.206 90.5986L303.839 92.496ZM314.783 95.856L313.447 97.3445L313.467 97.3625L313.487 97.3799L314.783 95.856ZM318.527 105.264L320.526 105.324L320.526 105.309L320.526 105.295L318.527 105.264ZM318.143 118.128L316.143 118.068L316.142 118.127L316.143 118.186L318.143 118.128ZM318.719 138V140H320.777L320.718 137.942L318.719 138ZM303.551 138L301.551 137.943L301.492 140H303.551V138ZM306.318 111.274C306.388 108.84 305.949 106.621 304.623 104.988C303.238 103.281 301.203 102.592 298.943 102.592V106.592C300.394 106.592 301.111 107.007 301.518 107.508C301.984 108.083 302.377 109.176 302.319 111.158L306.318 111.274ZM298.943 102.592C296.125 102.592 293.284 103.796 290.465 105.858L292.828 109.086C295.257 107.308 297.28 106.592 298.943 106.592V102.592ZM289.647 107.472V118.128H293.647V107.472H289.647ZM289.648 118.196L290.32 138.068L294.317 137.932L293.645 118.06L289.648 118.196ZM292.319 136H277.151V140H292.319V136ZM279.149 138.073L279.821 119.737L275.824 119.591L275.152 137.927L279.149 138.073ZM279.822 119.619L279.246 93.9871L275.247 94.0769L275.823 119.709L279.822 119.619ZM277.405 96.0257L291.901 94.8737L291.584 90.8863L277.088 92.0383L277.405 96.0257ZM289.743 92.88V99.504H293.743V92.88H289.743ZM291.743 101.504H292.319V97.504H291.743V101.504ZM293.692 100.958C296.951 97.8802 300.542 95.7031 304.471 94.3934L303.206 90.5986C298.687 92.1049 294.598 94.5998 290.945 98.05L293.692 100.958ZM303.839 94.496C308.356 94.496 311.449 95.5516 313.447 97.3445L316.118 94.3675C313.124 91.6804 308.921 90.496 303.839 90.496V94.496ZM313.487 97.3799C315.492 99.0842 316.584 101.59 316.527 105.233L320.526 105.295C320.597 100.746 319.193 96.9798 316.078 94.3321L313.487 97.3799ZM316.527 105.204L316.143 118.068L320.142 118.188L320.526 105.324L316.527 105.204ZM316.143 118.186L316.719 138.058L320.718 137.942L320.142 118.07L316.143 118.186ZM318.719 136H303.551V140H318.719V136ZM305.55 138.057L306.318 111.273L302.319 111.159L301.551 137.943L305.55 138.057ZM354.734 125.424L356.208 124.073L355.239 123.015L353.926 123.594L354.734 125.424ZM355.79 126.576L357.763 126.901L357.921 125.942L357.264 125.225L355.79 126.576ZM354.35 135.312L355.327 137.057L356.166 136.587L356.323 135.637L354.35 135.312ZM344.366 138.672L344.256 140.669L344.44 140.679L344.623 140.655L344.366 138.672ZM333.71 135.024L332.355 136.495L332.365 136.505L332.376 136.514L333.71 135.024ZM330.062 125.904L328.065 125.794L328.062 125.849V125.904H330.062ZM330.542 117.168L332.538 117.278L332.542 117.216L332.541 117.155L330.542 117.168ZM330.446 102.48L332.445 102.467L332.432 100.48H330.446V102.48ZM324.494 102.48L322.798 103.54L323.385 104.48H324.494V102.48ZM324.014 101.712L322.02 101.55L321.966 102.21L322.318 102.772L324.014 101.712ZM324.686 93.456V91.456H322.842L322.692 93.2937L324.686 93.456ZM330.35 93.456V95.456H332.35V93.456H330.35ZM330.35 85.776L329.781 83.8585L328.35 84.283V85.776H330.35ZM344.27 81.648L345.615 80.1681L344.781 79.4102L343.701 79.7305L344.27 81.648ZM345.326 82.608L347.324 82.6788L347.357 81.7519L346.671 81.1281L345.326 82.608ZM344.942 93.456L342.943 93.3852L342.869 95.456H344.942V93.456ZM355.502 93.456L357.25 92.4847L356.678 91.456H355.502V93.456ZM355.982 94.32L357.975 94.4841L358.025 93.8793L357.73 93.3487L355.982 94.32ZM355.31 102.48V104.48H357.152L357.303 102.644L355.31 102.48ZM344.654 102.48V100.48H342.712L342.654 102.421L344.654 102.48ZM344.078 121.872L342.078 121.813L342.078 121.842V121.872H344.078ZM345.038 125.808L343.501 127.088L343.559 127.158L343.623 127.222L345.038 125.808ZM348.59 128.864C350.845 128.864 353.169 128.3 355.541 127.254L353.926 123.594C351.946 124.468 350.174 124.864 348.59 124.864V128.864ZM353.259 126.775L354.315 127.927L357.264 125.225L356.208 124.073L353.259 126.775ZM353.816 126.251L352.376 134.987L356.323 135.637L357.763 126.901L353.816 126.251ZM353.372 133.567C350.383 135.241 347.298 136.275 344.108 136.689L344.623 140.655C348.345 140.173 351.916 138.967 355.327 137.057L353.372 133.567ZM344.475 136.675C340.065 136.433 337.017 135.299 335.043 133.534L332.376 136.514C335.266 139.101 339.322 140.399 344.256 140.669L344.475 136.675ZM335.064 133.553C333.111 131.754 332.062 129.284 332.062 125.904H328.062C328.062 130.204 329.444 133.814 332.355 136.495L335.064 133.553ZM332.058 126.014L332.538 117.278L328.545 117.058L328.065 125.794L332.058 126.014ZM332.541 117.155L332.445 102.467L328.446 102.493L328.542 117.181L332.541 117.155ZM330.446 100.48H324.494V104.48H330.446V100.48ZM326.189 101.42L325.709 100.652L322.318 102.772L322.798 103.54L326.189 101.42ZM326.007 101.874L326.679 93.6183L322.692 93.2937L322.02 101.55L326.007 101.874ZM324.686 95.456H330.35V91.456H324.686V95.456ZM332.35 93.456V85.776H328.35V93.456H332.35ZM330.918 87.6935L344.838 83.5655L343.701 79.7305L329.781 83.8585L330.918 87.6935ZM342.924 83.1279L343.98 84.0879L346.671 81.1281L345.615 80.1681L342.924 83.1279ZM343.327 82.5372L342.943 93.3852L346.94 93.5268L347.324 82.6788L343.327 82.5372ZM344.942 95.456H355.502V91.456H344.942V95.456ZM353.753 94.4273L354.233 95.2913L357.73 93.3487L357.25 92.4847L353.753 94.4273ZM353.988 94.1558L353.316 102.316L357.303 102.644L357.975 94.4841L353.988 94.1558ZM355.31 100.48H344.654V104.48H355.31V100.48ZM342.654 102.421L342.078 121.813L346.077 121.931L346.653 102.539L342.654 102.421ZM342.078 121.872C342.078 123.844 342.395 125.761 343.501 127.088L346.574 124.528C346.4 124.319 346.078 123.612 346.078 121.872H342.078ZM343.623 127.222C344.887 128.486 346.731 128.864 348.59 128.864V124.864C347.12 124.864 346.596 124.538 346.452 124.394L343.623 127.222ZM362.765 119.664L364.763 119.737L364.765 119.682L364.764 119.627L362.765 119.664ZM362.285 94.032L362.132 92.0378L360.25 92.1817L360.285 94.0694L362.285 94.032ZM377.357 92.88L379.356 92.9332L379.415 90.7168L377.204 90.8858L377.357 92.88ZM376.685 118.128L374.685 118.075L374.684 118.13L374.685 118.186L376.685 118.128ZM377.261 138V140H379.319L379.26 137.942L377.261 138ZM362.093 138L360.094 137.927L360.018 140H362.093V138ZM375.533 72.048L374.084 73.4273L374.101 73.445L374.118 73.4622L375.533 72.048ZM375.341 83.76L376.755 85.1742L376.77 85.1592L376.784 85.1438L375.341 83.76ZM363.917 83.952L362.468 85.3313L362.468 85.3313L363.917 83.952ZM364.109 72.336L362.665 70.9522L362.663 70.9536L364.109 72.336ZM364.764 119.627L364.284 93.9946L360.285 94.0694L360.765 119.701L364.764 119.627ZM362.437 96.0262L377.509 94.8742L377.204 90.8858L362.132 92.0378L362.437 96.0262ZM375.357 92.8268L374.685 118.075L378.684 118.181L379.356 92.9332L375.357 92.8268ZM374.685 118.186L375.261 138.058L379.26 137.942L378.684 118.07L374.685 118.186ZM377.261 136H362.093V140H377.261V136ZM364.091 138.073L364.763 119.737L360.766 119.591L360.094 137.927L364.091 138.073ZM370.061 72.032C372.041 72.032 373.279 72.5821 374.084 73.4273L376.981 70.6687C375.226 68.8259 372.816 68.032 370.061 68.032V72.032ZM374.118 73.4622C375 74.3437 375.549 75.6405 375.549 77.616H379.549C379.549 74.8555 378.753 72.4403 376.947 70.6338L374.118 73.4622ZM375.549 77.616C375.549 79.7717 374.941 81.2859 373.897 82.3762L376.784 85.1438C378.684 83.1621 379.549 80.5803 379.549 77.616H375.549ZM373.926 82.3458C372.892 83.3797 371.482 83.968 369.484 83.968V87.968C372.351 87.968 374.845 87.0843 376.755 85.1742L373.926 82.3458ZM369.484 83.968C367.422 83.968 366.16 83.4077 365.365 82.5727L362.468 85.3313C364.233 87.1843 366.683 87.968 369.484 87.968V83.968ZM365.365 82.5727C364.538 81.7047 363.997 80.3709 363.997 78.288H359.997C359.997 81.0691 360.735 83.5113 362.468 85.3313L365.365 82.5727ZM363.997 78.288C363.997 76.1845 364.578 74.7382 365.554 73.7184L362.663 70.9536C360.823 72.8778 359.997 75.3995 359.997 78.288H363.997ZM365.552 73.7198C366.582 72.6458 368.007 72.032 370.061 72.032V68.032C367.122 68.032 364.579 68.9542 362.665 70.9522L365.552 73.7198ZM415.131 111.216L413.132 111.158L413.132 111.159L415.131 111.216ZM402.459 107.472L401.278 105.858L400.459 106.457V107.472H402.459ZM402.459 118.128H400.459V118.162L400.46 118.196L402.459 118.128ZM403.131 138V140H405.2L405.13 137.932L403.131 138ZM387.963 138L385.964 137.927L385.888 140H387.963V138ZM388.635 119.664L390.634 119.737L390.636 119.678L390.634 119.619L388.635 119.664ZM388.059 94.032L387.901 92.0383L386.017 92.188L386.06 94.0769L388.059 94.032ZM402.555 92.88H404.555V90.7148L402.397 90.8863L402.555 92.88ZM402.555 99.504H400.555V101.504H402.555V99.504ZM403.131 99.504V101.504H403.926L404.504 100.958L403.131 99.504ZM414.651 92.496V90.496H414.326L414.019 90.5986L414.651 92.496ZM425.595 95.856L424.259 97.3445L424.279 97.3625L424.3 97.3799L425.595 95.856ZM429.339 105.264L431.338 105.324L431.339 105.309L431.339 105.295L429.339 105.264ZM428.955 118.128L426.956 118.068L426.954 118.127L426.956 118.186L428.955 118.128ZM429.531 138V140H431.59L431.53 137.942L429.531 138ZM414.363 138L412.364 137.943L412.305 140H414.363V138ZM417.13 111.274C417.201 108.84 416.762 106.621 415.436 104.988C414.051 103.281 412.015 102.592 409.755 102.592V106.592C411.207 106.592 411.923 107.007 412.33 107.508C412.796 108.083 413.189 109.176 413.132 111.158L417.13 111.274ZM409.755 102.592C406.937 102.592 404.096 103.796 401.278 105.858L403.64 109.086C406.07 107.308 408.093 106.592 409.755 106.592V102.592ZM400.459 107.472V118.128H404.459V107.472H400.459ZM400.46 118.196L401.132 138.068L405.13 137.932L404.458 118.06L400.46 118.196ZM403.131 136H387.963V140H403.131V136ZM389.962 138.073L390.634 119.737L386.636 119.591L385.964 137.927L389.962 138.073ZM390.634 119.619L390.058 93.9871L386.06 94.0769L386.636 119.709L390.634 119.619ZM388.217 96.0257L402.713 94.8737L402.397 90.8863L387.901 92.0383L388.217 96.0257ZM400.555 92.88V99.504H404.555V92.88H400.555ZM402.555 101.504H403.131V97.504H402.555V101.504ZM404.504 100.958C407.763 97.8802 411.354 95.7031 415.283 94.3934L414.019 90.5986C409.5 92.1049 405.411 94.5998 401.758 98.05L404.504 100.958ZM414.651 94.496C419.169 94.496 422.261 95.5516 424.259 97.3445L426.931 94.3675C423.937 91.6804 419.733 90.496 414.651 90.496V94.496ZM424.3 97.3799C426.305 99.0842 427.396 101.59 427.339 105.233L431.339 105.295C431.41 100.746 430.005 96.9798 426.89 94.3321L424.3 97.3799ZM427.34 105.204L426.956 118.068L430.954 118.188L431.338 105.324L427.34 105.204ZM426.956 118.186L427.532 138.058L431.53 137.942L430.954 118.07L426.956 118.186ZM429.531 136H414.363V140H429.531V136ZM416.362 138.057L417.13 111.273L413.132 111.159L412.364 137.943L416.362 138.057ZM484.989 105.264L483.349 104.12L482.563 105.246L483.332 106.384L484.989 105.264ZM507.165 134.736L509.153 134.957L509.246 134.115L508.706 133.461L507.165 134.736ZM506.973 136.464L507.441 138.409L508.806 138.08L508.961 136.685L506.973 136.464ZM491.613 139.056L490.682 140.826L491.212 141.105L491.81 141.046L491.613 139.056ZM489.789 138.096L488.138 139.224L488.418 139.634L488.858 139.866L489.789 138.096ZM470.109 107.472L471.832 106.456L468.237 100.362L468.109 107.436L470.109 107.472ZM469.917 118.128L467.917 118.092L467.916 118.139L467.918 118.186L469.917 118.128ZM470.493 138V140H472.552L472.492 137.942L470.493 138ZM454.941 138L452.943 137.916L452.855 140H454.941V138ZM455.709 119.664L457.707 119.748L457.71 119.688L457.709 119.629L455.709 119.664ZM454.941 76.08V74.08H452.905L452.941 76.1152L454.941 76.08ZM470.685 76.08L472.685 76.1147L472.72 74.08H470.685V76.08ZM470.205 103.728L468.205 103.693L468.092 110.203L471.84 104.879L470.205 103.728ZM485.277 82.32L486.912 83.4713L486.974 83.3832L487.027 83.289L485.277 82.32ZM488.733 76.08V74.08H487.554L486.983 75.111L488.733 76.08ZM505.341 76.08L506.981 77.224L509.174 74.08H505.341V76.08ZM483.332 106.384C489.9 116.107 497.331 125.982 505.624 136.011L508.706 133.461C500.487 123.522 493.134 113.749 486.646 104.144L483.332 106.384ZM505.177 134.515L504.985 136.243L508.961 136.685L509.153 134.957L505.177 134.515ZM506.505 134.519C501.539 135.714 496.509 136.563 491.416 137.066L491.81 141.046C497.085 140.525 502.295 139.646 507.441 138.409L506.505 134.519ZM492.544 137.286L490.72 136.326L488.858 139.866L490.682 140.826L492.544 137.286ZM491.44 136.968C483.585 125.472 477.051 115.303 471.832 106.456L468.386 108.488C473.663 117.433 480.249 127.68 488.138 139.224L491.44 136.968ZM468.109 107.436L467.917 118.092L471.917 118.164L472.109 107.508L468.109 107.436ZM467.918 118.186L468.494 138.058L472.492 137.942L471.916 118.07L467.918 118.186ZM470.493 136H454.941V140H470.493V136ZM456.939 138.084L457.707 119.748L453.711 119.58L452.943 137.916L456.939 138.084ZM457.709 119.629L456.941 76.0448L452.941 76.1152L453.709 119.699L457.709 119.629ZM454.941 78.08H470.685V74.08H454.941V78.08ZM468.685 76.0453L468.205 103.693L472.205 103.763L472.685 76.1147L468.685 76.0453ZM471.84 104.879L486.912 83.4713L483.642 81.1686L468.57 102.577L471.84 104.879ZM487.027 83.289L490.483 77.049L486.983 75.111L483.527 81.351L487.027 83.289ZM488.733 78.08H505.341V74.08H488.733V78.08ZM503.701 74.936L483.349 104.12L486.629 106.408L506.981 77.224L503.701 74.936ZM537.747 138L535.748 137.936L535.681 140H537.747V138ZM538.611 111.216L540.61 111.28L540.611 111.248V111.216H538.611ZM525.939 107.472L524.795 105.832L523.958 106.416L523.939 107.436L525.939 107.472ZM525.747 118.128L523.747 118.092L523.746 118.144L523.748 118.196L525.747 118.128ZM526.419 138V140H528.488L528.418 137.932L526.419 138ZM511.251 138L509.253 137.917L509.166 140H511.251V138ZM512.019 119.568L514.017 119.651L514.02 119.598L514.019 119.544L512.019 119.568ZM511.443 71.664L511.303 69.6689L509.42 69.8008L509.443 71.688L511.443 71.664ZM526.515 70.608L528.515 70.6412L528.551 68.4604L526.375 68.6129L526.515 70.608ZM526.035 99.504L524.035 99.4708L524.002 101.504H526.035V99.504ZM526.611 99.504V101.504H527.407L527.985 100.957L526.611 99.504ZM538.035 92.496V90.496H537.715L537.411 90.5957L538.035 92.496ZM549.075 95.856L547.739 97.3445L547.759 97.3625L547.78 97.3799L549.075 95.856ZM552.723 105.264L550.724 105.202L550.724 105.21L550.724 105.219L552.723 105.264ZM552.435 118.128L550.436 118.083L550.434 118.135L550.436 118.186L552.435 118.128ZM553.011 138V140H555.07L555.01 137.942L553.011 138ZM539.746 138.064L540.61 111.28L536.612 111.152L535.748 137.936L539.746 138.064ZM540.611 111.216C540.611 108.789 540.127 106.598 538.82 104.988C537.448 103.297 535.459 102.592 533.235 102.592V106.592C534.595 106.592 535.294 106.991 535.714 107.508C536.199 108.106 536.611 109.227 536.611 111.216H540.611ZM533.235 102.592C530.537 102.592 527.7 103.805 524.795 105.832L527.083 109.112C529.682 107.299 531.709 106.592 533.235 106.592V102.592ZM523.939 107.436L523.747 118.092L527.747 118.164L527.939 107.508L523.939 107.436ZM523.748 118.196L524.42 138.068L528.418 137.932L527.746 118.06L523.748 118.196ZM526.419 136H511.251V140H526.419V136ZM513.249 138.083L514.017 119.651L510.021 119.485L509.253 137.917L513.249 138.083ZM514.019 119.544L513.443 71.6399L509.443 71.688L510.019 119.592L514.019 119.544ZM511.583 73.6591L526.655 72.6031L526.375 68.6129L511.303 69.6689L511.583 73.6591ZM524.515 70.5748L524.035 99.4708L528.035 99.5372L528.515 70.6412L524.515 70.5748ZM526.035 101.504H526.611V97.504H526.035V101.504ZM527.985 100.957C531.317 97.8066 534.875 95.6376 538.659 94.3963L537.411 90.5957C533.003 92.0424 528.945 94.5454 525.237 98.0507L527.985 100.957ZM538.035 94.496C542.625 94.496 545.746 95.5554 547.739 97.3445L550.411 94.3675C547.412 91.6766 543.173 90.496 538.035 90.496V94.496ZM547.78 97.3799C549.774 99.075 550.838 101.566 550.724 105.202L554.722 105.326C554.864 100.77 553.496 96.989 550.37 94.3321L547.78 97.3799ZM550.724 105.219L550.436 118.083L554.435 118.173L554.723 105.309L550.724 105.219ZM550.436 118.186L551.012 138.058L555.01 137.942L554.434 118.07L550.436 118.186ZM553.011 136H537.747V140H553.011V136ZM563.671 119.664L565.669 119.737L565.671 119.682L565.67 119.627L563.671 119.664ZM563.191 94.032L563.038 92.0378L561.156 92.1817L561.191 94.0694L563.191 94.032ZM578.263 92.88L580.262 92.9332L580.321 90.7168L578.11 90.8858L578.263 92.88ZM577.591 118.128L575.591 118.075L575.59 118.13L575.592 118.186L577.591 118.128ZM578.167 138V140H580.226L580.166 137.942L578.167 138ZM562.999 138L561 137.927L560.924 140H562.999V138ZM576.439 72.048L574.99 73.4273L575.007 73.445L575.025 73.4622L576.439 72.048ZM576.247 83.76L577.661 85.1742L577.676 85.1592L577.691 85.1438L576.247 83.76ZM564.823 83.952L563.374 85.3313L563.374 85.3313L564.823 83.952ZM565.015 72.336L563.571 70.9522L563.569 70.9536L565.015 72.336ZM565.67 119.627L565.19 93.9946L561.191 94.0694L561.671 119.701L565.67 119.627ZM563.343 96.0262L578.415 94.8742L578.11 90.8858L563.038 92.0378L563.343 96.0262ZM576.263 92.8268L575.591 118.075L579.59 118.181L580.262 92.9332L576.263 92.8268ZM575.592 118.186L576.168 138.058L580.166 137.942L579.59 118.07L575.592 118.186ZM578.167 136H562.999V140H578.167V136ZM564.997 138.073L565.669 119.737L561.672 119.591L561 137.927L564.997 138.073ZM570.967 72.032C572.947 72.032 574.185 72.5821 574.99 73.4273L577.887 70.6687C576.132 68.8259 573.722 68.032 570.967 68.032V72.032ZM575.025 73.4622C575.906 74.3437 576.455 75.6405 576.455 77.616H580.455C580.455 74.8555 579.659 72.4403 577.853 70.6338L575.025 73.4622ZM576.455 77.616C576.455 79.7717 575.848 81.2859 574.803 82.3762L577.691 85.1438C579.59 83.1621 580.455 80.5803 580.455 77.616H576.455ZM574.833 82.3458C573.799 83.3797 572.389 83.968 570.391 83.968V87.968C573.257 87.968 575.751 87.0843 577.661 85.1742L574.833 82.3458ZM570.391 83.968C568.328 83.968 567.066 83.4077 566.271 82.5727L563.374 85.3313C565.139 87.1843 567.589 87.968 570.391 87.968V83.968ZM566.271 82.5727C565.444 81.7047 564.903 80.3709 564.903 78.288H560.903C560.903 81.0691 561.641 83.5113 563.374 85.3313L566.271 82.5727ZM564.903 78.288C564.903 76.1845 565.485 74.7382 566.46 73.7184L563.569 70.9536C561.729 72.8778 560.903 75.3995 560.903 78.288H564.903ZM566.459 73.7198C567.488 72.6458 568.913 72.032 570.967 72.032V68.032C568.028 68.032 565.485 68.9542 563.571 70.9522L566.459 73.7198ZM615.077 125.424L616.552 124.073L615.582 123.015L614.27 123.594L615.077 125.424ZM616.133 126.576L618.107 126.901L618.265 125.942L617.608 125.225L616.133 126.576ZM614.693 135.312L615.67 137.057L616.51 136.587L616.667 135.637L614.693 135.312ZM604.709 138.672L604.6 140.669L604.784 140.679L604.966 140.655L604.709 138.672ZM594.053 135.024L592.698 136.495L592.709 136.505L592.72 136.514L594.053 135.024ZM590.405 125.904L588.408 125.794L588.405 125.849V125.904H590.405ZM590.885 117.168L592.882 117.278L592.886 117.216L592.885 117.155L590.885 117.168ZM590.789 102.48L592.789 102.467L592.776 100.48H590.789V102.48ZM584.837 102.48L583.141 103.54L583.729 104.48H584.837V102.48ZM584.357 101.712L582.364 101.55L582.31 102.21L582.661 102.772L584.357 101.712ZM585.029 93.456V91.456H583.185L583.036 93.2937L585.029 93.456ZM590.693 93.456V95.456H592.693V93.456H590.693ZM590.693 85.776L590.125 83.8585L588.693 84.283V85.776H590.693ZM604.613 81.648L605.959 80.1681L605.125 79.4102L604.045 79.7305L604.613 81.648ZM605.669 82.608L607.668 82.6788L607.701 81.7519L607.015 81.1281L605.669 82.608ZM605.285 93.456L603.287 93.3852L603.213 95.456H605.285V93.456ZM615.845 93.456L617.594 92.4847L617.022 91.456H615.845V93.456ZM616.325 94.32L618.319 94.4841L618.368 93.8793L618.074 93.3487L616.325 94.32ZM615.653 102.48V104.48H617.495L617.647 102.644L615.653 102.48ZM604.997 102.48V100.48H603.056L602.998 102.421L604.997 102.48ZM604.421 121.872L602.422 121.813L602.421 121.842V121.872H604.421ZM605.381 125.808L603.845 127.088L603.903 127.158L603.967 127.222L605.381 125.808ZM608.933 128.864C611.189 128.864 613.513 128.3 615.885 127.254L614.27 123.594C612.289 124.468 610.517 124.864 608.933 124.864V128.864ZM613.603 126.775L614.659 127.927L617.608 125.225L616.552 124.073L613.603 126.775ZM614.16 126.251L612.72 134.987L616.667 135.637L618.107 126.901L614.16 126.251ZM613.716 133.567C610.727 135.241 607.642 136.275 604.452 136.689L604.966 140.655C608.689 140.173 612.26 138.967 615.67 137.057L613.716 133.567ZM604.819 136.675C600.409 136.433 597.36 135.299 595.387 133.534L592.72 136.514C595.61 139.101 599.666 140.399 604.6 140.669L604.819 136.675ZM595.408 133.553C593.455 131.754 592.405 129.284 592.405 125.904H588.405C588.405 130.204 589.788 133.814 592.698 136.495L595.408 133.553ZM592.402 126.014L592.882 117.278L588.888 117.058L588.408 125.794L592.402 126.014ZM592.885 117.155L592.789 102.467L588.789 102.493L588.885 117.181L592.885 117.155ZM590.789 100.48H584.837V104.48H590.789V100.48ZM586.533 101.42L586.053 100.652L582.661 102.772L583.141 103.54L586.533 101.42ZM586.351 101.874L587.023 93.6183L583.036 93.2937L582.364 101.55L586.351 101.874ZM585.029 95.456H590.693V91.456H585.029V95.456ZM592.693 93.456V85.776H588.693V93.456H592.693ZM591.262 87.6935L605.182 83.5655L604.045 79.7305L590.125 83.8585L591.262 87.6935ZM603.268 83.1279L604.324 84.0879L607.015 81.1281L605.959 80.1681L603.268 83.1279ZM603.671 82.5372L603.287 93.3852L607.284 93.5268L607.668 82.6788L603.671 82.5372ZM605.285 95.456H615.845V91.456H605.285V95.456ZM614.097 94.4273L614.577 95.2913L618.074 93.3487L617.594 92.4847L614.097 94.4273ZM614.332 94.1558L613.66 102.316L617.647 102.644L618.319 94.4841L614.332 94.1558ZM615.653 100.48H604.997V104.48H615.653V100.48ZM602.998 102.421L602.422 121.813L606.42 121.931L606.996 102.539L602.998 102.421ZM602.421 121.872C602.421 123.844 602.739 125.761 603.845 127.088L606.918 124.528C606.744 124.319 606.421 123.612 606.421 121.872H602.421ZM603.967 127.222C605.231 128.486 607.075 128.864 608.933 128.864V124.864C607.463 124.864 606.94 124.538 606.795 124.394L603.967 127.222ZM651.332 93.168H653.332V91.3779L651.553 91.1802L651.332 93.168ZM651.332 107.088L651.929 108.997L653.332 108.558V107.088H651.332ZM649.796 107.568L648.902 109.357L649.623 109.717L650.393 109.477L649.796 107.568ZM636.74 112.464L635.16 111.238L634.74 111.779V112.464H636.74ZM636.74 118.128H634.74V118.162L634.741 118.196L636.74 118.128ZM637.412 138V140H639.481L639.411 137.932L637.412 138ZM622.244 138L620.246 137.916L620.159 140H622.244V138ZM623.012 119.664L625.01 119.748L625.013 119.68L625.012 119.612L623.012 119.664ZM622.34 94.032L622.182 92.0383L620.291 92.1885L620.341 94.0844L622.34 94.032ZM636.836 92.88H638.836V90.7148L636.678 90.8863L636.836 92.88ZM636.836 101.52H634.836V103.52H636.836V101.52ZM637.508 101.52V103.52H638.714L639.277 102.454L637.508 101.52ZM649.028 94.976C649.283 94.976 649.94 95.0257 651.111 95.1558L651.553 91.1802C650.42 91.0543 649.542 90.976 649.028 90.976V94.976ZM649.332 93.168V107.088H653.332V93.168H649.332ZM650.736 105.179L649.2 105.659L650.393 109.477L651.929 108.997L650.736 105.179ZM650.691 105.779C649.418 105.143 647.892 104.896 646.244 104.896V108.896C647.54 108.896 648.383 109.097 648.902 109.357L650.691 105.779ZM646.244 104.896C641.966 104.896 638.273 107.226 635.16 111.238L638.32 113.69C640.967 110.278 643.61 108.896 646.244 108.896V104.896ZM634.74 112.464V118.128H638.74V112.464H634.74ZM634.741 118.196L635.413 138.068L639.411 137.932L638.739 118.06L634.741 118.196ZM637.412 136H622.244V140H637.412V136ZM624.242 138.084L625.01 119.748L621.014 119.58L620.246 137.916L624.242 138.084ZM625.012 119.612L624.34 93.9796L620.341 94.0844L621.013 119.716L625.012 119.612ZM622.499 96.0257L636.995 94.8737L636.678 90.8863L622.182 92.0383L622.499 96.0257ZM634.836 92.88V101.52H638.836V92.88H634.836ZM636.836 103.52H637.508V99.52H636.836V103.52ZM639.277 102.454C642.088 97.1298 645.372 94.976 649.028 94.976V90.976C643.341 90.976 638.944 94.5182 635.74 100.586L639.277 102.454ZM691.592 97.872L690.118 99.2234L690.124 99.2301L690.13 99.2366L691.592 97.872ZM691.208 132.816L689.739 131.459L689.733 131.466L689.727 131.472L691.208 132.816ZM659.144 133.296L657.67 134.647L657.676 134.654L657.682 134.661L659.144 133.296ZM659.528 98.448L658.048 97.1027L658.047 97.1038L659.528 98.448ZM669.608 104.976L667.916 103.91L667.91 103.919L667.905 103.928L669.608 104.976ZM668.744 123.024L666.783 123.416L666.79 123.449L666.797 123.482L668.744 123.024ZM671.144 127.728L669.821 129.228L669.867 129.269L669.916 129.307L671.144 127.728ZM681.032 126.576L679.34 125.51L679.334 125.519L679.329 125.528L681.032 126.576ZM680.936 105.744L679.137 106.618L679.152 106.649L679.169 106.68L680.936 105.744ZM676.136 94.112C682.539 94.112 687.083 95.9124 690.118 99.2234L693.067 96.5205C689.062 92.1516 683.302 90.112 676.136 90.112V94.112ZM690.13 99.2366C693.251 102.58 694.968 107.615 694.968 114.672H698.968C698.968 107.009 697.102 100.844 693.054 96.5074L690.13 99.2366ZM694.968 114.672C694.968 122.308 693.121 127.795 689.739 131.459L692.678 134.173C696.975 129.517 698.968 122.908 698.968 114.672H694.968ZM689.727 131.472C686.432 135.102 681.536 137.056 674.696 137.056V141.056C682.32 141.056 688.432 138.85 692.689 134.16L689.727 131.472ZM674.696 137.056C668.296 137.056 663.71 135.256 660.606 131.931L657.682 134.661C661.747 139.016 667.529 141.056 674.696 141.056V137.056ZM660.619 131.945C657.551 128.599 655.864 123.588 655.864 116.592H651.864C651.864 124.188 653.697 130.313 657.67 134.647L660.619 131.945ZM655.864 116.592C655.864 108.949 657.683 103.457 661.009 99.7922L658.047 97.1038C653.822 101.759 651.864 108.363 651.864 116.592H655.864ZM661.008 99.7933C664.373 96.0919 669.307 94.112 676.136 94.112V90.112C668.501 90.112 662.363 92.3561 658.048 97.1027L661.008 99.7933ZM675.08 100.384C672.033 100.384 669.465 101.45 667.916 103.91L671.301 106.042C671.928 105.046 673.008 104.384 675.08 104.384V100.384ZM667.905 103.928C666.564 106.106 666.072 109.553 666.072 113.808H670.072C670.072 109.615 670.604 107.174 671.312 106.024L667.905 103.928ZM666.072 113.808C666.072 117.765 666.297 120.988 666.783 123.416L670.705 122.632C670.295 120.58 670.072 117.659 670.072 113.808H666.072ZM666.797 123.482C667.356 125.858 668.295 127.882 669.821 129.228L672.467 126.228C671.817 125.654 671.156 124.542 670.691 122.566L666.797 123.482ZM669.916 129.307C671.516 130.551 673.528 131.072 675.752 131.072V127.072C674.136 127.072 673.076 126.697 672.372 126.149L669.916 129.307ZM675.752 131.072C678.723 131.072 681.245 130.046 682.736 127.624L679.329 125.528C678.771 126.434 677.774 127.072 675.752 127.072V131.072ZM682.725 127.642C684.138 125.398 684.664 121.884 684.664 117.552H680.664C680.664 121.796 680.103 124.298 679.34 125.51L682.725 127.642ZM684.664 117.552C684.664 111.852 684.11 107.463 682.704 104.808L679.169 106.68C680.067 108.377 680.664 111.86 680.664 117.552H684.664ZM682.735 104.87C682.035 103.429 681.013 102.27 679.652 101.489C678.305 100.717 676.751 100.384 675.08 100.384V104.384C676.226 104.384 677.055 104.611 677.661 104.959C678.252 105.298 678.749 105.819 679.137 106.618L682.735 104.87ZM714.188 100.848L712.212 101.154L712.223 101.229L712.241 101.302L714.188 100.848ZM719.564 123.888L717.617 124.342L717.977 125.888H719.564V123.888ZM720.332 123.888V125.888H721.828L722.251 124.453L720.332 123.888ZM726.86 101.712L728.779 102.277L728.807 102.181L728.826 102.083L726.86 101.712ZM728.492 93.072V91.072H726.835L726.527 92.7008L728.492 93.072ZM741.74 93.072L743.646 93.6787L744.476 91.072H741.74V93.072ZM727.436 138V140H728.898L729.342 138.607L727.436 138ZM710.924 138L708.994 138.523L709.394 140H710.924V138ZM698.828 93.36L698.747 91.3617L696.242 91.4639L696.898 93.8831L698.828 93.36ZM712.94 92.784L714.917 92.4781L714.644 90.7128L712.859 90.7857L712.94 92.784ZM712.241 101.302L717.617 124.342L721.512 123.434L716.136 100.394L712.241 101.302ZM719.564 125.888H720.332V121.888H719.564V125.888ZM722.251 124.453L728.779 102.277L724.942 101.147L718.414 123.323L722.251 124.453ZM728.826 102.083L730.457 93.4432L726.527 92.7008L724.895 101.341L728.826 102.083ZM728.492 95.072H741.74V91.072H728.492V95.072ZM739.835 92.4653L725.531 137.393L729.342 138.607L743.646 93.6787L739.835 92.4653ZM727.436 136H710.924V140H727.436V136ZM712.855 137.477L700.759 92.8369L696.898 93.8831L708.994 138.523L712.855 137.477ZM698.91 95.3583L713.022 94.7823L712.859 90.7857L698.747 91.3617L698.91 95.3583ZM710.964 93.0899L712.212 101.154L716.165 100.542L714.917 92.4781L710.964 93.0899Z" fill="#333333"/>
<path d="M12.07 195.808C14.3367 195.808 16.0593 196.307 17.238 197.304C18.4393 198.301 19.04 199.752 19.04 201.656C19.04 203.968 18.19 205.77 16.49 207.062C14.8127 208.354 12.4667 209 9.452 209H2.89L3.128 202.506L2.89 187.104H17.918L18.156 187.478L17.884 190.844L12.376 190.708H7.48L7.412 195.808H12.07ZM10.71 205.872C11.8433 205.691 12.7047 205.294 13.294 204.682C13.906 204.047 14.212 203.231 14.212 202.234C14.212 201.191 13.8947 200.398 13.26 199.854C12.648 199.287 11.7527 199.015 10.574 199.038L7.344 199.106L7.31 202.064L7.412 205.702L10.71 205.872ZM25.2495 195.604L28.0715 204.444H28.3435L31.1655 195.978L31.7435 193.19H35.6195L30.4515 207.946C29.9075 209.487 29.2955 210.723 28.6155 211.652C27.9355 212.604 27.0855 213.375 26.0655 213.964C25.0455 214.576 23.7308 215.097 22.1215 215.528L21.7815 215.494C21.0108 214.746 20.3762 213.862 19.8775 212.842L20.0135 212.4C21.4415 212.151 22.6202 211.777 23.5495 211.278C24.4788 210.802 25.3628 210.043 26.2015 209L20.4215 193.292L24.7055 193.088L25.2495 195.604ZM38.8886 193.224H43.3766L44.0566 195.536L46.3006 202.37H46.5386L48.9866 195.604L49.7346 193.224H54.1546L55.5486 209H51.9786L51.8086 204.104L51.3666 198.936H51.0946L47.6946 207.402H44.7026L41.6766 198.936H41.4386L40.9286 203.628L40.5546 209H37.1886L38.8886 193.224ZM65.3366 192.884C67.0819 192.884 68.4419 193.281 69.4166 194.074C70.4139 194.845 70.9126 195.933 70.9126 197.338C70.9126 197.746 70.8446 199.038 70.7086 201.214C70.6859 201.849 70.6519 202.506 70.6066 203.186C70.5612 203.843 70.5386 204.41 70.5386 204.886C70.5386 205.271 70.5952 205.543 70.7086 205.702C70.8219 205.838 71.0259 205.906 71.3206 205.906C71.5472 205.906 71.8419 205.861 72.2046 205.77L72.5446 206.042L72.1366 208.422C71.4112 208.898 70.5839 209.181 69.6546 209.272C68.9746 209.204 68.4079 208.966 67.9546 208.558C67.5012 208.127 67.1952 207.538 67.0366 206.79H66.7986C65.6652 207.991 64.4979 208.83 63.2966 209.306C61.6646 209.283 60.3839 208.853 59.4546 208.014C58.5252 207.175 58.0606 206.031 58.0606 204.58C58.0606 203.447 58.3439 202.563 58.9106 201.928C59.4999 201.271 60.3839 200.829 61.5626 200.602L66.7646 199.616V198.222C66.7646 196.749 66.0392 196.012 64.5886 196.012C63.8859 196.012 63.1379 196.171 62.3446 196.488C61.5739 196.805 60.7012 197.304 59.7266 197.984L59.3866 197.78L58.8766 194.788C59.8512 194.176 60.8939 193.711 62.0046 193.394C63.1152 193.054 64.2259 192.884 65.3366 192.884ZM63.1266 202.676C62.7639 202.767 62.4919 202.925 62.3106 203.152C62.1519 203.356 62.0726 203.673 62.0726 204.104C62.0726 204.693 62.2312 205.158 62.5486 205.498C62.8659 205.815 63.3079 205.974 63.8746 205.974C64.7586 205.974 65.6879 205.453 66.6626 204.41L66.7306 201.894L63.1266 202.676ZM91.7081 200.33C93.2041 202.687 95.0174 205.328 97.1481 208.252L97.1141 208.728C96.2981 208.909 95.4481 209.045 94.5641 209.136C93.6801 209.249 93.1474 209.317 92.9661 209.34L92.4901 209.136C90.4954 206.257 88.8181 203.515 87.4581 200.908L87.4241 202.03L87.5941 209H83.1061L83.3101 202.472L83.2761 200.806C81.8708 203.503 80.1821 206.28 78.2101 209.136L77.7001 209.34C77.4961 209.317 76.9521 209.249 76.0681 209.136C75.1841 209.045 74.3568 208.909 73.5861 208.728L73.5521 208.252C75.6828 205.328 77.4961 202.687 78.9921 200.33L73.8921 193.19H78.5841L79.3661 194.822L83.2761 200.364L83.1401 193.19H87.5941L87.4581 200.296L91.3001 194.822L92.1161 193.19H96.8081L91.7081 200.33ZM113.805 202.03L113.975 209H109.487L109.691 202.812L106.733 202.778L103.979 202.846L104.149 209H99.6272L99.8652 202.472L99.6952 193.19H104.149L104.013 199.446L106.937 199.48H109.657L109.555 193.19H113.975L113.805 202.03ZM136.922 202.03L137.126 209H132.604L132.842 202.472L132.672 193.496L137.126 193.122L136.922 202.03ZM125.804 198.97C127.481 198.97 128.762 199.344 129.646 200.092C130.552 200.817 131.006 201.883 131.006 203.288C131.006 205.079 130.371 206.484 129.102 207.504C127.832 208.501 126.076 209 123.832 209H118.188L118.426 202.472L118.256 193.19H122.71L122.574 198.97H125.804ZM124.784 206.28C125.396 206.144 125.872 205.861 126.212 205.43C126.552 204.977 126.722 204.433 126.722 203.798C126.722 203.118 126.529 202.585 126.144 202.2C125.758 201.792 125.226 201.599 124.546 201.622L122.506 201.656V202.03L122.642 206.178L124.784 206.28ZM153.498 201.656L144.318 201.724C144.522 204.557 145.962 205.974 148.636 205.974C150.042 205.974 151.606 205.577 153.328 204.784L153.702 205.022L153.022 208.388C151.3 209.023 149.679 209.34 148.16 209.34C145.667 209.34 143.706 208.615 142.278 207.164C140.873 205.713 140.17 203.707 140.17 201.146C140.17 198.607 140.862 196.601 142.244 195.128C143.627 193.632 145.497 192.884 147.854 192.884C149.872 192.884 151.424 193.439 152.512 194.55C153.623 195.638 154.178 197.168 154.178 199.14C154.178 199.661 154.122 200.319 154.008 201.112L153.498 201.656ZM150.234 198.63C150.234 197.723 150.03 197.043 149.622 196.59C149.214 196.114 148.614 195.876 147.82 195.876C146.936 195.876 146.2 196.171 145.61 196.76C145.021 197.327 144.624 198.154 144.42 199.242L150.166 199.106L150.234 198.63ZM168.971 192.884C169.719 192.884 170.455 192.963 171.181 193.122C171.929 193.258 172.586 193.462 173.153 193.734L172.405 197.338L172.031 197.508C170.875 196.873 169.843 196.556 168.937 196.556C167.894 196.556 167.089 196.93 166.523 197.678C165.956 198.426 165.673 199.491 165.673 200.874C165.673 202.461 165.979 203.673 166.591 204.512C167.203 205.351 168.075 205.77 169.209 205.77C170.229 205.77 171.362 205.487 172.609 204.92L172.949 205.192L172.507 208.694C171.147 209.125 169.753 209.34 168.325 209.34C166.149 209.34 164.449 208.637 163.225 207.232C162.001 205.804 161.389 203.821 161.389 201.282C161.389 198.653 162.057 196.601 163.395 195.128C164.732 193.632 166.591 192.884 168.971 192.884ZM182.012 192.884C183.758 192.884 185.118 193.281 186.092 194.074C187.09 194.845 187.588 195.933 187.588 197.338C187.588 197.746 187.52 199.038 187.384 201.214C187.362 201.849 187.328 202.506 187.282 203.186C187.237 203.843 187.214 204.41 187.214 204.886C187.214 205.271 187.271 205.543 187.384 205.702C187.498 205.838 187.702 205.906 187.996 205.906C188.223 205.906 188.518 205.861 188.88 205.77L189.22 206.042L188.812 208.422C188.087 208.898 187.26 209.181 186.33 209.272C185.65 209.204 185.084 208.966 184.63 208.558C184.177 208.127 183.871 207.538 183.712 206.79H183.474C182.341 207.991 181.174 208.83 179.972 209.306C178.34 209.283 177.06 208.853 176.13 208.014C175.201 207.175 174.736 206.031 174.736 204.58C174.736 203.447 175.02 202.563 175.586 201.928C176.176 201.271 177.06 200.829 178.238 200.602L183.44 199.616V198.222C183.44 196.749 182.715 196.012 181.264 196.012C180.562 196.012 179.814 196.171 179.02 196.488C178.25 196.805 177.377 197.304 176.402 197.984L176.062 197.78L175.552 194.788C176.527 194.176 177.57 193.711 178.68 193.394C179.791 193.054 180.902 192.884 182.012 192.884ZM179.802 202.676C179.44 202.767 179.168 202.925 178.986 203.152C178.828 203.356 178.748 203.673 178.748 204.104C178.748 204.693 178.907 205.158 179.224 205.498C179.542 205.815 179.984 205.974 180.55 205.974C181.434 205.974 182.364 205.453 183.338 204.41L183.406 201.894L179.802 202.676ZM192.137 202.472L191.899 193.292L196.387 193.088L196.217 202.88H196.489L201.725 193.19H206.213L205.975 201.928L206.213 209H201.725L201.929 202.778V199.038H201.691L196.285 209H191.899L192.137 202.472ZM204.683 187.546C204.229 188.589 203.493 189.405 202.473 189.994C201.475 190.583 200.308 190.878 198.971 190.878C197.656 190.878 196.523 190.595 195.571 190.028C194.619 189.461 193.893 188.634 193.395 187.546L195.673 185.982H196.149C196.443 186.798 196.806 187.376 197.237 187.716C197.69 188.056 198.313 188.226 199.107 188.226C199.877 188.226 200.467 188.067 200.875 187.75C201.305 187.41 201.668 186.821 201.963 185.982H202.405L204.683 187.546ZM221.546 193.496L221.274 196.42L218.146 196.318H216.99L216.854 202.03L217.058 209H212.57L212.774 202.472L212.672 196.318H211.448L208.32 196.42L208.082 196.114L208.286 193.19H221.274L221.546 193.496ZM242.342 202.03L242.546 209H238.024L238.262 202.472L238.092 193.496L242.546 193.122L242.342 202.03ZM231.224 198.97C232.901 198.97 234.182 199.344 235.066 200.092C235.972 200.817 236.426 201.883 236.426 203.288C236.426 205.079 235.791 206.484 234.522 207.504C233.252 208.501 231.496 209 229.252 209H223.608L223.846 202.472L223.676 193.19H228.13L227.994 198.97H231.224ZM230.204 206.28C230.816 206.144 231.292 205.861 231.632 205.43C231.972 204.977 232.142 204.433 232.142 203.798C232.142 203.118 231.949 202.585 231.564 202.2C231.178 201.792 230.646 201.599 229.966 201.622L227.926 201.656V202.03L228.062 206.178L230.204 206.28ZM259.271 198.528V201.316L251.179 202.574L250.805 202.2V199.378L258.897 198.154L259.271 198.528ZM281.305 202.71L281.475 209H276.987L277.191 203.186L277.089 196.352H272.023L271.853 202.71L272.057 209H267.535L267.773 203.186L267.603 193.19H281.475L281.305 202.71ZM294.261 192.986C296.233 192.986 297.751 193.655 298.817 194.992C299.882 196.329 300.415 198.222 300.415 200.67C300.415 203.435 299.723 205.577 298.341 207.096C296.981 208.592 295.054 209.34 292.561 209.34C291.835 209.34 291.076 209.272 290.283 209.136L290.385 215.29H285.897L286.135 202.472L285.931 193.496L290.249 193.122L290.215 195.434H290.453C291.087 194.822 291.699 194.335 292.289 193.972C292.878 193.587 293.535 193.258 294.261 192.986ZM292.595 206.382C293.773 206.382 294.669 205.963 295.281 205.124C295.893 204.285 296.199 203.05 296.199 201.418C296.199 199.831 295.938 198.641 295.417 197.848C294.918 197.032 294.17 196.624 293.173 196.624C292.198 196.624 291.212 197.111 290.215 198.086L290.181 202.03L290.249 205.872C291.065 206.212 291.847 206.382 292.595 206.382ZM309.987 192.884C312.299 192.884 314.067 193.564 315.291 194.924C316.515 196.284 317.127 198.245 317.127 200.806C317.127 203.571 316.469 205.691 315.155 207.164C313.84 208.615 311.947 209.34 309.477 209.34C307.165 209.34 305.397 208.66 304.173 207.3C302.949 205.94 302.337 203.979 302.337 201.418C302.337 198.653 302.994 196.545 304.309 195.094C305.623 193.621 307.516 192.884 309.987 192.884ZM309.681 195.944C308.593 195.944 307.799 196.307 307.301 197.032C306.825 197.757 306.587 198.925 306.587 200.534C306.587 202.619 306.836 204.104 307.335 204.988C307.833 205.872 308.649 206.314 309.783 206.314C310.871 206.314 311.653 205.963 312.129 205.26C312.627 204.535 312.877 203.356 312.877 201.724C312.877 199.661 312.616 198.188 312.095 197.304C311.596 196.397 310.791 195.944 309.681 195.944ZM326.586 192.884C327.334 192.884 328.071 192.963 328.796 193.122C329.544 193.258 330.201 193.462 330.768 193.734L330.02 197.338L329.646 197.508C328.49 196.873 327.459 196.556 326.552 196.556C325.509 196.556 324.705 196.93 324.138 197.678C323.571 198.426 323.288 199.491 323.288 200.874C323.288 202.461 323.594 203.673 324.206 204.512C324.818 205.351 325.691 205.77 326.824 205.77C327.844 205.77 328.977 205.487 330.224 204.92L330.564 205.192L330.122 208.694C328.762 209.125 327.368 209.34 325.94 209.34C323.764 209.34 322.064 208.637 320.84 207.232C319.616 205.804 319.004 203.821 319.004 201.282C319.004 198.653 319.673 196.601 321.01 195.128C322.347 193.632 324.206 192.884 326.586 192.884ZM345.162 193.496L344.89 196.42L341.762 196.318H340.606L340.47 202.03L340.674 209H336.186L336.39 202.472L336.288 196.318H335.064L331.936 196.42L331.698 196.114L331.902 193.19H344.89L345.162 193.496ZM353.483 192.884C355.795 192.884 357.563 193.564 358.787 194.924C360.011 196.284 360.623 198.245 360.623 200.806C360.623 203.571 359.966 205.691 358.651 207.164C357.336 208.615 355.444 209.34 352.973 209.34C350.661 209.34 348.893 208.66 347.669 207.3C346.445 205.94 345.833 203.979 345.833 201.418C345.833 198.653 346.49 196.545 347.805 195.094C349.12 193.621 351.012 192.884 353.483 192.884ZM353.177 195.944C352.089 195.944 351.296 196.307 350.797 197.032C350.321 197.757 350.083 198.925 350.083 200.534C350.083 202.619 350.332 204.104 350.831 204.988C351.33 205.872 352.146 206.314 353.279 206.314C354.367 206.314 355.149 205.963 355.625 205.26C356.124 204.535 356.373 203.356 356.373 201.724C356.373 199.661 356.112 198.188 355.591 197.304C355.092 196.397 354.288 195.944 353.177 195.944ZM365.249 204.512C366.269 205.328 366.779 206.303 366.779 207.436C366.779 209.408 365.407 211.369 362.665 213.318L361.203 212.026L361.169 211.686C362.415 210.643 363.039 209.533 363.039 208.354C363.039 207.583 362.676 206.903 361.951 206.314L361.985 205.94C363.027 205.305 364.115 204.829 365.249 204.512ZM389.249 202.71L389.419 209H384.931L385.135 203.186L385.033 196.352H379.967L379.797 202.71L380.001 209H375.479L375.717 203.186L375.547 193.19H389.419L389.249 202.71ZM400.266 192.884C402.578 192.884 404.346 193.564 405.57 194.924C406.794 196.284 407.406 198.245 407.406 200.806C407.406 203.571 406.749 205.691 405.434 207.164C404.119 208.615 402.227 209.34 399.756 209.34C397.444 209.34 395.676 208.66 394.452 207.3C393.228 205.94 392.616 203.979 392.616 201.418C392.616 198.653 393.273 196.545 394.588 195.094C395.903 193.621 397.795 192.884 400.266 192.884ZM399.96 195.944C398.872 195.944 398.079 196.307 397.58 197.032C397.104 197.757 396.866 198.925 396.866 200.534C396.866 202.619 397.115 204.104 397.614 204.988C398.113 205.872 398.929 206.314 400.062 206.314C401.15 206.314 401.932 205.963 402.408 205.26C402.907 204.535 403.156 203.356 403.156 201.724C403.156 199.661 402.895 198.188 402.374 197.304C401.875 196.397 401.071 195.944 399.96 195.944ZM424.52 202.03L424.69 209H420.202L420.406 202.812L417.448 202.778L414.694 202.846L414.864 209H410.342L410.58 202.472L410.41 193.19H414.864L414.728 199.446L417.652 199.48H420.372L420.27 193.19H424.69L424.52 202.03ZM441.002 202.03L441.172 209H436.956L437.092 203.696H434.746C433.975 205.305 433.034 207.051 431.924 208.932L431.55 209.238C429.827 209.17 428.501 208.921 427.572 208.49L427.504 208.048C429 206.325 430.337 204.637 431.516 202.982C430.45 202.529 429.68 201.951 429.204 201.248C428.728 200.523 428.49 199.582 428.49 198.426C428.49 197.406 428.75 196.499 429.272 195.706C429.793 194.913 430.53 194.289 431.482 193.836C432.434 193.383 433.51 193.156 434.712 193.156L441.206 193.19L441.002 202.03ZM435.154 195.944C434.36 195.967 433.748 196.193 433.318 196.624C432.91 197.032 432.706 197.621 432.706 198.392C432.706 199.888 433.454 200.817 434.95 201.18L437.126 201.044V196.046L435.154 195.944ZM456.591 193.496L456.319 196.42L453.191 196.318H452.035L451.899 202.03L452.103 209H447.615L447.819 202.472L447.717 196.318H446.493L443.365 196.42L443.127 196.114L443.331 193.19H456.319L456.591 193.496ZM472.831 202.03L473.001 209H468.513L468.717 202.812L465.759 202.778L463.005 202.846L463.175 209H458.653L458.891 202.472L458.721 193.19H463.175L463.039 199.446L465.963 199.48H468.683L468.581 193.19H473.001L472.831 202.03ZM483.838 192.884C486.15 192.884 487.918 193.564 489.142 194.924C490.366 196.284 490.978 198.245 490.978 200.806C490.978 203.571 490.321 205.691 489.006 207.164C487.692 208.615 485.799 209.34 483.328 209.34C481.016 209.34 479.248 208.66 478.024 207.3C476.8 205.94 476.188 203.979 476.188 201.418C476.188 198.653 476.846 196.545 478.16 195.094C479.475 193.621 481.368 192.884 483.838 192.884ZM483.532 195.944C482.444 195.944 481.651 196.307 481.152 197.032C480.676 197.757 480.438 198.925 480.438 200.534C480.438 202.619 480.688 204.104 481.186 204.988C481.685 205.872 482.501 206.314 483.634 206.314C484.722 206.314 485.504 205.963 485.98 205.26C486.479 204.535 486.728 203.356 486.728 201.724C486.728 199.661 486.468 198.188 485.946 197.304C485.448 196.397 484.643 195.944 483.532 195.944ZM499.498 202.472L499.26 193.292L503.748 193.088L503.578 202.88H503.85L509.086 193.19H513.574L513.336 201.928L513.574 209H509.086L509.29 202.778V199.038H509.052L503.646 209H499.26L499.498 202.472ZM529.391 192.884C530.139 192.884 530.875 192.963 531.601 193.122C532.349 193.258 533.006 193.462 533.573 193.734L532.825 197.338L532.451 197.508C531.295 196.873 530.263 196.556 529.357 196.556C528.314 196.556 527.509 196.93 526.943 197.678C526.376 198.426 526.093 199.491 526.093 200.874C526.093 202.461 526.399 203.673 527.011 204.512C527.623 205.351 528.495 205.77 529.629 205.77C530.649 205.77 531.782 205.487 533.029 204.92L533.369 205.192L532.927 208.694C531.567 209.125 530.173 209.34 528.745 209.34C526.569 209.34 524.869 208.637 523.645 207.232C522.421 205.804 521.809 203.821 521.809 201.282C521.809 198.653 522.477 196.601 523.815 195.128C525.152 193.632 527.011 192.884 529.391 192.884ZM545.11 192.986C547.082 192.986 548.601 193.655 549.666 194.992C550.732 196.329 551.264 198.222 551.264 200.67C551.264 203.435 550.573 205.577 549.19 207.096C547.83 208.592 545.904 209.34 543.41 209.34C542.685 209.34 541.926 209.272 541.132 209.136L541.234 215.29H536.746L536.984 202.472L536.78 193.496L541.098 193.122L541.064 195.434H541.302C541.937 194.822 542.549 194.335 543.138 193.972C543.728 193.587 544.385 193.258 545.11 192.986ZM543.444 206.382C544.623 206.382 545.518 205.963 546.13 205.124C546.742 204.285 547.048 203.05 547.048 201.418C547.048 199.831 546.788 198.641 546.266 197.848C545.768 197.032 545.02 196.624 544.022 196.624C543.048 196.624 542.062 197.111 541.064 198.086L541.03 202.03L541.098 205.872C541.914 206.212 542.696 206.382 543.444 206.382ZM560.428 192.884C562.174 192.884 563.534 193.281 564.508 194.074C565.506 194.845 566.004 195.933 566.004 197.338C566.004 197.746 565.936 199.038 565.8 201.214C565.778 201.849 565.744 202.506 565.698 203.186C565.653 203.843 565.63 204.41 565.63 204.886C565.63 205.271 565.687 205.543 565.8 205.702C565.914 205.838 566.118 205.906 566.412 205.906C566.639 205.906 566.934 205.861 567.296 205.77L567.636 206.042L567.228 208.422C566.503 208.898 565.676 209.181 564.746 209.272C564.066 209.204 563.5 208.966 563.046 208.558C562.593 208.127 562.287 207.538 562.128 206.79H561.89C560.757 207.991 559.59 208.83 558.388 209.306C556.756 209.283 555.476 208.853 554.546 208.014C553.617 207.175 553.152 206.031 553.152 204.58C553.152 203.447 553.436 202.563 554.002 201.928C554.592 201.271 555.476 200.829 556.654 200.602L561.856 199.616V198.222C561.856 196.749 561.131 196.012 559.68 196.012C558.978 196.012 558.23 196.171 557.436 196.488C556.666 196.805 555.793 197.304 554.818 197.984L554.478 197.78L553.968 194.788C554.943 194.176 555.986 193.711 557.096 193.394C558.207 193.054 559.318 192.884 560.428 192.884ZM558.218 202.676C557.856 202.767 557.584 202.925 557.402 203.152C557.244 203.356 557.164 203.673 557.164 204.104C557.164 204.693 557.323 205.158 557.64 205.498C557.958 205.815 558.4 205.974 558.966 205.974C559.85 205.974 560.78 205.453 561.754 204.41L561.822 201.894L558.218 202.676ZM578.297 200.84C579.362 201.135 580.144 201.577 580.643 202.166C581.164 202.755 581.425 203.526 581.425 204.478C581.425 205.997 580.801 207.175 579.555 208.014C578.331 208.853 576.597 209.272 574.353 209.272C573.423 209.272 572.528 209.193 571.667 209.034C570.828 208.898 570.114 208.694 569.525 208.422L570.239 205.158L570.545 205.022C571.043 205.294 571.633 205.509 572.313 205.668C572.993 205.827 573.661 205.906 574.319 205.906C575.248 205.906 575.985 205.747 576.529 205.43C577.073 205.113 577.345 204.671 577.345 204.104C577.345 203.311 576.846 202.778 575.849 202.506H572.075L571.837 202.234L572.109 199.48L575.543 199.514C575.905 199.355 576.189 199.129 576.393 198.834C576.597 198.517 576.699 198.165 576.699 197.78C576.699 197.281 576.506 196.93 576.121 196.726C575.758 196.499 575.157 196.386 574.319 196.386C573.14 196.386 571.791 196.624 570.273 197.1L569.899 196.93L570.205 193.666C571.519 193.213 572.936 192.986 574.455 192.986C576.472 192.986 578.036 193.349 579.147 194.074C580.257 194.799 580.813 195.819 580.813 197.134C580.813 197.973 580.586 198.709 580.133 199.344C579.702 199.979 579.09 200.477 578.297 200.84ZM587.312 195.604L590.134 204.444H590.406L593.228 195.978L593.806 193.19H597.682L592.514 207.946C591.97 209.487 591.358 210.723 590.678 211.652C589.998 212.604 589.148 213.375 588.128 213.964C587.108 214.576 585.793 215.097 584.184 215.528L583.844 215.494C583.073 214.746 582.439 213.862 581.94 212.842L582.076 212.4C583.504 212.151 584.683 211.777 585.612 211.278C586.541 210.802 587.425 210.043 588.264 209L582.484 193.292L586.768 193.088L587.312 195.604ZM618.882 202.71L619.052 209H614.564L614.768 203.186L614.666 196.352H609.6L609.43 202.71L609.634 209H605.112L605.35 203.186L605.18 193.19H619.052L618.882 202.71ZM629.899 192.884C632.211 192.884 633.979 193.564 635.203 194.924C636.427 196.284 637.039 198.245 637.039 200.806C637.039 203.571 636.382 205.691 635.067 207.164C633.752 208.615 631.86 209.34 629.389 209.34C627.077 209.34 625.309 208.66 624.085 207.3C622.861 205.94 622.249 203.979 622.249 201.418C622.249 198.653 622.906 196.545 624.221 195.094C625.536 193.621 627.428 192.884 629.899 192.884ZM629.593 195.944C628.505 195.944 627.712 196.307 627.213 197.032C626.737 197.757 626.499 198.925 626.499 200.534C626.499 202.619 626.748 204.104 627.247 204.988C627.746 205.872 628.562 206.314 629.695 206.314C630.783 206.314 631.565 205.963 632.041 205.26C632.54 204.535 632.789 203.356 632.789 201.724C632.789 199.661 632.528 198.188 632.007 197.304C631.508 196.397 630.704 195.944 629.593 195.944ZM660.519 205.77V212.91L657.629 213.148L657.085 209H646.817L646.307 212.91L643.417 213.148V205.77H644.607C645.287 205.362 645.819 204.841 646.205 204.206C646.59 203.549 646.896 202.631 647.123 201.452C647.372 200.273 647.621 198.562 647.871 196.318L648.211 193.224H658.615L658.411 202.03L658.513 205.77H660.519ZM654.399 202.472L654.297 196.148H651.373L651.271 197.032C650.999 199.548 650.67 201.463 650.285 202.778C649.899 204.093 649.367 205.09 648.687 205.77H654.297L654.399 202.472ZM675.717 201.656L666.537 201.724C666.741 204.557 668.18 205.974 670.855 205.974C672.26 205.974 673.824 205.577 675.547 204.784L675.921 205.022L675.241 208.388C673.518 209.023 671.898 209.34 670.379 209.34C667.886 209.34 665.925 208.615 664.497 207.164C663.092 205.713 662.389 203.707 662.389 201.146C662.389 198.607 663.08 196.601 664.463 195.128C665.846 193.632 667.716 192.884 670.073 192.884C672.09 192.884 673.643 193.439 674.731 194.55C675.842 195.638 676.397 197.168 676.397 199.14C676.397 199.661 676.34 200.319 676.227 201.112L675.717 201.656ZM672.453 198.63C672.453 197.723 672.249 197.043 671.841 196.59C671.433 196.114 670.832 195.876 670.039 195.876C669.155 195.876 668.418 196.171 667.829 196.76C667.24 197.327 666.843 198.154 666.639 199.242L672.385 199.106L672.453 198.63ZM692.027 202.03L692.197 209H687.709L687.913 202.472L687.811 196.182H684.955L684.853 197.066C684.468 200.285 684.048 202.744 683.595 204.444C683.164 206.144 682.62 207.368 681.963 208.116C681.306 208.841 680.422 209.261 679.311 209.374H678.291L677.645 205.906C678.461 205.657 679.096 205.226 679.549 204.614C680.002 204.002 680.376 203.073 680.671 201.826C680.966 200.557 681.238 198.721 681.487 196.318L681.827 193.258L681.793 193.19H692.231L692.027 202.03ZM698.808 195.604L701.63 204.444H701.902L704.724 195.978L705.302 193.19H709.178L704.01 207.946C703.466 209.487 702.854 210.723 702.174 211.652C701.494 212.604 700.644 213.375 699.624 213.964C698.604 214.576 697.289 215.097 695.68 215.528L695.34 215.494C694.569 214.746 693.935 213.862 693.436 212.842L693.572 212.4C695 212.151 696.179 211.777 697.108 211.278C698.037 210.802 698.921 210.043 699.76 209L693.98 193.292L698.264 193.088L698.808 195.604ZM716.425 186.9L715.167 200.942L712.617 201.282L712.141 200.84L711.869 187.104L712.277 186.594L715.881 186.356L716.425 186.9ZM713.501 204.41C714.204 204.41 714.748 204.614 715.133 205.022C715.541 205.43 715.745 205.997 715.745 206.722C715.745 207.493 715.53 208.105 715.099 208.558C714.668 209.011 714.079 209.238 713.331 209.238C712.583 209.238 712.005 209.034 711.597 208.626C711.212 208.218 711.019 207.64 711.019 206.892C711.019 206.144 711.234 205.543 711.665 205.09C712.118 204.637 712.73 204.41 713.501 204.41Z" fill="#333333"/>
<path d="M11.108 30.892L11.416 40H4.464L4.816 31.552L4.552 9.596L11.46 9.112L11.108 30.892ZM17.796 28.648C19.292 31.2293 21.4627 34.632 24.308 38.856L24.264 39.56C22.7387 39.8827 20.568 40.1907 17.752 40.484L17.048 40.132C14.7013 36.524 12.736 32.9013 11.152 29.264V28.824L15.684 21.696L16.696 19.408H23.912L17.796 28.648ZM35.1341 18.968C38.2434 18.968 40.6047 19.848 42.2181 21.608C43.8607 23.368 44.6821 25.9347 44.6821 29.308C44.6821 32.9453 43.8021 35.7173 42.0421 37.624C40.3114 39.5307 37.7887 40.484 34.4741 40.484C31.3647 40.484 28.9887 39.604 27.3461 37.844C25.7327 36.084 24.9261 33.532 24.9261 30.188C24.9261 26.5507 25.7914 23.7787 27.5221 21.872C29.2821 19.936 31.8194 18.968 35.1341 18.968ZM34.6501 23.676C33.4767 23.676 32.6407 24.072 32.1421 24.864C31.6727 25.6267 31.4381 26.976 31.4381 28.912C31.4381 30.7013 31.5407 32.1093 31.7461 33.136C31.9807 34.1333 32.3474 34.852 32.8461 35.292C33.3741 35.7027 34.0781 35.908 34.9581 35.908C36.1021 35.908 36.9087 35.5267 37.3781 34.764C37.8767 33.972 38.1261 32.5933 38.1261 30.628C38.1261 28.0173 37.8621 26.2133 37.3341 25.216C36.8354 24.1893 35.9407 23.676 34.6501 23.676ZM60.3543 27.724C60.413 25.7 59.5916 24.688 57.8903 24.688C56.8636 24.688 55.749 25.128 54.5463 26.008V30.892L54.8543 40H47.9023L48.2103 31.596L47.9463 19.848L54.5903 19.32V22.356H54.8543C56.4383 20.86 58.1983 19.7893 60.1343 19.144C62.3343 19.144 64.0063 19.6573 65.1503 20.684C66.3236 21.6813 66.8956 23.1187 66.8663 24.996L66.6903 30.892L66.9543 40H60.0023L60.3543 27.724ZM81.2172 26.096V30.408L70.7892 32.036L70.2612 31.508V27.196L80.6892 25.612L81.2172 26.096ZM91.5025 30.892L91.8105 40H84.8585L85.2105 31.552L84.9465 9.596L91.8545 9.112L91.5025 30.892ZM98.1905 28.648C99.6865 31.2293 101.857 34.632 104.703 38.856L104.659 39.56C103.133 39.8827 100.963 40.1907 98.1465 40.484L97.4425 40.132C95.0959 36.524 93.1305 32.9013 91.5465 29.264V28.824L96.0785 21.696L97.0905 19.408H104.307L98.1905 28.648ZM119.561 40L119.957 27.724C119.957 25.7 119.136 24.688 117.493 24.688C116.525 24.688 115.41 25.128 114.149 26.008L114.061 30.892L114.369 40H107.417L107.769 31.552L107.505 9.596L114.413 9.112L114.193 22.356H114.457C116.07 20.8307 117.816 19.76 119.693 19.144C121.922 19.144 123.609 19.6573 124.753 20.684C125.926 21.6813 126.484 23.1187 126.425 24.996L126.293 30.892L126.557 40H119.561ZM133.863 33.048C134.948 33.048 135.784 33.356 136.371 33.972C136.987 34.588 137.295 35.4387 137.295 36.524C137.295 37.6973 136.958 38.636 136.283 39.34C135.608 40.0147 134.714 40.352 133.599 40.352C132.484 40.352 131.634 40.044 131.047 39.428C130.46 38.812 130.167 37.9467 130.167 36.832C130.167 35.688 130.49 34.7787 131.135 34.104C131.81 33.4 132.719 33.048 133.863 33.048ZM154.302 31.075C156.238 34.085 157.988 36.6167 159.552 38.67L159.482 39.3C157.708 39.8833 155.83 40.245 153.847 40.385L153.287 39.93C151.887 37.3167 150.673 34.925 149.647 32.755H146.672L146.882 40H141.177L141.492 33.315L141.177 17.425L150.697 17.39C153.147 17.39 155.025 17.985 156.332 19.175C157.662 20.3417 158.327 22.0217 158.327 24.215C158.327 25.5917 157.977 26.875 157.277 28.065C156.577 29.255 155.585 30.2583 154.302 31.075ZM146.777 28.485L149.822 28.625C150.685 28.2983 151.315 27.82 151.712 27.19C152.132 26.56 152.342 25.7433 152.342 24.74C152.342 23.6433 152.05 22.8383 151.467 22.325C150.907 21.7883 150.02 21.4967 148.807 21.45L146.917 21.555L146.777 28.485ZM179.982 28.87L179.947 32.125C179.97 34.7617 179.154 36.7917 177.497 38.215C175.864 39.6383 173.53 40.35 170.497 40.35C167.557 40.35 165.305 39.65 163.742 38.25C162.202 36.85 161.467 34.8433 161.537 32.23L161.607 28.8L161.467 17.425H167.137L166.892 31.46C166.869 32.9533 167.172 34.05 167.802 34.75C168.432 35.45 169.412 35.8 170.742 35.8C172.095 35.8 173.087 35.4617 173.717 34.785C174.37 34.085 174.685 33.0233 174.662 31.6L174.417 17.425H180.192L179.982 28.87ZM200.526 26.096V30.408L190.098 32.036L189.57 31.508V27.196L199.998 25.612L200.526 26.096ZM214.743 22.62L217.251 34.104H217.603L220.683 22.928L221.387 19.54H227.063L227.503 22.62L230.099 34.06H230.451L233.443 22.928L234.147 19.54H239.075L232.695 40H227.195L224.071 26.844H223.675L220.023 40H214.259L208.935 19.672L214.259 19.408L214.743 22.62ZM257.094 30.496L245.214 30.584C245.478 34.2507 247.341 36.084 250.802 36.084C252.621 36.084 254.645 35.5707 256.874 34.544L257.358 34.852L256.478 39.208C254.249 40.0293 252.152 40.44 250.186 40.44C246.96 40.44 244.422 39.5013 242.574 37.624C240.756 35.7467 239.846 33.1507 239.846 29.836C239.846 26.5507 240.741 23.9547 242.53 22.048C244.32 20.112 246.74 19.144 249.79 19.144C252.401 19.144 254.41 19.8627 255.818 21.3C257.256 22.708 257.974 24.688 257.974 27.24C257.974 27.9147 257.901 28.7653 257.754 29.792L257.094 30.496ZM252.87 26.58C252.87 25.4067 252.606 24.5267 252.078 23.94C251.55 23.324 250.773 23.016 249.746 23.016C248.602 23.016 247.649 23.3973 246.886 24.16C246.124 24.8933 245.61 25.964 245.346 27.372L252.782 27.196L252.87 26.58ZM272.88 19.276C275.462 19.276 277.427 20.156 278.776 21.916C280.155 23.6467 280.844 26.0667 280.844 29.176C280.844 32.784 279.95 35.5707 278.16 37.536C276.371 39.472 273.892 40.44 270.724 40.44C269.228 40.44 267.586 40.1027 265.796 39.428L262.716 40.528L262.012 39.956L262.32 31.596L262.056 9.552L267.864 9.112L267.688 22.444H267.952C268.774 21.652 269.566 21.0213 270.328 20.552C271.091 20.0533 271.942 19.628 272.88 19.276ZM270.724 36.612C272.191 36.612 273.335 36.084 274.156 35.028C274.978 33.972 275.388 32.3587 275.388 30.188C275.388 28.164 275.051 26.624 274.376 25.568C273.731 24.512 272.748 23.984 271.428 23.984C270.226 23.984 268.964 24.6 267.644 25.832L267.556 30.848L267.644 35.82C268.73 36.348 269.756 36.612 270.724 36.612ZM294.328 26.448V30.056L283.856 31.684L283.372 31.2V27.548L293.844 25.964L294.328 26.448ZM316.183 31.86L316.403 40H310.595L310.859 32.476L310.727 23.632H304.171L303.951 31.86L304.215 40H298.363L298.671 32.476L298.451 19.54H316.403L316.183 31.86ZM332.949 19.276C335.501 19.276 337.466 20.1413 338.845 21.872C340.223 23.6027 340.913 26.052 340.913 29.22C340.913 32.7987 340.018 35.5707 338.229 37.536C336.469 39.472 333.975 40.44 330.749 40.44C329.81 40.44 328.827 40.352 327.801 40.176L327.933 48.14H322.125L322.433 31.552L322.169 19.936L327.757 19.452L327.713 22.444H328.021C328.842 21.652 329.634 21.0213 330.397 20.552C331.159 20.0533 332.01 19.628 332.949 19.276ZM330.793 36.612C332.318 36.612 333.477 36.0693 334.269 34.984C335.061 33.8987 335.457 32.3 335.457 30.188C335.457 28.1347 335.119 26.5947 334.445 25.568C333.799 24.512 332.831 23.984 331.541 23.984C330.279 23.984 329.003 24.6147 327.713 25.876L327.669 30.98L327.757 35.952C328.813 36.392 329.825 36.612 330.793 36.612ZM345.034 31.552L344.726 19.672L350.534 19.408L350.314 32.08H350.666L357.442 19.54H363.25L362.942 30.848L363.25 40H357.442L357.706 31.948V27.108H357.398L350.402 40H344.726L345.034 31.552ZM385.189 30.98L385.409 40H379.601L379.865 31.552L379.733 23.412H376.037L375.905 24.556C375.407 28.7213 374.864 31.904 374.277 34.104C373.72 36.304 373.016 37.888 372.165 38.856C371.315 39.7947 370.171 40.3373 368.733 40.484H367.413L366.577 35.996C367.633 35.6733 368.455 35.116 369.041 34.324C369.628 33.532 370.112 32.3293 370.493 30.716C370.875 29.0733 371.227 26.6973 371.549 23.588L371.989 19.628L371.945 19.54H385.453L385.189 30.98ZM399.405 19.144C402.397 19.144 404.685 20.024 406.269 21.784C407.853 23.544 408.645 26.0813 408.645 29.396C408.645 32.9747 407.795 35.7173 406.093 37.624C404.392 39.5013 401.943 40.44 398.745 40.44C395.753 40.44 393.465 39.56 391.881 37.8C390.297 36.04 389.505 33.5027 389.505 30.188C389.505 26.6093 390.356 23.8813 392.057 22.004C393.759 20.0973 396.208 19.144 399.405 19.144ZM399.009 23.104C397.601 23.104 396.575 23.5733 395.929 24.512C395.313 25.4507 395.005 26.9613 395.005 29.044C395.005 31.7427 395.328 33.664 395.973 34.808C396.619 35.952 397.675 36.524 399.141 36.524C400.549 36.524 401.561 36.0693 402.177 35.16C402.823 34.2213 403.145 32.696 403.145 30.584C403.145 27.9147 402.808 26.008 402.133 24.864C401.488 23.6907 400.447 23.104 399.009 23.104ZM433.091 28.78C435.027 31.8307 437.374 35.248 440.131 39.032L440.087 39.648C439.031 39.8827 437.931 40.0587 436.787 40.176C435.643 40.3227 434.954 40.4107 434.719 40.44L434.103 40.176C431.522 36.4507 429.351 32.9013 427.591 29.528L427.547 30.98L427.767 40H421.959L422.223 31.552L422.179 29.396C420.361 32.8867 418.175 36.48 415.623 40.176L414.963 40.44C414.699 40.4107 413.995 40.3227 412.851 40.176C411.707 40.0587 410.637 39.8827 409.639 39.648L409.595 39.032C412.353 35.248 414.699 31.8307 416.635 28.78L410.035 19.54H416.107L417.119 21.652L422.179 28.824L422.003 19.54H427.767L427.591 28.736L432.563 21.652L433.619 19.54H439.691L433.091 28.78ZM458.184 30.496L446.304 30.584C446.568 34.2507 448.431 36.084 451.892 36.084C453.711 36.084 455.735 35.5707 457.964 34.544L458.448 34.852L457.568 39.208C455.339 40.0293 453.241 40.44 451.276 40.44C448.049 40.44 445.512 39.5013 443.664 37.624C441.845 35.7467 440.936 33.1507 440.936 29.836C440.936 26.5507 441.831 23.9547 443.62 22.048C445.409 20.112 447.829 19.144 450.88 19.144C453.491 19.144 455.5 19.8627 456.908 21.3C458.345 22.708 459.064 24.688 459.064 27.24C459.064 27.9147 458.991 28.7653 458.844 29.792L458.184 30.496ZM453.96 26.58C453.96 25.4067 453.696 24.5267 453.168 23.94C452.64 23.324 451.863 23.016 450.836 23.016C449.692 23.016 448.739 23.3973 447.976 24.16C447.213 24.8933 446.7 25.964 446.436 27.372L453.872 27.196L453.96 26.58ZM481.711 30.98L481.931 40H476.123L476.387 31.992L472.559 31.948L468.995 32.036L469.215 40H463.363L463.671 31.552L463.451 19.54H469.215L469.039 27.636L472.823 27.68H476.343L476.211 19.54H481.931L481.711 30.98ZM487.69 31.552L487.382 19.672L493.19 19.408L492.97 32.08H493.322L500.098 19.54H505.906L505.598 30.848L505.906 40H500.098L500.362 31.948V27.108H500.054L493.058 40H487.382L487.69 31.552ZM526.931 30.98L527.151 40H521.695L521.871 33.136H518.835C517.838 35.2187 516.62 37.4773 515.183 39.912L514.699 40.308C512.47 40.22 510.754 39.8973 509.551 39.34L509.463 38.768C511.399 36.5387 513.13 34.3533 514.655 32.212C513.276 31.6253 512.279 30.8773 511.663 29.968C511.047 29.0293 510.739 27.812 510.739 26.316C510.739 24.996 511.076 23.8227 511.751 22.796C512.426 21.7693 513.379 20.9627 514.611 20.376C515.843 19.7893 517.236 19.496 518.791 19.496L527.195 19.54L526.931 30.98ZM519.363 23.104C518.336 23.1333 517.544 23.4267 516.987 23.984C516.459 24.512 516.195 25.2747 516.195 26.272C516.195 28.208 517.163 29.4107 519.099 29.88L521.915 29.704V23.236L519.363 23.104ZM543.534 10.608L534.426 45.06H530.378L530.026 44.576L539.09 10.08H543.05L543.534 10.608ZM553.574 19.144C554.542 19.144 555.496 19.2467 556.434 19.452C557.402 19.628 558.253 19.892 558.986 20.244L558.018 24.908L557.534 25.128C556.038 24.3067 554.704 23.896 553.53 23.896C552.181 23.896 551.14 24.38 550.406 25.348C549.673 26.316 549.306 27.6947 549.306 29.484C549.306 31.5373 549.702 33.1067 550.494 34.192C551.286 35.2773 552.416 35.82 553.882 35.82C555.202 35.82 556.669 35.4533 558.282 34.72L558.722 35.072L558.15 39.604C556.39 40.1613 554.586 40.44 552.738 40.44C549.922 40.44 547.722 39.5307 546.138 37.712C544.554 35.864 543.762 33.2973 543.762 30.012C543.762 26.6093 544.628 23.9547 546.358 22.048C548.089 20.112 550.494 19.144 553.574 19.144ZM570.452 19.144C572.71 19.144 574.47 19.6573 575.732 20.684C577.022 21.6813 577.668 23.0893 577.668 24.908C577.668 25.436 577.58 27.108 577.404 29.924C577.374 30.7453 577.33 31.596 577.272 32.476C577.213 33.3267 577.184 34.06 577.184 34.676C577.184 35.1747 577.257 35.5267 577.404 35.732C577.55 35.908 577.814 35.996 578.196 35.996C578.489 35.996 578.87 35.9373 579.34 35.82L579.78 36.172L579.252 39.252C578.313 39.868 577.242 40.2347 576.04 40.352C575.16 40.264 574.426 39.956 573.84 39.428C573.253 38.8707 572.857 38.108 572.652 37.14H572.344C570.877 38.6947 569.366 39.78 567.812 40.396C565.7 40.3667 564.042 39.8093 562.84 38.724C561.637 37.6387 561.036 36.1573 561.036 34.28C561.036 32.8133 561.402 31.6693 562.136 30.848C562.898 29.9973 564.042 29.4253 565.568 29.132L572.3 27.856V26.052C572.3 24.1453 571.361 23.192 569.484 23.192C568.574 23.192 567.606 23.3973 566.58 23.808C565.582 24.2187 564.453 24.864 563.192 25.744L562.752 25.48L562.092 21.608C563.353 20.816 564.702 20.2147 566.14 19.804C567.577 19.364 569.014 19.144 570.452 19.144ZM567.592 31.816C567.122 31.9333 566.77 32.1387 566.536 32.432C566.33 32.696 566.228 33.1067 566.228 33.664C566.228 34.4267 566.433 35.028 566.844 35.468C567.254 35.8787 567.826 36.084 568.56 36.084C569.704 36.084 570.906 35.4093 572.168 34.06L572.256 30.804L567.592 31.816ZM583.554 31.552L583.246 19.672L589.054 19.408L588.834 32.08H589.186L595.962 19.54H601.77L601.462 30.848L601.77 40H595.962L596.226 31.948V27.108H595.918L588.922 40H583.246L583.554 31.552ZM599.79 12.236C599.203 13.5853 598.25 14.6413 596.93 15.404C595.639 16.1667 594.128 16.548 592.398 16.548C590.696 16.548 589.23 16.1813 587.998 15.448C586.766 14.7147 585.827 13.644 585.182 12.236L588.13 10.212H588.746C589.127 11.268 589.596 12.016 590.154 12.456C590.74 12.896 591.547 13.116 592.574 13.116C593.571 13.116 594.334 12.9107 594.862 12.5C595.419 12.06 595.888 11.2973 596.27 10.212H596.842L599.79 12.236ZM621.613 19.936L621.261 23.72L617.213 23.588H615.717L615.541 30.98L615.805 40H609.997L610.261 31.552L610.129 23.588H608.545L604.497 23.72L604.189 23.324L604.453 19.54H621.261L621.613 19.936ZM648.525 30.98L648.789 40H642.937L643.245 31.552L643.025 19.936L648.789 19.452L648.525 30.98ZM634.137 27.02C636.308 27.02 637.965 27.504 639.109 28.472C640.282 29.4107 640.869 30.7893 640.869 32.608C640.869 34.9253 640.048 36.744 638.405 38.064C636.762 39.3547 634.489 40 631.585 40H624.281L624.589 31.552L624.369 19.54H630.133L629.957 27.02H634.137ZM632.817 36.48C633.609 36.304 634.225 35.9373 634.665 35.38C635.105 34.7933 635.325 34.0893 635.325 33.268C635.325 32.388 635.076 31.6987 634.577 31.2C634.078 30.672 633.389 30.4227 632.509 30.452L629.869 30.496V30.98L630.045 36.348L632.817 36.48Z" fill="#333333"/>
</svg>
