<svg id="reg" enable-background="new 0 0 24 24" height="512" viewBox="0 0 24 24" width="512" xmlns="http://www.w3.org/2000/svg"><path d="m22.666 13.814c.684-5.776-.328-9.423-2.153-11.072l.001-.001c-2.947-2.817-12.895-3.234-16.419.127-1.583 1.644-2.14 4.056-2.201 7.042-.061 2.987-.134 8.583 5.06 10.101h.005l-.005 2.318s-.035.939.562 1.128c.685.223.995-.217 3.119-2.762 3.555.309 6.284-.4 6.595-.503.717-.243 4.779-.782 5.436-6.378z" fill="#8e24aa"/><path d="m15.521 12.774c-.494-.286-.997-.108-1.205.173l-.435.563c-.221.286-.634.248-.634.248-4.87 1.159-4.79-2.929-3.82-3.951 0 0-.037-.426.24-.656l.544-.45c.272-.216.444-.736.167-1.247-.741-1.337-1.238-1.798-1.491-2.152-.266-.333-.666-.408-1.082-.183h-.009c-.865.506-1.812 1.453-1.509 2.428.055.1 1.353 4.212 4.495 6.781 1.423 1.171 3.675 2.371 4.631 2.648l.009.014c.942.314 1.858-.67 2.347-1.561v-.007c.217-.431.145-.839-.172-1.106-.562-.548-1.41-1.153-2.076-1.542z" fill="#fff"/><path d="m6.328 20.378c-.031 1.465-.204 3.139 1.071 3.543 1.25.407 1.975-.598 3.605-2.638 6.078.415 11.443-1.294 12.161-7.421.643-5.447-.188-9.522-2.327-11.461-3.137-3.006-13.348-3.427-17.086.146-1.539 1.601-2.289 3.95-2.359 7.393-.057 2.812-.173 8.562 4.935 10.438zm-3.435-10.407c.062-3.043.678-5.072 1.917-6.362 3.121-2.982 12.37-2.637 15.005-.109 1.759 1.593 2.438 5.306 1.861 10.187-.524 4.476-3.406 5.24-4.491 5.527-2.247.593-4.389.722-6.444.544-.541-.058-.754.454-.951.64-.979 1.177-1.685 2.027-1.868 2.141-.135-.201-.114-1.152-.098-1.916-.049-.344.259-1.295-.544-1.51-4.545-1.342-4.442-6.415-4.387-9.142z"/><path d="m5.762 7.98c.801 1.597 1.582 4.419 4.581 6.875 1.041.858 4.157 2.838 5.377 2.838 1.743 0 3.734-2.742 2.276-3.965-.656-.641-1.579-1.272-2.171-1.619-.001-.001-.002-.001-.002-.001-1.537-.889-2.379.747-2.479.811-2.252 2.016-5.026-1.486-3.082-3.18.239-.297 1.665-.985.819-2.549-.75-1.357-1.245-1.824-1.525-2.211-1.477-1.844-4.673 1.219-3.794 3.001zm9.174 5.373c.102.064.991.453 2.052 1.486.135.113-.765 1.421-1.338 1.346-.113-.051-.93-.246-2.685-1.319 1.666-.566 1.652-1.453 1.971-1.513zm-6.666-7.425c.062-.033.094-.035.091-.043.288.401.718.783 1.404 2.024.182.337-.267.468-.557.764-.413.366-.716.802-.902 1.283-.614-1.159-.889-1.994-1.169-2.578-.112-.532.657-1.178 1.133-1.45z"/><path d="m12.812 8.55c.011.001 1.099.14 1.294 1.311.165.994 1.641.727 1.479-.246-.303-1.819-1.834-2.467-2.603-2.555-.985-.111-1.154 1.376-.17 1.49z"/><path d="m12.031 5.316c.017 0 2.378-.042 3.915 1.602 1.518 1.624 1.183 3.985 1.18 4.006-.153.973 1.325 1.231 1.481.233.02-.125.461-3.096-1.565-5.264-2.011-2.152-4.936-2.085-5.057-2.077-1.025.034-.901 1.578.046 1.5z"/></svg>