<svg id="reg" enable-background="new 0 0 24 24" height="512" viewBox="0 0 24 24" width="512" xmlns="http://www.w3.org/2000/svg"><path d="m19.585 12.991c-.372-.472-.265-.683 0-1.105.005-.005 3.074-4.273 3.39-5.72l.002-.001c.158-.527 0-.915-.76-.915h-2.515c-.64 0-.935.333-1.093.705 0 0-1.281 3.084-3.092 5.083-.585.578-.854.763-1.174.763-.158 0-.402-.185-.402-.713-.149-4.86.403-5.838-.709-5.838h-3.953c-.402 0-.64.295-.64.57 0 .599.905.738.999 2.425v3.662c0 2.967-3.137-1.405-4.625-5.69-.247-.688-.49-.966-1.135-.966h-2.515c-.718 0-.863.333-.863.705 0 .658.854 3.927 3.975 8.247 2.08 2.949 5.008 4.547 7.673 4.547 1.601 0 1.797-.355 1.797-.966 0-2.818-.145-3.084.658-3.084.372 0 1.012.185 2.507 1.607 1.708 1.687 1.989 2.442 2.946 2.442h2.515c.717 0 1.08-.355.871-1.055-.479-1.471-3.711-4.5-3.857-4.703z" fill="#4b729f"/><path d="m12.145 19.5c3.472 0 2.234-2.198 2.502-2.83-.004-.472-.008-.926.008-1.202.22.062.739.325 1.811 1.367 1.655 1.67 2.078 2.665 3.415 2.665h2.461c.78 0 1.186-.323 1.389-.594.196-.262.388-.722.178-1.438-.549-1.724-3.751-4.701-3.95-5.015.03-.058.078-.135.103-.175h-.002c.632-.835 3.044-4.449 3.399-5.895.001-.002.002-.005.002-.008.192-.66.016-1.088-.166-1.33-.274-.362-.71-.545-1.299-.545h-2.461c-.824 0-1.449.415-1.765 1.172-.529 1.345-2.015 4.111-3.129 5.09-.034-1.387-.011-2.446.007-3.233.036-1.535.152-3.029-1.441-3.029h-3.868c-.998 0-1.953 1.09-.919 2.384.904 1.134.325 1.766.52 4.912-.76-.815-2.112-3.016-3.068-5.829-.268-.761-.674-1.466-1.817-1.466h-2.461c-.998 0-1.594.544-1.594 1.455 0 2.046 4.529 13.544 12.145 13.544zm-8.09-13.499c.217 0 .239 0 .4.457.979 2.883 3.175 7.149 4.779 7.149 1.205 0 1.205-1.235 1.205-1.7l-.001-3.702c-.066-1.225-.512-1.835-.805-2.205l3.508.004c.002.017-.02 4.095.01 5.083 0 1.403 1.114 2.207 2.853.447 1.835-2.071 3.104-5.167 3.155-5.293.075-.18.14-.241.376-.241h2.461.01c-.001.003-.001.006-.002.009-.225 1.05-2.446 4.396-3.189 5.435-.012.016-.023.033-.034.05-.327.534-.593 1.124.045 1.954h.001c.058.07.209.234.429.462.684.706 3.03 3.12 3.238 4.08-.138.022-.288.006-2.613.011-.495 0-.882-.74-2.359-2.23-1.328-1.292-2.19-1.82-2.975-1.82-1.524 0-1.413 1.237-1.399 2.733.005 1.622-.005 1.109.006 1.211-.089.035-.344.105-1.009.105-6.345 0-10.477-10.071-10.636-11.996.055-.005.812-.002 2.546-.003z"/></svg>